<svg width="78" height="64" viewBox="0 0 78 64" fill="none" xmlns="http://www.w3.org/2000/svg">
<path d="M76.2411 6.36914V56.9219C76.2411 59.9563 73.7702 62.4163 70.7219 62.4163H6.81391C3.76578 62.4163 1.29468 59.9563 1.29468 56.9219V6.36914M65.0843 6.36914H12.4515" stroke="#D8AB7A" stroke-width="2" stroke-miterlimit="10" stroke-linecap="round" stroke-linejoin="round"/>
<path d="M12.212 6.43003C12.212 3.44345 9.75571 1 6.75343 1C3.751 1 1.29468 3.4436 1.29468 6.43003V57.1556C1.29468 54.1691 3.751 51.9598 6.75328 51.9598C8.79633 51.9598 10.5865 53.0913 11.522 54.7555H12.2119L12.212 6.43003ZM70.7825 51.9598C73.7848 51.9598 76.2411 54.0645 76.2411 57.0511V6.43003C76.2411 3.44345 73.7848 1 70.7825 1C67.7803 1 65.3239 3.4436 65.3239 6.43003V54.7555H66.0138C66.9493 53.0913 68.7395 51.9598 70.7825 51.9598ZM38.7679 14.9563L24.7388 26.0939V45.4111H34.9208V34.7235H42.615V45.4111H52.7971V26.0939L38.7679 14.9563Z" stroke="#D8AB7A" stroke-width="2" stroke-miterlimit="10" stroke-linecap="round" stroke-linejoin="round"/>
<path d="M23.0816 27.4105L38.7681 14.957L54.4546 27.4105M52.7973 25.861V20.8111M20.3427 52.2515H57.1935M57.3524 49.6826V54.8203M20.1838 49.6826V54.8203" stroke="#D8AB7A" stroke-width="2" stroke-miterlimit="10" stroke-linecap="round" stroke-linejoin="round"/>
</svg>
