<svg width="66" height="76" viewBox="0 0 66 76" fill="none" xmlns="http://www.w3.org/2000/svg">
<path d="M49.3971 33.098C49.2702 33.0981 49.1441 33.0773 49.0239 33.0366L42.1171 30.7342L29.3226 30.7484C29.1674 30.7489 29.0124 30.7186 28.8689 30.6594C28.7254 30.6002 28.595 30.5131 28.4853 30.4033C28.3755 30.2934 28.2885 30.163 28.2293 30.0194C28.1701 29.8758 28.1399 29.7219 28.1404 29.5665V1.1819C28.1404 0.868444 28.2648 0.567822 28.4863 0.346172C28.7078 0.124522 29.0082 0 29.3214 0H52.9403C53.2535 0 53.5539 0.124522 53.7754 0.346172C53.9969 0.567822 54.1214 0.868444 54.1214 1.1819V29.5523C54.1214 29.8658 53.9969 30.1664 53.7754 30.3881C53.5539 30.6097 53.2535 30.7342 52.9403 30.7342H50.5794L50.5782 31.9173C50.5779 32.2306 50.4533 32.5309 50.2318 32.7523C50.0104 32.9737 49.7101 33.098 49.3971 33.098ZM42.3084 28.3704C42.4348 28.3704 42.5611 28.3917 42.6816 28.4319L48.2172 30.278L48.2184 29.5523C48.2187 29.2391 48.3433 28.9388 48.5648 28.7174C48.7862 28.496 49.0864 28.3716 49.3995 28.3716H51.7592V2.36381H30.5025V28.3834L42.3084 28.3704Z" fill="#D8AB7A"/>
<path d="M17.5109 30.7341C17.1979 30.7332 16.898 30.6083 16.6768 30.3869C16.4555 30.1654 16.3307 29.8654 16.3298 29.5522V28.3703H13.9677C13.6544 28.3703 13.354 28.2458 13.1325 28.0241C12.9111 27.8025 12.7866 27.5018 12.7866 27.1884V9.46218C12.7866 9.14872 12.9111 8.8481 13.1325 8.62645C13.354 8.4048 13.6544 8.28027 13.9677 8.28027H29.312C29.6253 8.28027 29.9257 8.4048 30.1472 8.62645C30.3686 8.8481 30.4931 9.14872 30.4931 9.46218C30.4931 9.77564 30.3686 10.0763 30.1472 10.2979C29.9257 10.5196 29.6253 10.6441 29.312 10.6441H15.1487V26.0065H17.5109C17.8241 26.0065 18.1245 26.131 18.346 26.3526C18.5675 26.5743 18.6919 26.8749 18.6919 27.1884V27.8065L22.978 26.0904C23.1174 26.0348 23.2662 26.0065 23.4162 26.0065H23.4185L29.3144 26.0207C29.6276 26.021 29.9279 26.1458 30.1492 26.3677C30.3704 26.5895 30.4946 26.8903 30.4943 27.2037C30.4939 27.5172 30.3692 27.8177 30.1475 28.0391C29.9258 28.2606 29.6253 28.3848 29.312 28.3845H29.3097L23.6417 28.3703L17.949 30.6502C17.8096 30.7055 17.6609 30.7339 17.5109 30.7341ZM36.4055 73.2755C36.0922 73.2755 35.7918 73.151 35.5703 72.9294C35.3488 72.7077 35.2244 72.4071 35.2244 72.0936C35.2244 68.1827 38.4026 65.0022 42.3108 65.0022C42.624 65.0022 42.9244 65.1267 43.1459 65.3484C43.3674 65.57 43.4918 65.8707 43.4918 66.1841C43.4918 66.4976 43.3674 66.7982 43.1459 67.0199C42.9244 67.2415 42.624 67.366 42.3108 67.366C39.7054 67.366 37.5865 69.4864 37.5865 72.0936C37.5865 72.4071 37.4621 72.7077 37.2406 72.9294C37.0191 73.151 36.7187 73.2755 36.4055 73.2755Z" fill="#D8AB7A"/>
<path d="M45.8542 67.3658H42.311C41.9977 67.3658 41.6973 67.2412 41.4758 67.0196C41.2543 66.7979 41.1299 66.4973 41.1299 66.1839C41.1299 65.8704 41.2543 65.5698 41.4758 65.3481C41.6973 65.1265 41.9977 65.002 42.311 65.002H45.8542C46.1674 65.002 46.4678 65.1265 46.6893 65.3481C46.9108 65.5698 47.0352 65.8704 47.0352 66.1839C47.0352 66.4973 46.9108 66.7979 46.6893 67.0196C46.4678 67.2412 46.1674 67.3658 45.8542 67.3658ZM36.4057 75.6367C36.0924 75.6367 35.792 75.5122 35.5705 75.2906C35.349 75.0689 35.2246 74.7683 35.2246 74.4548V72.0934C35.2246 71.7799 35.349 71.4793 35.5705 71.2576C35.792 71.036 36.0924 70.9115 36.4057 70.9115C36.7189 70.9115 37.0193 71.036 37.2408 71.2576C37.4623 71.4793 37.5867 71.7799 37.5867 72.0934V74.4548C37.5867 74.7683 37.4623 75.0689 37.2408 75.2906C37.0193 75.5122 36.7189 75.6367 36.4057 75.6367ZM64.7511 73.2753C64.4379 73.2753 64.1375 73.1508 63.916 72.9291C63.6945 72.7075 63.5701 72.4068 63.5701 72.0934C63.5701 69.4861 61.4512 67.3658 58.8458 67.3658C58.5326 67.3658 58.2322 67.2412 58.0107 67.0196C57.7892 66.7979 57.6648 66.4973 57.6648 66.1839C57.6648 65.8704 57.7892 65.5698 58.0107 65.3481C58.2322 65.1265 58.5326 65.002 58.8458 65.002C62.754 65.002 65.9322 68.1825 65.9322 72.0934C65.9322 72.4068 65.8078 72.7075 65.5863 72.9291C65.3648 73.1508 65.0644 73.2753 64.7511 73.2753Z" fill="#D8AB7A"/>
<path d="M58.8458 67.3654H55.3026C54.9894 67.3654 54.689 67.2409 54.4675 67.0192C54.246 66.7976 54.1216 66.4969 54.1216 66.1835C54.1216 65.87 54.246 65.5694 54.4675 65.3478C54.689 65.1261 54.9894 65.0016 55.3026 65.0016H58.8458C59.1591 65.0016 59.4595 65.1261 59.681 65.3478C59.9025 65.5694 60.0269 65.87 60.0269 66.1835C60.0269 66.4969 59.9025 66.7976 59.681 67.0192C59.4595 67.2409 59.1591 67.3654 58.8458 67.3654ZM64.7511 75.6364C64.4379 75.6364 64.1375 75.5118 63.916 75.2902C63.6945 75.0685 63.5701 74.7679 63.5701 74.4545V72.093C63.5701 71.7795 63.6945 71.4789 63.916 71.2573C64.1375 71.0356 64.4379 70.9111 64.7511 70.9111C65.0644 70.9111 65.3648 71.0356 65.5863 71.2573C65.8078 71.4789 65.9322 71.7795 65.9322 72.093V74.4545C65.9322 74.7679 65.8078 75.0685 65.5863 75.2902C65.3648 75.5118 65.0644 75.6364 64.7511 75.6364ZM45.8542 67.3654C45.5409 67.3654 45.2405 67.2409 45.019 67.0192C44.7975 66.7976 44.6731 66.4969 44.6731 66.1835V61.5315C44.6731 61.2181 44.7975 60.9174 45.019 60.6958C45.2405 60.4741 45.5409 60.3496 45.8542 60.3496C46.1674 60.3496 46.4678 60.4741 46.6893 60.6958C46.9108 60.9174 47.0352 61.2181 47.0352 61.5315V66.1835C47.0352 66.4969 46.9108 66.7976 46.6893 67.0192C46.4678 67.2409 46.1674 67.3654 45.8542 67.3654Z" fill="#D8AB7A"/>
<path d="M55.3024 67.3654C54.9892 67.3654 54.6888 67.2409 54.4673 67.0192C54.2458 66.7976 54.1213 66.4969 54.1213 66.1835V61.5315C54.1213 61.2181 54.2458 60.9174 54.4673 60.6958C54.6888 60.4741 54.9892 60.3496 55.3024 60.3496C55.6156 60.3496 55.916 60.4741 56.1375 60.6958C56.359 60.9174 56.4835 61.2181 56.4835 61.5315V66.1835C56.4835 66.4969 56.359 66.7976 56.1375 67.0192C55.916 67.2409 55.6156 67.3654 55.3024 67.3654Z" fill="#D8AB7A"/>
<path d="M50.5758 63.8208C44.0646 63.8208 38.7676 58.52 38.7676 52.0042C38.7676 51.6907 38.892 51.3901 39.1135 51.1684C39.335 50.9468 39.6354 50.8223 39.9486 50.8223C40.2619 50.8223 40.5623 50.9468 40.7838 51.1684C41.0053 51.3901 41.1297 51.6907 41.1297 52.0042C41.1297 57.2164 45.3673 61.457 50.5758 61.457C55.7867 61.457 60.0267 57.2164 60.0267 52.0042C60.0267 51.6907 60.1511 51.3901 60.3726 51.1684C60.5941 50.9468 60.8945 50.8223 61.2077 50.8223C61.521 50.8223 61.8214 50.9468 62.0429 51.1684C62.2644 51.3901 62.3888 51.6907 62.3888 52.0042C62.3888 58.52 57.0894 63.8208 50.5758 63.8208Z" fill="#D8AB7A"/>
<path d="M39.9486 53.244C39.6354 53.244 39.335 53.1195 39.1135 52.8979C38.892 52.6762 38.7676 52.3756 38.7676 52.0621V44.9104C38.7676 44.597 38.892 44.2963 39.1135 44.0747C39.335 43.853 39.6354 43.7285 39.9486 43.7285C40.2619 43.7285 40.5623 43.853 40.7838 44.0747C41.0053 44.2963 41.1297 44.597 41.1297 44.9104V52.0621C41.1297 52.3756 41.0053 52.6762 40.7838 52.8979C40.5623 53.1195 40.2619 53.244 39.9486 53.244ZM61.2077 53.1861C60.8945 53.1861 60.5941 53.0616 60.3726 52.8399C60.1511 52.6183 60.0267 52.3177 60.0267 52.0042V44.9104C60.0267 44.597 60.1511 44.2963 60.3726 44.0747C60.5941 43.853 60.8945 43.7285 61.2077 43.7285C61.521 43.7285 61.8214 43.853 62.0429 44.0747C62.2644 44.2963 62.3888 44.597 62.3888 44.9104V52.0042C62.3888 52.3177 62.2644 52.6183 62.0429 52.8399C61.8214 53.0616 61.521 53.1861 61.2077 53.1861Z" fill="#D8AB7A"/>
<path d="M61.2078 46.09C60.8946 46.09 60.5941 45.9655 60.3727 45.7439C60.1512 45.5222 60.0267 45.2216 60.0267 44.9081C60.0252 43.9685 59.6513 43.0677 58.9871 42.4035C58.3229 41.7393 57.4226 41.3657 56.4836 41.3648C56.1703 41.3648 55.8699 41.2403 55.6484 41.0186C55.4269 40.797 55.3025 40.4963 55.3025 40.1829C55.3025 39.8694 55.4269 39.5688 55.6484 39.3471C55.8699 39.1255 56.1703 39.001 56.4836 39.001C59.7397 39.001 62.3889 41.6508 62.3889 44.9081C62.3889 45.2216 62.2644 45.5222 62.0429 45.7439C61.8214 45.9655 61.521 46.09 61.2078 46.09Z" fill="#D8AB7A"/>
<path d="M56.4836 41.3639C56.1703 41.3639 55.8699 41.2394 55.6484 41.0177C55.4269 40.7961 55.3025 40.4954 55.3025 40.182V35.4544C55.3025 35.1409 55.4269 34.8403 55.6484 34.6186C55.8699 34.397 56.1703 34.2725 56.4836 34.2725C56.7968 34.2725 57.0972 34.397 57.3187 34.6186C57.5402 34.8403 57.6646 35.1409 57.6646 35.4544V40.182C57.6646 40.4954 57.5402 40.7961 57.3187 41.0177C57.0972 41.2394 56.7968 41.3639 56.4836 41.3639Z" fill="#D8AB7A"/>
<path d="M56.4837 36.6363H49.3974C49.0841 36.6363 48.7837 36.5117 48.5622 36.2901C48.3407 36.0684 48.2163 35.7678 48.2163 35.4544C48.2163 35.1409 48.3407 34.8403 48.5622 34.6186C48.7837 34.397 49.0841 34.2725 49.3974 34.2725H56.4837C56.797 34.2725 57.0974 34.397 57.3189 34.6186C57.5404 34.8403 57.6648 35.1409 57.6648 35.4544C57.6648 35.7678 57.5404 36.0684 57.3189 36.2901C57.0974 36.5117 56.797 36.6363 56.4837 36.6363Z" fill="#D8AB7A"/>
<path d="M39.9486 46.0915C39.6354 46.0915 39.335 45.967 39.1135 45.7453C38.892 45.5237 38.7676 45.2231 38.7676 44.9096C38.7676 39.0438 43.5355 34.2725 49.3971 34.2725C49.7104 34.2725 50.0108 34.397 50.2323 34.6186C50.4538 34.8403 50.5782 35.1409 50.5782 35.4544C50.5782 35.7678 50.4538 36.0684 50.2323 36.2901C50.0108 36.5117 49.7104 36.6363 49.3971 36.6363C44.8394 36.6363 41.1297 40.3486 41.1297 44.9096C41.1297 45.2231 41.0053 45.5237 40.7838 45.7453C40.5623 45.967 40.2619 46.0915 39.9486 46.0915ZM61.2065 49.6668C60.9798 49.6668 60.7495 49.6006 60.5463 49.4647L57.0032 47.0713C56.7437 46.8956 56.5644 46.6242 56.5046 46.3164C56.4449 46.0087 56.5095 45.6898 56.6843 45.4296C56.86 45.1702 57.1313 44.991 57.4387 44.9312C57.7461 44.8714 58.0647 44.9359 58.3248 45.1105L61.8679 47.5039C62.0766 47.6462 62.2343 47.8516 62.318 48.09C62.4017 48.3284 62.407 48.5874 62.3331 48.829C62.2592 49.0707 62.11 49.2823 61.9073 49.4331C61.7046 49.5838 61.4591 49.6657 61.2065 49.6668Z" fill="#D8AB7A"/>
<path d="M51.169 48.4556C46.903 48.4556 43.2713 47.2643 43.1201 47.2135C42.8328 47.1068 42.5982 46.8927 42.4656 46.6163C42.333 46.3399 42.3128 46.0228 42.4093 45.7317C42.5057 45.4407 42.7113 45.1986 42.9827 45.0563C43.2541 44.914 43.5701 44.8827 43.8642 44.969C43.8984 44.982 47.2987 46.0918 51.169 46.0918C54.9224 46.0918 57.1216 45.0423 57.144 45.0317C57.7263 44.7492 58.4361 44.9879 58.7231 45.5718C59.0101 46.1557 58.7739 46.8601 58.1928 47.1508C58.0853 47.2028 55.5224 48.4556 51.169 48.4556Z" fill="#D8AB7A"/>
<path d="M39.95 49.6677C39.697 49.6679 39.4506 49.5868 39.2472 49.4363C39.0437 49.2858 38.8939 49.0739 38.8198 48.8318C38.7457 48.5897 38.7513 48.3302 38.8357 48.0916C38.9201 47.8529 39.0789 47.6476 39.2886 47.506L42.8318 45.1127C43.0916 44.9569 43.4012 44.9068 43.6969 44.9726C43.9925 45.0384 44.2517 45.2151 44.421 45.4664C44.5904 45.7176 44.657 46.0243 44.6073 46.3233C44.5575 46.6222 44.395 46.8907 44.1534 47.0734L40.6102 49.4668C40.4071 49.6027 40.1768 49.6677 39.95 49.6677ZM48.2151 68.5486C48.0379 68.5486 47.8572 68.5085 47.6883 68.4245L45.3262 67.2426C45.1875 67.1732 45.0638 67.0771 44.9621 66.9598C44.8605 66.8425 44.783 66.7063 44.734 66.559C44.685 66.4117 44.6654 66.2562 44.6764 66.1014C44.6875 65.9465 44.7289 65.7954 44.7983 65.6565C44.8677 65.5177 44.9637 65.3939 45.0809 65.2922C45.1982 65.1905 45.3342 65.1129 45.4814 65.0639C45.6286 65.0148 45.784 64.9952 45.9387 65.0063C46.0935 65.0173 46.2445 65.0588 46.3833 65.1282L48.7454 66.3101C48.9832 66.4294 49.1739 66.6256 49.2864 66.8668C49.3989 67.1081 49.4268 67.3803 49.3654 67.6394C49.304 67.8984 49.157 68.1292 48.9483 68.2942C48.7395 68.4592 48.4811 68.5489 48.2151 68.5486Z" fill="#D8AB7A"/>
<path d="M48.2173 68.5475C47.9508 68.5483 47.6918 68.4589 47.4826 68.2938C47.2733 68.1287 47.126 67.8976 47.0645 67.6381C47.0031 67.3786 47.0312 67.106 47.1442 66.8644C47.2572 66.6229 47.4484 66.4268 47.687 66.3078L50.0491 65.1259C50.3293 64.9856 50.6537 64.9625 50.9509 65.0616C51.2481 65.1606 51.4939 65.3738 51.6341 65.6542C51.7742 65.9346 51.7974 66.2592 51.6984 66.5567C51.5993 66.8541 51.3863 67.1001 51.1061 67.2403L48.744 68.4222C48.5806 68.5047 48.4002 68.5476 48.2173 68.5475ZM52.9415 68.5475C52.675 68.5483 52.4161 68.4589 52.2068 68.2938C51.9975 68.1287 51.8502 67.8976 51.7888 67.6381C51.7273 67.3786 51.7554 67.106 51.8684 66.8644C51.9814 66.6229 52.1727 66.4268 52.4112 66.3078L54.7733 65.1259C55.0535 64.9856 55.3779 64.9625 55.6751 65.0616C55.9724 65.1606 56.2181 65.3738 56.3583 65.6542C56.4985 65.9346 56.5216 66.2592 56.4226 66.5567C56.3236 66.8541 56.1106 67.1001 55.8304 67.2403L53.4682 68.4222C53.3049 68.5047 53.1245 68.5476 52.9415 68.5475Z" fill="#D8AB7A"/>
<path d="M52.9391 68.5481C52.7619 68.5481 52.5812 68.5079 52.4123 68.424L50.0502 67.2421C49.77 67.1018 49.557 66.8559 49.458 66.5585C49.359 66.261 49.3821 65.9364 49.5223 65.656C49.6624 65.3756 49.9082 65.1624 50.2054 65.0633C50.5026 64.9643 50.827 64.9874 51.1072 65.1277L53.4694 66.3096C53.7072 66.4289 53.8978 66.625 54.0104 66.8663C54.1229 67.1076 54.1507 67.3798 54.0894 67.6388C54.028 67.8979 53.881 68.1286 53.6722 68.2937C53.4635 68.4587 53.2051 68.5484 52.9391 68.5481ZM5.70254 53.1373C5.38931 53.1373 5.0889 53.0127 4.86741 52.7911C4.64592 52.5694 4.52148 52.2688 4.52148 51.9554V46.8495C4.52148 46.5361 4.64592 46.2354 4.86741 46.0138C5.0889 45.7921 5.38931 45.6676 5.70254 45.6676C6.01578 45.6676 6.31619 45.7921 6.53768 46.0138C6.75917 46.2354 6.88361 46.5361 6.88361 46.8495V51.9554C6.88361 52.2688 6.75917 52.5694 6.53768 52.7911C6.31619 53.0127 6.01578 53.1373 5.70254 53.1373ZM26.9616 53.1834C26.6484 53.1834 26.348 53.0588 26.1265 52.8372C25.905 52.6155 25.7806 52.3149 25.7806 52.0014V46.6829C25.7806 46.3694 25.905 46.0688 26.1265 45.8471C26.348 45.6255 26.6484 45.501 26.9616 45.501C27.2749 45.501 27.5753 45.6255 27.7968 45.8471C28.0183 46.0688 28.1427 46.3694 28.1427 46.6829V52.0014C28.1427 52.3149 28.0183 52.6155 27.7968 52.8372C27.5753 53.0588 27.2749 53.1834 26.9616 53.1834Z" fill="#D8AB7A"/>
<path d="M26.9618 47.8644C26.6486 47.8644 26.3481 47.7398 26.1266 47.5182C25.9052 47.2965 25.7807 46.9959 25.7807 46.6825C25.7807 41.1429 21.2773 36.6363 15.7417 36.6363C10.2061 36.6363 5.7027 41.1429 5.7027 46.6825C5.7027 46.9959 5.57826 47.2965 5.35677 47.5182C5.13528 47.7398 4.83487 47.8644 4.52164 47.8644C4.2084 47.8644 3.90799 47.7398 3.6865 47.5182C3.46501 47.2965 3.34058 46.9959 3.34058 46.6825C3.34058 39.8392 8.90337 34.2725 15.7417 34.2725C22.5801 34.2725 28.1428 39.8392 28.1428 46.6825C28.1428 46.9959 28.0184 47.2965 27.7969 47.5182C27.5754 47.7398 27.275 47.8644 26.9618 47.8644Z" fill="#D8AB7A"/>
<path d="M26.9631 49.6386C26.7815 49.6389 26.6023 49.5972 26.4395 49.5168C26.2766 49.4365 26.1345 49.3196 26.0242 49.1753C23.1235 45.3825 21.8161 45.7714 18.3189 46.8103C15.312 47.7073 11.1948 48.9342 4.33755 47.8504C4.02825 47.8012 3.7511 47.6312 3.56706 47.3777C3.38301 47.1241 3.30712 46.8078 3.35608 46.4983C3.37994 46.3448 3.43388 46.1976 3.51479 46.065C3.59571 45.9325 3.702 45.8173 3.82757 45.726C3.95313 45.6347 4.09549 45.5692 4.24645 45.5332C4.39741 45.4972 4.554 45.4914 4.70722 45.5161C11.0306 46.516 14.8549 45.3778 17.6457 44.5446C21.3377 43.4466 24.0069 42.65 27.9009 47.7369C28.0352 47.912 28.1179 48.1212 28.1395 48.3408C28.1611 48.5605 28.1208 48.7818 28.0232 48.9797C27.9256 49.1776 27.7746 49.3442 27.5872 49.4607C27.3999 49.5771 27.1837 49.6388 26.9631 49.6386Z" fill="#D8AB7A"/>
<path d="M21.0802 46.1264C20.8653 46.1263 20.6546 46.0675 20.4707 45.9564C20.2868 45.8453 20.1367 45.6861 20.0364 45.496C19.9362 45.3058 19.8897 45.0919 19.9019 44.8773C19.9141 44.6627 19.9846 44.4555 20.1058 44.2779L23.6242 39.1225C23.8008 38.8634 24.0731 38.6852 24.3811 38.627C24.6891 38.5688 25.0075 38.6354 25.2664 38.8122C25.5253 38.989 25.7034 39.2615 25.7616 39.5697C25.8197 39.8779 25.7531 40.1966 25.5765 40.4557L22.0581 45.6111C21.9494 45.7703 21.8035 45.9005 21.6331 45.9903C21.4626 46.0801 21.2728 46.1269 21.0802 46.1264ZM2.15958 73.276C1.84634 73.276 1.54593 73.1514 1.32444 72.9298C1.10295 72.7081 0.978516 72.4075 0.978516 72.094C0.978516 68.1831 4.15675 65.0026 8.06488 65.0026C8.37812 65.0026 8.67852 65.1271 8.90001 65.3488C9.12151 65.5704 9.24594 65.8711 9.24594 66.1845C9.24594 66.498 9.12151 66.7986 8.90001 67.0203C8.67852 67.2419 8.37812 67.3664 8.06488 67.3664C5.45946 67.3664 3.34064 69.4868 3.34064 72.094C3.34064 72.4075 3.2162 72.7081 2.99471 72.9298C2.77322 73.1514 2.47281 73.276 2.15958 73.276Z" fill="#D8AB7A"/>
<path d="M11.6081 67.3658H8.06488C7.75164 67.3658 7.45123 67.2412 7.22974 67.0196C7.00825 66.7979 6.88382 66.4973 6.88382 66.1839C6.88382 65.8704 7.00825 65.5698 7.22974 65.3481C7.45123 65.1265 7.75164 65.002 8.06488 65.002H11.6081C11.9213 65.002 12.2217 65.1265 12.4432 65.3481C12.6647 65.5698 12.7891 65.8704 12.7891 66.1839C12.7891 66.4973 12.6647 66.7979 12.4432 67.0196C12.2217 67.2412 11.9213 67.3658 11.6081 67.3658ZM2.15958 75.6367C1.84634 75.6367 1.54593 75.5122 1.32444 75.2906C1.10295 75.0689 0.978516 74.7683 0.978516 74.4548V72.0934C0.978516 71.7799 1.10295 71.4793 1.32444 71.2576C1.54593 71.036 1.84634 70.9115 2.15958 70.9115C2.47281 70.9115 2.77322 71.036 2.99471 71.2576C3.2162 71.4793 3.34064 71.7799 3.34064 72.0934V74.4548C3.34064 74.7683 3.2162 75.0689 2.99471 75.2906C2.77322 75.5122 2.47281 75.6367 2.15958 75.6367ZM30.505 73.2753C30.1918 73.2753 29.8914 73.1508 29.6699 72.9291C29.4484 72.7075 29.324 72.4068 29.324 72.0934C29.324 69.4861 27.2051 67.3658 24.5997 67.3658C24.2865 67.3658 23.9861 67.2412 23.7646 67.0196C23.5431 66.7979 23.4187 66.4973 23.4187 66.1839C23.4187 65.8704 23.5431 65.5698 23.7646 65.3481C23.9861 65.1265 24.2865 65.002 24.5997 65.002C28.5079 65.002 31.6861 68.1825 31.6861 72.0934C31.6861 72.4068 31.5617 72.7075 31.3402 72.9291C31.1187 73.1508 30.8183 73.2753 30.505 73.2753Z" fill="#D8AB7A"/>
<path d="M24.5997 67.3654H21.0565C20.7433 67.3654 20.4429 67.2409 20.2214 67.0192C19.9999 66.7976 19.8755 66.4969 19.8755 66.1835C19.8755 65.87 19.9999 65.5694 20.2214 65.3478C20.4429 65.1261 20.7433 65.0016 21.0565 65.0016H24.5997C24.913 65.0016 25.2134 65.1261 25.4349 65.3478C25.6564 65.5694 25.7808 65.87 25.7808 66.1835C25.7808 66.4969 25.6564 66.7976 25.4349 67.0192C25.2134 67.2409 24.913 67.3654 24.5997 67.3654ZM30.505 75.6364C30.1918 75.6364 29.8914 75.5118 29.6699 75.2902C29.4484 75.0685 29.324 74.7679 29.324 74.4545V72.093C29.324 71.7795 29.4484 71.4789 29.6699 71.2573C29.8914 71.0356 30.1918 70.9111 30.505 70.9111C30.8183 70.9111 31.1187 71.0356 31.3402 71.2573C31.5617 71.4789 31.6861 71.7795 31.6861 72.093V74.4545C31.6861 74.7679 31.5617 75.0685 31.3402 75.2902C31.1187 75.5118 30.8183 75.6364 30.505 75.6364ZM11.6081 67.3654C11.2948 67.3654 10.9944 67.2409 10.7729 67.0192C10.5514 66.7976 10.427 66.4969 10.427 66.1835V61.5315C10.427 61.2181 10.5514 60.9174 10.7729 60.6958C10.9944 60.4741 11.2948 60.3496 11.6081 60.3496C11.9213 60.3496 12.2217 60.4741 12.4432 60.6958C12.6647 60.9174 12.7891 61.2181 12.7891 61.5315V66.1835C12.7891 66.4969 12.6647 66.7976 12.4432 67.0192C12.2217 67.2409 11.9213 67.3654 11.6081 67.3654Z" fill="#D8AB7A"/>
<path d="M21.0565 67.3654C20.7433 67.3654 20.4429 67.2409 20.2214 67.0192C19.9999 66.7976 19.8755 66.4969 19.8755 66.1835V61.5315C19.8755 61.2181 19.9999 60.9174 20.2214 60.6958C20.4429 60.4741 20.7433 60.3496 21.0565 60.3496C21.3698 60.3496 21.6702 60.4741 21.8917 60.6958C22.1132 60.9174 22.2376 61.2181 22.2376 61.5315V66.1835C22.2376 66.4969 22.1132 66.7976 21.8917 67.0192C21.6702 67.2409 21.3698 67.3654 21.0565 67.3654Z" fill="#D8AB7A"/>
<path d="M16.3321 63.8208C9.81972 63.8208 4.52148 58.52 4.52148 52.0042C4.52148 51.6907 4.64592 51.3901 4.86741 51.1684C5.0889 50.9468 5.38931 50.8223 5.70254 50.8223C6.01578 50.8223 6.31619 50.9468 6.53768 51.1684C6.75917 51.3901 6.88361 51.6907 6.88361 52.0042C6.88361 57.2164 11.1224 61.457 16.3321 61.457C21.5417 61.457 25.7806 57.2164 25.7806 52.0042C25.7806 51.6907 25.905 51.3901 26.1265 51.1684C26.348 50.9468 26.6484 50.8223 26.9616 50.8223C27.2749 50.8223 27.5753 50.9468 27.7968 51.1684C28.0183 51.3901 28.1427 51.6907 28.1427 52.0042C28.1427 58.52 22.8445 63.8208 16.3321 63.8208ZM13.9688 68.5485C13.7916 68.5485 13.6109 68.5083 13.442 68.4244L11.0799 67.2425C10.7997 67.1022 10.5867 66.8563 10.4877 66.5588C10.3887 66.2614 10.4118 65.9367 10.552 65.6563C10.6922 65.376 10.9379 65.1628 11.2351 65.0637C11.5324 64.9646 11.8568 64.9878 12.137 65.128L14.4991 66.3099C14.7369 66.4292 14.9276 66.6254 15.0401 66.8667C15.1526 67.1079 15.1805 67.3801 15.1191 67.6392C15.0577 67.8983 14.9107 68.129 14.702 68.294C14.4932 68.4591 14.2348 68.5487 13.9688 68.5485Z" fill="#D8AB7A"/>
<path d="M13.9712 68.5475C13.7047 68.5483 13.4458 68.4589 13.2365 68.2938C13.0272 68.1287 12.8799 67.8976 12.8184 67.6381C12.757 67.3786 12.7851 67.106 12.8981 66.8644C13.0111 66.6229 13.2024 66.4268 13.4409 66.3078L15.803 65.1259C16.0832 64.9856 16.4076 64.9625 16.7048 65.0616C17.0021 65.1606 17.2478 65.3738 17.388 65.6542C17.5281 65.9346 17.5513 66.2592 17.4523 66.5567C17.3533 66.8541 17.1402 67.1001 16.86 67.2403L14.4979 68.4222C14.3345 68.5047 14.1541 68.5476 13.9712 68.5475ZM18.6954 68.5475C18.4289 68.5483 18.17 68.4589 17.9607 68.2938C17.7515 68.1287 17.6041 67.8976 17.5427 67.6381C17.4812 67.3786 17.5093 67.106 17.6223 66.8644C17.7353 66.6229 17.9266 66.4268 18.1651 66.3078L20.5272 65.1259C20.8074 64.9856 21.1318 64.9625 21.4291 65.0616C21.7263 65.1606 21.972 65.3738 22.1122 65.6542C22.2524 65.9346 22.2755 66.2592 22.1765 66.5567C22.0775 66.8541 21.8645 67.1001 21.5843 67.2403L19.2222 68.4222C19.0588 68.5047 18.8784 68.5476 18.6954 68.5475Z" fill="#D8AB7A"/>
<path d="M18.693 68.5482C18.5158 68.5482 18.3351 68.508 18.1663 68.4241L15.8041 67.2422C15.5239 67.102 15.3109 66.856 15.2119 66.5586C15.1129 66.2611 15.136 65.9365 15.2762 65.6561C15.4164 65.3757 15.6621 65.1625 15.9594 65.0635C16.2566 64.9644 16.581 64.9875 16.8612 65.1278L19.2233 66.3097C19.4612 66.429 19.6518 66.6252 19.7643 66.8664C19.8769 67.1077 19.9047 67.3799 19.8433 67.639C19.7819 67.898 19.635 68.1288 19.4262 68.2938C19.2174 68.4588 18.9591 68.5485 18.693 68.5482ZM48.2136 60.2808C47.9789 60.2808 47.7495 60.2108 47.5548 60.0797C47.36 59.9487 47.2086 59.7625 47.1201 59.545C47.0315 59.3275 47.0096 59.0885 47.0574 58.8585C47.1051 58.6286 47.2202 58.4181 47.3881 58.2538L48.5927 57.0743C48.7031 56.9634 48.8344 56.8756 48.979 56.8159C49.1236 56.7562 49.2786 56.7258 49.435 56.7266C49.5914 56.7273 49.7461 56.7591 49.8901 56.8202C50.0342 56.8812 50.1646 56.9703 50.274 57.0822C50.3833 57.1942 50.4693 57.3267 50.5271 57.4722C50.5848 57.6176 50.6131 57.7731 50.6103 57.9296C50.6075 58.0861 50.5737 58.2405 50.5108 58.3838C50.4479 58.5271 50.3571 58.6565 50.2439 58.7644L49.0392 59.944C48.8187 60.1602 48.5223 60.2812 48.2136 60.2808Z" fill="#D8AB7A"/>
<path d="M51.7781 59.1011H49.4184C49.1051 59.1011 48.8047 58.9766 48.5832 58.7549C48.3617 58.5333 48.2373 58.2327 48.2373 57.9192C48.2373 57.6057 48.3617 57.3051 48.5832 57.0835C48.8047 56.8618 49.1051 56.7373 49.4184 56.7373H51.7781C52.0914 56.7373 52.3918 56.8618 52.6133 57.0835C52.8348 57.3051 52.9592 57.6057 52.9592 57.9192C52.9592 58.2327 52.8348 58.5333 52.6133 58.7549C52.3918 58.9766 52.0914 59.1011 51.7781 59.1011Z" fill="#D8AB7A"/>
<path d="M52.9403 60.2802C52.7838 60.2803 52.6288 60.2492 52.4845 60.1887C52.3401 60.1282 52.2092 60.0396 52.0994 59.928L50.9372 58.7484C50.8284 58.6379 50.7423 58.507 50.684 58.3632C50.6256 58.2194 50.5962 58.0655 50.5973 57.9104C50.5984 57.7552 50.63 57.6017 50.6904 57.4588C50.7507 57.3158 50.8386 57.1862 50.9491 57.0772C51.0595 56.9682 51.1903 56.8821 51.334 56.8237C51.4777 56.7654 51.6314 56.7359 51.7865 56.737C51.9416 56.7381 52.0949 56.7697 52.2378 56.8301C52.3806 56.8905 52.5102 56.9785 52.6191 57.089L53.7812 58.2686C53.9453 58.4343 54.0566 58.6449 54.1011 58.8739C54.1456 59.1029 54.1214 59.3399 54.0314 59.5551C53.9415 59.7703 53.7898 59.954 53.5956 60.0831C53.4015 60.2121 53.1734 60.2807 52.9403 60.2802ZM48.2137 60.2802C46.3346 60.2786 44.5328 59.531 43.2038 58.2015C41.8748 56.8721 41.1272 55.0692 41.125 53.1887C41.125 52.8753 41.2494 52.5747 41.4709 52.353C41.6924 52.1314 41.9928 52.0068 42.3061 52.0068C42.6193 52.0068 42.9197 52.1314 43.1412 52.353C43.3627 52.5747 43.4871 52.8753 43.4871 53.1887C43.4871 55.796 45.6071 57.9164 48.2137 57.9164C48.527 57.9164 48.8274 58.0409 49.0489 58.2625C49.2704 58.4842 49.3948 58.7848 49.3948 59.0983C49.3948 59.4117 49.2704 59.7123 49.0489 59.934C48.8274 60.1556 48.527 60.2802 48.2137 60.2802Z" fill="#D8AB7A"/>
<path d="M42.3049 54.3706C42.1218 54.3704 41.9411 54.3279 41.777 54.2465L39.4172 53.0635C39.1537 52.9135 38.9576 52.6681 38.8696 52.3777C38.7816 52.0874 38.8082 51.7743 38.9441 51.5031C39.08 51.2318 39.3148 51.0232 39.5999 50.9201C39.8851 50.817 40.1989 50.8273 40.4767 50.949L42.8364 52.1321C43.4187 52.4252 43.6549 53.1355 43.3632 53.7194C43.2643 53.9154 43.113 54.08 42.9262 54.195C42.7394 54.31 42.5243 54.3708 42.3049 54.3706ZM52.9404 60.2802C52.6272 60.2802 52.3267 60.1556 52.1053 59.934C51.8838 59.7123 51.7593 59.4117 51.7593 59.0983C51.7593 58.7848 51.8838 58.4842 52.1053 58.2625C52.3267 58.0409 52.6272 57.9164 52.9404 57.9164C55.5458 57.9164 57.6646 55.796 57.6646 53.1887C57.6646 52.8753 57.7891 52.5747 58.0106 52.353C58.232 52.1314 58.5325 52.0068 58.8457 52.0068C59.1589 52.0068 59.4593 52.1314 59.6808 52.353C59.9023 52.5747 60.0268 52.8753 60.0268 53.1887C60.0268 57.0985 56.8485 60.2802 52.9404 60.2802Z" fill="#D8AB7A"/>
<path d="M58.8468 54.371C58.5813 54.3698 58.324 54.2794 58.1162 54.1142C57.9083 53.9491 57.762 53.7188 57.7006 53.4604C57.6393 53.2019 57.6666 52.9304 57.778 52.6893C57.8895 52.4483 58.0787 52.2518 58.3153 52.1313L60.675 50.9482C60.9553 50.808 61.2797 50.7848 61.577 50.8837C61.8743 50.9825 62.1204 51.1952 62.2612 51.4753C62.4013 51.7558 62.4245 52.0804 62.3257 52.3779C62.227 52.6755 62.0143 52.9217 61.7345 53.0626L59.3747 54.2457C59.2108 54.328 59.0301 54.3709 58.8468 54.371ZM41.1462 14.1744C39.1927 14.1744 37.603 12.5836 37.603 10.6287C37.603 8.67385 39.1927 7.08301 41.1462 7.08301C43.0997 7.08301 44.6894 8.67385 44.6894 10.6287C44.6894 12.5836 43.0997 14.1744 41.1462 14.1744ZM41.1462 9.44682C40.833 9.44682 40.5326 9.57134 40.3111 9.79299C40.0896 10.0146 39.9651 10.3153 39.9651 10.6287C39.9651 10.9422 40.0896 11.2428 40.3111 11.4645C40.5326 11.6861 40.833 11.8106 41.1462 11.8106C41.4594 11.8106 41.7599 11.6861 41.9813 11.4645C42.2028 11.2428 42.3273 10.9422 42.3273 10.6287C42.3273 10.3153 42.2028 10.0146 41.9813 9.79299C41.7599 9.57134 41.4594 9.44682 41.1462 9.44682Z" fill="#D8AB7A"/>
<path d="M41.1464 9.44811C40.8331 9.44811 40.5327 9.32359 40.3112 9.10194C40.0897 8.88029 39.9653 8.57967 39.9653 8.26621V5.90358C39.9653 5.59012 40.0897 5.2895 40.3112 5.06785C40.5327 4.8462 40.8331 4.72168 41.1464 4.72168C41.4596 4.72168 41.76 4.8462 41.9815 5.06785C42.203 5.2895 42.3274 5.59012 42.3274 5.90358V8.26621C42.3274 8.57967 42.203 8.88029 41.9815 9.10194C41.76 9.32359 41.4596 9.44811 41.1464 9.44811ZM36.4245 25.996C36.2411 25.996 36.0603 25.9532 35.8963 25.8712C35.7323 25.7891 35.5896 25.67 35.4796 25.5232C35.3696 25.3764 35.2953 25.206 35.2625 25.0255C35.2297 24.845 35.2393 24.6593 35.2907 24.4831L38.8315 12.3438C38.9192 12.0429 39.1227 11.7891 39.3974 11.6384C39.5334 11.5638 39.6827 11.5167 39.8369 11.4998C39.9911 11.4829 40.1471 11.4966 40.296 11.5401C40.4449 11.5835 40.5838 11.6559 40.7047 11.7531C40.8256 11.8503 40.9263 11.9703 41.0009 12.1064C41.0754 12.2425 41.1225 12.392 41.1394 12.5463C41.1562 12.7005 41.1425 12.8566 41.0991 13.0056L37.5583 25.145C37.4071 25.6615 36.9359 25.996 36.4245 25.996Z" fill="#D8AB7A"/>
<path d="M45.8728 25.9963C45.6173 25.9963 45.3687 25.9134 45.1642 25.7599C44.9598 25.6065 44.8106 25.3908 44.739 25.1453L41.1935 13.006C41.1058 12.7051 41.1411 12.3816 41.2917 12.1068C41.4424 11.8319 41.6959 11.6282 41.9966 11.5404C42.2973 11.4527 42.6205 11.488 42.8952 11.6388C43.1698 11.7895 43.3734 12.0432 43.4611 12.3441L47.0067 24.4835C47.058 24.6596 47.0677 24.8453 47.0349 25.0258C47.0021 25.2064 46.9277 25.3768 46.8177 25.5236C46.7077 25.6703 46.565 25.7895 46.401 25.8715C46.237 25.9536 46.0562 25.9963 45.8728 25.9963Z" fill="#D8AB7A"/>
<path d="M45.8705 20.0855H36.422C36.1088 20.0855 35.8084 19.961 35.5869 19.7393C35.3654 19.5177 35.241 19.217 35.241 18.9036C35.241 18.5901 35.3654 18.2895 35.5869 18.0679C35.8084 17.8462 36.1088 17.7217 36.422 17.7217H45.8705C46.1837 17.7217 46.4842 17.8462 46.7056 18.0679C46.9271 18.2895 47.0516 18.5901 47.0516 18.9036C47.0516 19.217 46.9271 19.5177 46.7056 19.7393C46.4842 19.961 46.1837 20.0855 45.8705 20.0855Z" fill="#D8AB7A"/>
</svg>
