<svg width="68" height="67" viewBox="0 0 68 67" fill="none" xmlns="http://www.w3.org/2000/svg">
<path d="M59.2258 48.0351L59.2256 48.035C59.1 47.983 58.9554 48.0116 58.8589 48.1079L59.2258 48.0351ZM59.2258 48.0351C59.3515 48.0872 59.4335 48.2098 59.4336 48.3459L59.2258 48.0351ZM48.0775 58.8893L58.8588 48.108L59.4336 48.3461V59.1275C59.4336 59.3134 59.283 59.464 59.0971 59.464H48.3155C48.1792 59.464 48.0566 59.3819 48.0047 59.2566L48.0045 59.2561C47.9525 59.1306 47.9811 58.9859 48.0774 58.8895C48.0774 58.8894 48.0775 58.8894 48.0775 58.8893ZM50.2373 57.6814L49.1277 58.791H50.697H58.1102H58.7602V58.141V50.7277V49.1585L57.6506 50.2681L50.2373 57.6814Z" fill="#D8AB7A" stroke="#D8AB7A" stroke-width="1.3"/>
<mask id="path-2-inside-1_193_10383" fill="white">
<path d="M66.6065 31.5135C66.2379 31.3607 65.8136 31.4451 65.5314 31.7272L62.5766 34.6819V14.5919C62.5766 14.047 62.1349 13.6054 61.5901 13.6054H54.0098L56.7614 10.8537C56.7618 10.8533 56.7622 10.8528 56.7626 10.8524L59.414 8.20109C59.982 7.63304 60.2948 6.87739 60.2948 6.07395C60.2948 5.27051 59.982 4.51513 59.414 3.94681L56.348 0.880891C55.78 0.312841 55.0243 0 54.2209 0C53.4175 0 52.6619 0.312841 52.0938 0.880891L49.4411 3.53354L46.2358 6.73889L39.3694 13.6052H8.7459V3.8452C8.7459 3.30026 8.30414 2.85863 7.75933 2.85863C3.4809 2.85889 0 6.33953 0 10.6182V52.5211C0 52.5939 0.00840194 52.6648 0.0233679 52.7331C0.159637 54.5486 0.945087 56.2354 2.25776 57.5159C3.66088 58.8844 5.51312 59.6381 7.4734 59.6381H37.6204L31.9426 65.3158C31.6605 65.5981 31.5761 66.0222 31.7288 66.391C31.8814 66.7596 32.2413 67 32.6402 67H66.229C66.7738 67 67.2156 66.5584 67.2156 66.0134V32.4249C67.2156 32.026 66.975 31.6661 66.6065 31.5135ZM53.4893 2.27627C53.8926 1.87271 54.5496 1.87271 54.9529 2.27627L58.019 5.34232C58.4225 5.74575 58.4225 6.40254 58.019 6.8061L56.0641 8.76113L51.5341 4.2313L53.4893 2.27627ZM50.1389 5.62655L54.6687 10.1562L52.8585 11.9665L48.3289 7.43677L50.1389 5.62655ZM65.2427 43.5105H63.4225C62.8775 43.5105 62.4359 43.9521 62.4359 44.4971C62.4359 45.042 62.8775 45.4837 63.4225 45.4837H65.2427V48.4566H63.4225C62.8775 48.4566 62.4359 48.8983 62.4359 49.4432C62.4359 49.9882 62.8775 50.4298 63.4225 50.4298H65.2427V53.4026H63.4225C62.8775 53.4026 62.4359 53.8443 62.4359 54.3892C62.4359 54.9342 62.8775 55.3758 63.4225 55.3758H65.2427V58.3488H63.4225C62.8775 58.3488 62.4359 58.7905 62.4359 59.3353C62.4359 59.8803 62.8775 60.3219 63.4225 60.3219H65.2427V65.0272H35.0219L44.9872 55.0621C45.3725 54.6767 45.3725 54.0522 44.9872 53.6669C44.9429 53.6227 44.8954 53.5843 44.8456 53.5502C44.4615 53.2871 43.933 53.3258 43.5918 53.6669L39.5935 57.6652H7.47353C4.48139 57.6652 2.07265 55.3292 1.97787 52.3424C1.98352 52.1549 1.99809 51.969 2.02146 51.7853C2.02159 51.7842 2.02172 51.7832 2.02185 51.7821C2.03288 51.6948 2.04614 51.6079 2.06123 51.5215C2.06294 51.5117 2.06478 51.5018 2.06648 51.492C2.08027 51.4149 2.09576 51.3382 2.1127 51.2618C2.11742 51.2406 2.12241 51.2193 2.1274 51.1982C2.14236 51.1336 2.15851 51.0694 2.17584 51.0054C2.18529 50.9708 2.19514 50.9365 2.20525 50.902C2.21969 50.8519 2.23465 50.8018 2.25054 50.7523C2.26642 50.7029 2.28336 50.6539 2.30056 50.6049C2.3125 50.5706 2.32432 50.5364 2.33718 50.5024C2.36121 50.4378 2.38668 50.3739 2.41293 50.3105C2.42042 50.2922 2.42777 50.2737 2.43551 50.2554C2.46925 50.1767 2.5043 50.0988 2.54133 50.0219C2.5429 50.0186 2.54434 50.0153 2.54592 50.0121C3.31759 48.4152 4.80171 47.2246 6.58279 46.8552C6.58778 46.8541 6.59277 46.8529 6.59776 46.8519C6.67941 46.8352 6.76186 46.8209 6.84483 46.8076C6.85861 46.8054 6.8724 46.8026 6.88644 46.8005C6.9614 46.7891 7.03715 46.7802 7.1129 46.7717C7.13417 46.7693 7.15531 46.766 7.1767 46.7639C7.24983 46.7566 7.32361 46.7517 7.39739 46.7471C7.42075 46.7457 7.44412 46.7432 7.46749 46.742C7.56411 46.7371 7.66152 46.7346 7.75933 46.7346C8.30414 46.7346 8.7459 46.293 8.7459 45.7481V38.5947C8.7459 38.0498 8.30414 37.6082 7.75933 37.6082C7.21451 37.6082 6.77275 38.0498 6.77275 38.5947V44.8236C5.10681 45.0343 3.56046 45.7773 2.34112 46.9681C2.21286 47.0933 2.0913 47.2235 1.97288 47.3559V10.6182C1.97288 7.76405 4.05052 5.38565 6.77262 4.91593V14.5919V34.6486V34.6487C6.77262 35.1935 7.21438 35.6353 7.7592 35.6353C8.30401 35.6353 8.74577 35.1935 8.74577 34.6487V34.6486V15.5785H37.3964L31.9425 21.0324C31.5572 21.4179 31.5572 22.0424 31.9425 22.4277C32.3278 22.8129 32.9524 22.8129 33.3376 22.4277L40.4757 15.2896C40.476 15.2893 40.4761 15.289 40.4764 15.2889L46.9334 8.83189L51.463 13.3617L50.9315 13.8931C50.9311 13.8935 50.9306 13.8939 50.9302 13.8943L31.0376 33.7872L26.5079 29.2575L30.429 25.3365C30.8143 24.951 30.8143 24.3265 30.429 23.9412C30.0436 23.556 29.419 23.556 29.0338 23.9412L24.415 28.5599C24.3903 28.5846 24.3672 28.6107 24.3456 28.6375C24.3383 28.6464 24.3319 28.656 24.3251 28.6653C24.3112 28.6838 24.2975 28.7025 24.2848 28.7219C24.2775 28.7332 24.271 28.7448 24.2642 28.7564C24.2533 28.7748 24.2428 28.7935 24.2332 28.8125C24.2269 28.8248 24.2212 28.8373 24.2155 28.8502C24.2067 28.8695 24.1985 28.8892 24.191 28.9089C24.1884 28.9158 24.185 28.9224 24.1825 28.9293L22.2604 34.3742L20.95 38.0867C20.9327 38.136 20.9202 38.1862 20.9109 38.2367H17.6299C17.0851 38.2367 16.6433 38.6784 16.6433 39.2233C16.6433 39.7682 17.0851 40.2099 17.6299 40.2099H44.9512C45.4961 40.2099 45.9378 39.7682 45.9378 39.2233C45.9378 38.6784 45.4961 38.2367 44.9512 38.2367H25.3493L31.3659 36.1129C31.3709 36.111 31.3756 36.1085 31.3806 36.1067C31.404 36.098 31.4269 36.0883 31.4497 36.0779C31.4587 36.0737 31.4678 36.0698 31.4766 36.0655C31.5002 36.0537 31.5234 36.0407 31.5463 36.0268C31.5536 36.0223 31.5612 36.0182 31.5685 36.0136C31.5922 35.9984 31.6153 35.9817 31.638 35.9641C31.6437 35.9598 31.6496 35.956 31.6551 35.9515C31.6826 35.9295 31.7095 35.9057 31.7349 35.8802L52.0367 15.5787H60.6034V36.6552L46.4912 50.7674C46.1059 51.1529 46.1059 51.7774 46.4912 52.1627C46.5153 52.1867 46.5403 52.2093 46.5662 52.2304C46.7471 52.3779 46.968 52.4516 47.1889 52.4516C47.4097 52.4516 47.6308 52.3779 47.8115 52.2304C47.8374 52.2094 47.8625 52.1867 47.8865 52.1627C47.8869 52.1623 47.8865 52.1627 47.8869 52.1623L65.2427 34.8064V43.5105ZM29.2331 34.773L26.4072 35.7706L24.5244 33.8878L25.522 31.0619L29.2331 34.773Z"/>
</mask>
<path d="M66.6065 31.5135C66.2379 31.3607 65.8136 31.4451 65.5314 31.7272L62.5766 34.6819V14.5919C62.5766 14.047 62.1349 13.6054 61.5901 13.6054H54.0098L56.7614 10.8537C56.7618 10.8533 56.7622 10.8528 56.7626 10.8524L59.414 8.20109C59.982 7.63304 60.2948 6.87739 60.2948 6.07395C60.2948 5.27051 59.982 4.51513 59.414 3.94681L56.348 0.880891C55.78 0.312841 55.0243 0 54.2209 0C53.4175 0 52.6619 0.312841 52.0938 0.880891L49.4411 3.53354L46.2358 6.73889L39.3694 13.6052H8.7459V3.8452C8.7459 3.30026 8.30414 2.85863 7.75933 2.85863C3.4809 2.85889 0 6.33953 0 10.6182V52.5211C0 52.5939 0.00840194 52.6648 0.0233679 52.7331C0.159637 54.5486 0.945087 56.2354 2.25776 57.5159C3.66088 58.8844 5.51312 59.6381 7.4734 59.6381H37.6204L31.9426 65.3158C31.6605 65.5981 31.5761 66.0222 31.7288 66.391C31.8814 66.7596 32.2413 67 32.6402 67H66.229C66.7738 67 67.2156 66.5584 67.2156 66.0134V32.4249C67.2156 32.026 66.975 31.6661 66.6065 31.5135ZM53.4893 2.27627C53.8926 1.87271 54.5496 1.87271 54.9529 2.27627L58.019 5.34232C58.4225 5.74575 58.4225 6.40254 58.019 6.8061L56.0641 8.76113L51.5341 4.2313L53.4893 2.27627ZM50.1389 5.62655L54.6687 10.1562L52.8585 11.9665L48.3289 7.43677L50.1389 5.62655ZM65.2427 43.5105H63.4225C62.8775 43.5105 62.4359 43.9521 62.4359 44.4971C62.4359 45.042 62.8775 45.4837 63.4225 45.4837H65.2427V48.4566H63.4225C62.8775 48.4566 62.4359 48.8983 62.4359 49.4432C62.4359 49.9882 62.8775 50.4298 63.4225 50.4298H65.2427V53.4026H63.4225C62.8775 53.4026 62.4359 53.8443 62.4359 54.3892C62.4359 54.9342 62.8775 55.3758 63.4225 55.3758H65.2427V58.3488H63.4225C62.8775 58.3488 62.4359 58.7905 62.4359 59.3353C62.4359 59.8803 62.8775 60.3219 63.4225 60.3219H65.2427V65.0272H35.0219L44.9872 55.0621C45.3725 54.6767 45.3725 54.0522 44.9872 53.6669C44.9429 53.6227 44.8954 53.5843 44.8456 53.5502C44.4615 53.2871 43.933 53.3258 43.5918 53.6669L39.5935 57.6652H7.47353C4.48139 57.6652 2.07265 55.3292 1.97787 52.3424C1.98352 52.1549 1.99809 51.969 2.02146 51.7853C2.02159 51.7842 2.02172 51.7832 2.02185 51.7821C2.03288 51.6948 2.04614 51.6079 2.06123 51.5215C2.06294 51.5117 2.06478 51.5018 2.06648 51.492C2.08027 51.4149 2.09576 51.3382 2.1127 51.2618C2.11742 51.2406 2.12241 51.2193 2.1274 51.1982C2.14236 51.1336 2.15851 51.0694 2.17584 51.0054C2.18529 50.9708 2.19514 50.9365 2.20525 50.902C2.21969 50.8519 2.23465 50.8018 2.25054 50.7523C2.26642 50.7029 2.28336 50.6539 2.30056 50.6049C2.3125 50.5706 2.32432 50.5364 2.33718 50.5024C2.36121 50.4378 2.38668 50.3739 2.41293 50.3105C2.42042 50.2922 2.42777 50.2737 2.43551 50.2554C2.46925 50.1767 2.5043 50.0988 2.54133 50.0219C2.5429 50.0186 2.54434 50.0153 2.54592 50.0121C3.31759 48.4152 4.80171 47.2246 6.58279 46.8552C6.58778 46.8541 6.59277 46.8529 6.59776 46.8519C6.67941 46.8352 6.76186 46.8209 6.84483 46.8076C6.85861 46.8054 6.8724 46.8026 6.88644 46.8005C6.9614 46.7891 7.03715 46.7802 7.1129 46.7717C7.13417 46.7693 7.15531 46.766 7.1767 46.7639C7.24983 46.7566 7.32361 46.7517 7.39739 46.7471C7.42075 46.7457 7.44412 46.7432 7.46749 46.742C7.56411 46.7371 7.66152 46.7346 7.75933 46.7346C8.30414 46.7346 8.7459 46.293 8.7459 45.7481V38.5947C8.7459 38.0498 8.30414 37.6082 7.75933 37.6082C7.21451 37.6082 6.77275 38.0498 6.77275 38.5947V44.8236C5.10681 45.0343 3.56046 45.7773 2.34112 46.9681C2.21286 47.0933 2.0913 47.2235 1.97288 47.3559V10.6182C1.97288 7.76405 4.05052 5.38565 6.77262 4.91593V14.5919V34.6486V34.6487C6.77262 35.1935 7.21438 35.6353 7.7592 35.6353C8.30401 35.6353 8.74577 35.1935 8.74577 34.6487V34.6486V15.5785H37.3964L31.9425 21.0324C31.5572 21.4179 31.5572 22.0424 31.9425 22.4277C32.3278 22.8129 32.9524 22.8129 33.3376 22.4277L40.4757 15.2896C40.476 15.2893 40.4761 15.289 40.4764 15.2889L46.9334 8.83189L51.463 13.3617L50.9315 13.8931C50.9311 13.8935 50.9306 13.8939 50.9302 13.8943L31.0376 33.7872L26.5079 29.2575L30.429 25.3365C30.8143 24.951 30.8143 24.3265 30.429 23.9412C30.0436 23.556 29.419 23.556 29.0338 23.9412L24.415 28.5599C24.3903 28.5846 24.3672 28.6107 24.3456 28.6375C24.3383 28.6464 24.3319 28.656 24.3251 28.6653C24.3112 28.6838 24.2975 28.7025 24.2848 28.7219C24.2775 28.7332 24.271 28.7448 24.2642 28.7564C24.2533 28.7748 24.2428 28.7935 24.2332 28.8125C24.2269 28.8248 24.2212 28.8373 24.2155 28.8502C24.2067 28.8695 24.1985 28.8892 24.191 28.9089C24.1884 28.9158 24.185 28.9224 24.1825 28.9293L22.2604 34.3742L20.95 38.0867C20.9327 38.136 20.9202 38.1862 20.9109 38.2367H17.6299C17.0851 38.2367 16.6433 38.6784 16.6433 39.2233C16.6433 39.7682 17.0851 40.2099 17.6299 40.2099H44.9512C45.4961 40.2099 45.9378 39.7682 45.9378 39.2233C45.9378 38.6784 45.4961 38.2367 44.9512 38.2367H25.3493L31.3659 36.1129C31.3709 36.111 31.3756 36.1085 31.3806 36.1067C31.404 36.098 31.4269 36.0883 31.4497 36.0779C31.4587 36.0737 31.4678 36.0698 31.4766 36.0655C31.5002 36.0537 31.5234 36.0407 31.5463 36.0268C31.5536 36.0223 31.5612 36.0182 31.5685 36.0136C31.5922 35.9984 31.6153 35.9817 31.638 35.9641C31.6437 35.9598 31.6496 35.956 31.6551 35.9515C31.6826 35.9295 31.7095 35.9057 31.7349 35.8802L52.0367 15.5787H60.6034V36.6552L46.4912 50.7674C46.1059 51.1529 46.1059 51.7774 46.4912 52.1627C46.5153 52.1867 46.5403 52.2093 46.5662 52.2304C46.7471 52.3779 46.968 52.4516 47.1889 52.4516C47.4097 52.4516 47.6308 52.3779 47.8115 52.2304C47.8374 52.2094 47.8625 52.1867 47.8865 52.1627C47.8869 52.1623 47.8865 52.1627 47.8869 52.1623L65.2427 34.8064V43.5105ZM29.2331 34.773L26.4072 35.7706L24.5244 33.8878L25.522 31.0619L29.2331 34.773Z" fill="#D8AB7A" stroke="#D8AB7A" stroke-width="2.6" mask="url(#path-2-inside-1_193_10383)"/>
</svg>
