<svg width="21" height="21" viewBox="0 0 21 21" fill="none" xmlns="http://www.w3.org/2000/svg">
<path d="M10.5 20C15.7377 20 20 15.7377 20 10.5C20 5.26234 15.7377 1 10.5 1C5.26229 1 1 5.26234 1 10.5C1 15.7377 5.26234 20 10.5 20ZM10.5 2.26665C15.041 2.26665 18.7334 5.95897 18.7334 10.5C18.7334 15.041 15.041 18.7334 10.5 18.7334C5.95897 18.7334 2.26665 15.041 2.26665 10.5C2.26665 5.95897 5.95902 2.26665 10.5 2.26665Z" fill="#D8AB7A" stroke="#D8AB7A"/>
<path d="M13.2704 13.5271C13.3876 13.6221 13.5269 13.6665 13.6662 13.6665C13.7611 13.6667 13.8548 13.6454 13.9404 13.6043C14.0259 13.5632 14.1011 13.5032 14.1602 13.429C14.3787 13.1566 14.3343 12.7576 14.062 12.5391L11.1329 10.1958V5.43313C11.1329 5.08479 10.8479 4.7998 10.4995 4.7998C10.1512 4.7998 9.86621 5.08479 9.86621 5.43313V10.4998C9.86621 10.693 9.9549 10.8735 10.1037 10.9938L13.2704 13.5271Z" fill="#D8AB7A" stroke="#D8AB7A"/>
</svg>
