<svg width="16" height="15" viewBox="0 0 16 15" fill="none" xmlns="http://www.w3.org/2000/svg">
<path fill-rule="evenodd" clip-rule="evenodd" d="M0.286759 0.286982C0.103414 0.470556 0.000430107 0.719398 0.000430107 0.97885C0.000430107 1.2383 0.103414 1.48714 0.286759 1.67072L6.12065 7.50591L0.285454 13.3411C0.107195 13.5258 0.00862598 13.7732 0.0109768 14.0299C0.0133276 14.2866 0.11641 14.5321 0.298022 14.7136C0.479634 14.895 0.725245 14.9979 0.981953 15C1.23866 15.0021 1.48593 14.9033 1.6705 14.7248L8.19756 8.19778C8.3809 8.0142 8.48389 7.76536 8.48389 7.50591C8.48389 7.24646 8.3809 6.99762 8.19756 6.81404L1.6705 0.286982C1.57957 0.196001 1.47162 0.123828 1.35279 0.0745864C1.23396 0.0253448 1.1066 0 0.977975 0C0.84935 0 0.721986 0.0253448 0.60316 0.0745864C0.484334 0.123828 0.376375 0.196001 0.285454 0.286982H0.286759Z" fill="#D8AB7A"/>
<path fill-rule="evenodd" clip-rule="evenodd" d="M6.81361 0.286982C6.63027 0.470556 6.52729 0.719398 6.52729 0.97885C6.52729 1.2383 6.63027 1.48714 6.81361 1.67072L12.6475 7.50591L6.81231 13.3411C6.63405 13.5258 6.53548 13.7732 6.53783 14.0299C6.54018 14.2866 6.64327 14.5321 6.82488 14.7136C7.00649 14.895 7.2521 14.9979 7.50881 15C7.76552 15.0021 8.01278 14.9033 8.19735 14.7248L14.7244 8.19778C14.9078 8.0142 15.0107 7.76536 15.0107 7.50591C15.0107 7.24646 14.9078 6.99762 14.7244 6.81404L8.19735 0.286982C8.10643 0.196001 7.99847 0.123828 7.87964 0.0745864C7.76082 0.0253448 7.63345 0 7.50483 0C7.37621 0 7.24884 0.0253448 7.13002 0.0745864C7.01119 0.123828 6.90323 0.196001 6.81231 0.286982H6.81361Z" fill="#D8AB7A"/>
</svg>
