<svg width="20" height="21" viewBox="0 0 20 21" fill="none" xmlns="http://www.w3.org/2000/svg">
<path d="M19 8.6H1M14 1V4.8M6 1V4.8M5.8 20H14.2C15.8802 20 16.7202 20 17.362 19.6894C17.9265 19.4161 18.3854 18.9802 18.673 18.4439C19 17.8342 19 17.0362 19 15.44V7.46C19 5.86385 19 5.06577 18.673 4.45613C18.3854 3.91986 17.9265 3.48387 17.362 3.21063C16.7202 2.9 15.8802 2.9 14.2 2.9H5.8C4.11984 2.9 3.27976 2.9 2.63803 3.21063C2.07354 3.48387 1.6146 3.91986 1.32698 4.45613C1 5.06577 1 5.86385 1 7.46V15.44C1 17.0362 1 17.8342 1.32698 18.4439C1.6146 18.9802 2.07354 19.4161 2.63803 19.6894C3.27976 20 4.11984 20 5.8 20Z" stroke="#D8AB7A" stroke-width="2" stroke-linecap="round" stroke-linejoin="round"/>
</svg>
