<svg width="24" height="26" viewBox="0 0 24 26" fill="none" xmlns="http://www.w3.org/2000/svg">
<path d="M7.875 0.695312V5.61719H5.90625V3.64844H0V21.3672H1.96875V22.3516C1.96875 23.1514 2.25586 23.8384 2.83008 24.4126C3.4248 25.0073 4.12207 25.3047 4.92188 25.3047C5.72168 25.3047 6.40869 25.0073 6.98291 24.4126C7.57764 23.8384 7.875 23.1514 7.875 22.3516V21.3672H23.625V5.61719H19.6875V0.695312H7.875ZM9.84375 2.66406H17.7188V7.58594H9.84375V2.66406ZM1.96875 5.61719H3.9375V19.3984H1.96875V5.61719ZM5.90625 7.58594H7.875V9.55469H19.6875V7.58594H21.6562V19.3984H5.90625V7.58594ZM8.85938 11.5234V13.4922H10.8281V11.5234H8.85938ZM12.7969 11.5234V13.4922H14.7656V11.5234H12.7969ZM16.7344 11.5234V13.4922H18.7031V11.5234H16.7344ZM8.85938 15.4609V17.4297H10.8281V15.4609H8.85938ZM12.7969 15.4609V17.4297H14.7656V15.4609H12.7969ZM16.7344 15.4609V17.4297H18.7031V15.4609H16.7344ZM3.9375 21.3672H5.90625V22.3516C5.90625 22.6182 5.80371 22.854 5.59863 23.0591C5.41406 23.2437 5.18848 23.3359 4.92188 23.3359C4.65527 23.3359 4.41943 23.2437 4.21436 23.0591C4.02979 22.854 3.9375 22.6182 3.9375 22.3516V21.3672Z" fill="white"/>
</svg>
