<svg width="82" height="76" viewBox="0 0 82 76" fill="none" xmlns="http://www.w3.org/2000/svg">
<path d="M12.2084 10.0001V7.0835H76.875C79.5674 7.0835 81.75 9.26613 81.75 11.9585V37.3335H78.8334V11.9585C78.8334 10.8769 77.9566 10.0001 76.875 10.0001H12.2084ZM3.16677 61.5003C3.16677 63.5253 4.80835 65.1669 6.83339 65.1669H44.1668V68.0835H6.83339C3.19753 68.0835 0.25 65.1361 0.25 61.5001C0.25 57.8643 3.19723 54.9167 6.83323 54.9167C10.3855 54.9167 13.2805 57.7301 13.412 61.2501H10.4916C10.3631 59.3417 8.77439 57.8335 6.83339 57.8337C4.80835 57.8337 3.16677 59.4752 3.16677 61.5003Z" fill="#D8AB7A" stroke="#101010" stroke-width="0.5"/>
<path d="M51.25 48.0834H51.5V47.8334V30.75V30.5H51.25H34.1666H33.9166V30.75V47.8334V48.0834H34.1666H51.25ZM0.25 6.83339C0.25 3.19754 3.19754 0.25 6.83339 0.25C10.4692 0.25 13.4166 3.19753 13.4166 6.83339V61.25H10.5V6.83339C10.5 4.80835 8.85841 3.16677 6.83323 3.16677C4.80819 3.16677 3.16661 4.80835 3.16661 6.83339V61.25H0.25V6.83339ZM32.4584 27.5834H52.9584C53.7638 27.5834 54.4166 28.2363 54.4168 29.0418V49.5418C54.4168 50.3472 53.7638 51.0002 52.9584 51.0002H32.4584C31.653 51.0002 31 50.3472 31 49.5418V29.0418C31 28.2364 31.653 27.5834 32.4584 27.5834Z" fill="#D8AB7A" stroke="#101010" stroke-width="0.5"/>
<path d="M81.3227 46.5974L76.4028 41.6775C76.4027 41.6774 76.4027 41.6774 76.4027 41.6774C75.8333 41.1082 74.9102 41.1082 74.3406 41.6774L74.3406 41.6775M81.3227 46.5974L74.1639 41.5007L74.3406 41.6775M81.3227 46.5974C81.892 47.1668 81.892 48.0899 81.3226 48.6595C81.3226 48.6595 81.3226 48.6595 81.3226 48.6595L55.4926 74.4895C55.2191 74.7629 54.8483 74.9166 54.4616 74.9168L81.3227 46.5974ZM74.3406 41.6775L48.5107 67.5074M74.3406 41.6775L48.5107 67.5074M48.5107 67.5074C48.5107 67.5074 48.5107 67.5074 48.5107 67.5074M48.5107 67.5074L48.5107 67.5074M48.5107 69.5695C48.5107 69.5695 48.5107 69.5695 48.5107 69.5696L53.4307 74.4895C53.7041 74.763 54.075 74.9168 54.4615 74.9168L48.5107 69.5695ZM48.5107 69.5695C47.9414 68.9999 47.9414 68.0768 48.5107 67.5074M48.5107 69.5695V67.5074M43.7394 16.0525L58.9377 31.2507L56.8757 33.3127L42.8852 19.3223L42.7084 19.1455L42.5316 19.3223L28.5411 33.3127L26.479 31.2507L41.6772 16.0525C41.6772 16.0525 41.6773 16.0524 41.6773 16.0524C42.2469 15.4831 43.17 15.4832 43.7394 16.0525ZM41 39.0418H40.75V39.2918V49.2918H37.8332V37.5834C37.8332 36.7853 38.4744 36.1368 39.2698 36.1252H39.2916H45.875V39.0418H41ZM54.2848 71.2195L54.4616 71.3963L54.6384 71.2195L78.0528 47.8052L78.2295 47.6284L78.0528 47.4516L75.5484 44.9473L75.3716 44.7705L75.1948 44.9473L51.7805 68.3616L51.6037 68.5384L51.7805 68.7152L54.2848 71.2195Z" fill="#D8AB7A" stroke="#101010" stroke-width="0.5"/>
<path d="M51 71.7501V72.0001H51.25H54.4168V74.9167H49.5418C48.7364 74.9167 48.0834 74.2638 48.0834 73.4584V68.5834H51V71.75V71.7501ZM78.8334 63.2084V54.9167H81.75V63.2084C81.75 65.9007 79.5674 68.0834 76.875 68.0834H66.875V65.1667H76.875C77.9566 65.1667 78.8334 64.2899 78.8334 63.2084ZM17.3334 56.625H30.5V59.5416H17.3334V56.625ZM34.4166 56.625H37.3332V59.5416H34.4166V56.625ZM66.875 16.8334V13.9167H70.0416C72.734 13.9167 74.9166 16.0994 74.9166 18.7917V21.9584H72V18.7917C72 17.7102 71.1232 16.8334 70.0416 16.8334H66.875Z" fill="#D8AB7A" stroke="#101010" stroke-width="0.5"/>
</svg>
