<svg width="70" height="70" viewBox="0 0 70 70" fill="none" xmlns="http://www.w3.org/2000/svg">
<path d="M60.6667 17.4999H63V33.8333H60.6667V17.4999ZM0.160125 57.1478C0.211896 57.3724 0.280292 57.5926 0.365167 57.8069C0.398708 57.8883 0.450625 57.9595 0.488833 58.0404C0.827471 58.7903 1.37512 59.4266 2.06617 59.8731C2.2365 59.9803 2.41346 60.0765 2.59598 60.1613C2.68538 60.2058 2.76748 60.2638 2.86081 60.3038C3.06877 60.384 3.28227 60.4496 3.5 60.4996C3.58152 60.5208 3.65604 60.5555 3.73917 60.5721C4.04443 60.6343 4.35513 60.6659 4.66667 60.6666H36.1667V58.3333H4.66667C4.51004 58.3333 4.35342 58.3172 4.2 58.2866C4.14371 58.2746 4.09135 58.2512 4.03667 58.2364C3.94446 58.2138 3.85368 58.1856 3.76483 58.1521C3.68493 58.1137 3.607 58.0713 3.53135 58.0251C3.47885 57.9949 3.42315 57.9716 3.37298 57.9385C3.12164 57.7669 2.90465 57.5497 2.73321 57.2983C2.68946 57.2315 2.65635 57.1568 2.61698 57.0857C2.57717 57.0145 2.54581 56.969 2.51898 56.9028C2.48026 56.8049 2.44905 56.7041 2.42565 56.6015C2.41252 56.5558 2.39254 56.5133 2.38335 56.4653C2.31442 56.1265 2.32159 55.7767 2.40437 55.4411C2.48714 55.1054 2.64344 54.7924 2.86198 54.5245C3.08035 54.2566 3.35557 54.0407 3.6677 53.8923C3.97983 53.7439 4.32106 53.6668 4.66667 53.6666H8.16667C8.47609 53.6666 8.77283 53.5437 8.99162 53.3249C9.21042 53.1061 9.33333 52.8093 9.33333 52.4999V11.6666H50.1667V9.33325H9.33333V3.49992C9.33333 2.85504 8.81096 2.33325 8.16667 2.33325H4.66667C2.0895 2.33325 0 4.42217 0 6.99992V55.9999C0 56.3132 0.0319375 56.626 0.0945 56.933C0.109958 57.0054 0.141167 57.0744 0.160125 57.1478ZM2.33333 6.99992C2.33333 5.71075 3.37808 4.66659 4.66667 4.66659H7V51.3333H4.66667C3.84718 51.3317 3.04198 51.5478 2.33333 51.9593V6.99992Z" fill="#D8AB7A"/>
<path d="M31.7494 26.4448L29.2613 23.3333H39.6666V21H26.8333C26.6626 21.0008 26.4942 21.0392 26.3399 21.1123C26.1857 21.1855 26.0494 21.2916 25.9407 21.4232C25.9407 21.4301 25.927 21.4312 25.9224 21.4375L16.5891 33.1042C16.528 33.183 16.477 33.2692 16.437 33.3605C16.437 33.3684 16.4278 33.3747 16.4245 33.3827C16.3736 33.5111 16.3458 33.6475 16.3424 33.7855C16.3424 33.8026 16.3333 33.8169 16.3333 33.8333V47.8333C16.3333 48.1428 16.4562 48.4395 16.675 48.6583C16.8938 48.8771 17.1906 49 17.5 49H47.8333V46.6667H37.3333V35H53.6666V42H56V33.8333C56 33.8169 55.9908 33.8027 55.9908 33.7855C55.9876 33.6478 55.9599 33.5118 55.9088 33.3839C55.9088 33.3737 55.8975 33.3662 55.894 33.357C55.8553 33.2669 55.805 33.1823 55.7442 33.1053L52.2442 28.7252L50.4224 30.1812L52.4055 32.6667H36.7278L31.7494 26.4448ZM26.8333 24.0328L31.4367 29.7882L33.7388 32.6667H19.9278L26.8333 24.0328ZM18.6666 35H35V46.6667H31.5V38.5C31.5 37.8551 30.9776 37.3333 30.3333 37.3333H23.3333C22.689 37.3333 22.1666 37.8551 22.1666 38.5V46.6667H18.6666V35ZM24.5 46.6667V39.6667H29.1666V46.6667H24.5Z" fill="#D8AB7A"/>
<path d="M43.1666 37.3333C42.5224 37.3333 42 37.8551 42 38.5V43.1666C42 43.476 42.1229 43.7728 42.3417 43.9916C42.5605 44.2104 42.8572 44.3333 43.1666 44.3333H47.8333C48.1427 44.3333 48.4395 44.2104 48.6583 43.9916C48.8771 43.7728 49 43.476 49 43.1666V38.5C49 37.8551 48.4776 37.3333 47.8333 37.3333H43.1666ZM46.6666 42H44.3333V39.6666H46.6666V42ZM69.28 31.5882C69.0667 31.4999 68.8321 31.4769 68.6057 31.522C68.3793 31.5672 68.1714 31.6785 68.0083 31.8418L31.8417 68.0085C31.6785 68.1716 31.5673 68.3795 31.5223 68.6058C31.4773 68.8321 31.5004 69.0667 31.5887 69.2799C31.677 69.4931 31.8266 69.6753 32.0184 69.8034C32.2103 69.9316 32.4359 70 32.6666 70H68.8333C69.1427 70 69.4395 69.877 69.6583 69.6583C69.8771 69.4395 70 69.1427 70 68.8333V32.6666C70 32.4358 69.9317 32.2101 69.8035 32.0182C69.6753 31.8262 69.4932 31.6766 69.28 31.5882ZM67.6666 67.6666H35.483L67.6666 35.4825V67.6666Z" fill="#D8AB7A"/>
<path d="M49.0889 62.28C49.1773 62.493 49.3268 62.6752 49.5186 62.8033C49.7104 62.9315 49.9359 62.9999 50.1666 62.9999H61.8333C62.1427 62.9999 62.4395 62.877 62.6583 62.6582C62.877 62.4394 63 62.1427 63 61.8333V50.1666C63.0001 49.9358 62.9317 49.7102 62.8035 49.5183C62.6753 49.3264 62.4931 49.1768 62.2799 49.0885C62.0667 49.0002 61.8321 48.9772 61.6058 49.0222C61.3794 49.0673 61.1716 49.1785 61.0085 49.3418L49.3418 61.0084C49.1785 61.1716 49.0674 61.3795 49.0223 61.6058C48.9773 61.8321 49.0005 62.0668 49.0889 62.28ZM60.6666 52.9824V60.6666H52.983L60.6666 52.9824ZM64.9915 0.341765C64.8832 0.233416 64.7546 0.147465 64.613 0.0888239C64.4715 0.0301827 64.3198 0 64.1666 0C64.0134 0 63.8617 0.0301827 63.7202 0.0888239C63.5787 0.147465 63.4501 0.233416 63.3418 0.341765L42.3418 21.3418C42.2142 21.47 42.1179 21.626 42.0603 21.7975L40.8937 25.2975C40.8252 25.5029 40.8153 25.7234 40.865 25.9341C40.9147 26.1449 41.0221 26.3377 41.1751 26.4908L41.517 26.8333L38.8418 29.5084L40.4915 31.1575L43.1666 28.4826L43.5085 28.8243C43.7272 29.0432 44.0239 29.1663 44.3333 29.1666C44.4587 29.166 44.5827 29.1462 44.7018 29.1068L48.2018 27.9401C48.3739 27.8828 48.5302 27.786 48.6583 27.6575L69.6583 6.65752C69.8768 6.43876 69.9996 6.14219 69.9996 5.83297C69.9996 5.52376 69.8768 5.22719 69.6583 5.00843L64.9915 0.341765ZM45.3996 21.5833L50.1666 16.8158L53.1836 19.8333L48.4166 24.6003L45.3996 21.5833ZM44.6495 26.6653L43.3358 25.3516L43.9681 23.4507L46.5498 26.0318L44.6495 26.6653ZM54.8333 18.1836L51.8163 15.1666L64.1666 2.81583L67.1836 5.83327L54.8333 18.1836ZM11.6666 48.9999V52.4999C11.6666 52.8094 11.7895 53.1061 12.0083 53.3249C12.2271 53.5437 12.5239 53.6666 12.8333 53.6666H16.3333V51.3333H14V48.9999H11.6666ZM16.3333 13.9999H12.8333C12.189 13.9999 11.6666 14.5217 11.6666 15.1666V18.6666H14V16.3333H16.3333V13.9999Z" fill="#D8AB7A"/>
</svg>
