<svg width="70" height="69" viewBox="0 0 70 69" fill="none" xmlns="http://www.w3.org/2000/svg">
<path d="M17.5007 27.9027V33.3227C17.5007 33.582 17.3978 33.8307 17.2145 34.014C17.0313 34.1974 16.7828 34.3004 16.5237 34.3004C16.2645 34.3004 16.016 34.1974 15.8328 34.014C15.6496 33.8307 15.5466 33.582 15.5466 33.3227V27.9027C15.5466 27.6434 15.6496 27.3947 15.8328 27.2113C16.016 27.028 16.2645 26.9249 16.5237 26.9249C16.7828 26.9249 17.0313 27.028 17.2145 27.2113C17.3978 27.3947 17.5007 27.6434 17.5007 27.9027ZM16.5237 18.1635C16.7828 18.1635 17.0313 18.0605 17.2145 17.8771C17.3978 17.6937 17.5007 17.4451 17.5007 17.1857V11.7658C17.5007 11.5064 17.3978 11.2578 17.2145 11.0744C17.0313 10.891 16.7828 10.788 16.5237 10.788C16.2645 10.788 16.016 10.891 15.8328 11.0744C15.6496 11.2578 15.5466 11.5064 15.5466 11.7658V17.1857C15.5466 17.4451 15.6496 17.6937 15.8328 17.8771C16.016 18.0605 16.2645 18.1635 16.5237 18.1635ZM53.7035 18.1635C53.9626 18.1635 54.2111 18.0605 54.3943 17.8771C54.5776 17.6937 54.6805 17.4451 54.6805 17.1857V11.7658C54.6805 11.5064 54.5776 11.2578 54.3943 11.0744C54.2111 10.891 53.9626 10.788 53.7035 10.788C53.4443 10.788 53.1958 10.891 53.0126 11.0744C52.8294 11.2578 52.7264 11.5064 52.7264 11.7658V17.1857C52.7264 17.4451 52.8294 17.6937 53.0126 17.8771C53.1958 18.0605 53.4443 18.1635 53.7035 18.1635ZM53.7035 26.9249C53.4443 26.9249 53.1958 27.028 53.0126 27.2113C52.8294 27.3947 52.7264 27.6434 52.7264 27.9027V33.3227C52.7264 33.582 52.8294 33.8307 53.0126 34.014C53.1958 34.1974 53.4443 34.3004 53.7035 34.3004C53.9626 34.3004 54.2111 34.1974 54.3943 34.014C54.5776 33.8307 54.6805 33.582 54.6805 33.3227V27.9027C54.6805 27.6434 54.5776 27.3947 54.3943 27.2113C54.2111 27.028 53.9626 26.9249 53.7035 26.9249ZM31.7627 10.8623H38.4644C38.7235 10.8623 38.972 10.7593 39.1552 10.576C39.3385 10.3926 39.4414 10.1439 39.4414 9.8846C39.4414 9.62529 39.3385 9.3766 39.1552 9.19324C38.972 9.00988 38.7235 8.90687 38.4644 8.90687H31.7627C31.5036 8.90687 31.2551 9.00988 31.0719 9.19324C30.8887 9.3766 30.7857 9.62529 30.7857 9.8846C30.7857 10.1439 30.8887 10.3926 31.0719 10.576C31.2551 10.7593 31.5036 10.8623 31.7627 10.8623ZM46.401 47.8683V56.0664C46.401 56.3257 46.298 56.5744 46.1148 56.7578C45.9316 56.9411 45.6831 57.0441 45.4239 57.0441H24.8032C24.5441 57.0441 24.2956 56.9411 24.1123 56.7578C23.9291 56.5744 23.8262 56.3257 23.8262 56.0664V47.8683C23.8262 47.609 23.9291 47.3603 24.1123 47.1769C24.2956 46.9935 24.5441 46.8905 24.8032 46.8905H45.4239C45.6831 46.8905 45.9316 46.9935 46.1148 47.1769C46.298 47.3603 46.401 47.609 46.401 47.8683ZM44.4469 48.846H25.7802V55.0887H44.4469V48.846ZM46.401 59.6262V64.301C46.401 64.5603 46.298 64.809 46.1148 64.9924C45.9316 65.1757 45.6831 65.2787 45.4239 65.2787H24.8032C24.5441 65.2787 24.2956 65.1757 24.1123 64.9924C23.9291 64.809 23.8262 64.5603 23.8262 64.301V59.6262C23.8262 59.3669 23.9291 59.1182 24.1123 58.9348C24.2956 58.7515 24.5441 58.6485 24.8032 58.6485H45.4239C45.6831 58.6485 45.9316 58.7515 46.1148 58.9348C46.298 59.1182 46.401 59.3669 46.401 59.6262ZM44.4469 60.6039H25.7802V63.3233H44.4469V60.6039ZM7.83251 49.2789H14.5341C14.7933 49.2789 15.0418 49.1758 15.225 48.9925C15.4082 48.8091 15.5112 48.5604 15.5112 48.3011C15.5112 48.0418 15.4082 47.7931 15.225 47.6098C15.0418 47.4264 14.7933 47.3234 14.5341 47.3234H7.83251C7.57338 47.3234 7.32487 47.4264 7.14164 47.6098C6.95841 47.7931 6.85548 48.0418 6.85548 48.3011C6.85548 48.5604 6.95841 48.8091 7.14164 48.9925C7.32487 49.1758 7.57338 49.2789 7.83251 49.2789ZM14.5341 59.2791H7.83251C7.57338 59.2791 7.32487 59.3821 7.14164 59.5655C6.95841 59.7488 6.85548 59.9975 6.85548 60.2568C6.85548 60.5161 6.95841 60.7648 7.14164 60.9482C7.32487 61.1316 7.57338 61.2346 7.83251 61.2346H14.5341C14.7933 61.2346 15.0418 61.1316 15.225 60.9482C15.4082 60.7648 15.5112 60.5161 15.5112 60.2568C15.5112 59.9975 15.4082 59.7488 15.225 59.5655C15.0418 59.3821 14.7933 59.2791 14.5341 59.2791ZM62.3946 47.3234H55.693C55.4339 47.3234 55.1853 47.4264 55.0021 47.6098C54.8189 47.7931 54.716 48.0418 54.716 48.3011C54.716 48.5604 54.8189 48.8091 55.0021 48.9925C55.1853 49.1758 55.4339 49.2789 55.693 49.2789H62.3946C62.6537 49.2789 62.9022 49.1758 63.0855 48.9925C63.2687 48.8091 63.3716 48.5604 63.3716 48.3011C63.3716 48.0418 63.2687 47.7931 63.0855 47.6098C62.9022 47.4264 62.6537 47.3234 62.3946 47.3234ZM62.3946 59.2791H55.693C55.4339 59.2791 55.1853 59.3821 55.0021 59.5655C54.8189 59.7488 54.716 59.9975 54.716 60.2568C54.716 60.5161 54.8189 60.7648 55.0021 60.9482C55.1853 61.1316 55.4339 61.2346 55.693 61.2346H62.3946C62.6537 61.2346 62.9022 61.1316 63.0855 60.9482C63.2687 60.7648 63.3716 60.5161 63.3716 60.2568C63.3716 59.9975 63.2687 59.7488 63.0855 59.5655C62.9022 59.3821 62.6537 59.2791 62.3946 59.2791ZM69.5889 0.977733V68.0223C69.5889 68.2816 69.486 68.5303 69.3028 68.7136C69.1195 68.897 68.871 69 68.6119 69H1.61522C1.35609 69 1.10758 68.897 0.924351 68.7136C0.741121 68.5303 0.638184 68.2816 0.638184 68.0223V0.977733C0.638184 0.718422 0.741121 0.469732 0.924351 0.286371C1.10758 0.103011 1.35609 0 1.61522 0H68.6119C68.871 0 69.1195 0.103011 69.3028 0.286371C69.486 0.469732 69.5889 0.718422 69.5889 0.977733ZM50.4527 1.95547V21.5664H67.6349V1.95547H50.4527ZM50.4527 55.0887H67.6349V45.0883H50.4527V55.0887ZM67.6349 43.133V23.5219H50.4527V43.1328H67.6349V43.133ZM19.7745 43.133V23.5219H2.59225V43.1328H19.7745V43.133ZM2.59225 45.0884V55.0888H19.7745V45.0884H2.59225ZM48.4987 15.1711H21.7286V43.1328H48.4988L48.4987 15.1711ZM21.7286 1.95547V13.2156H48.4988V1.95547H21.7286ZM2.59225 1.95547V21.5664H19.7745V1.95547H2.59225ZM19.7745 67.0445V57.0441H2.59225V67.0445H19.7745ZM48.4987 67.0445V45.0884H21.7286V67.0445H48.4987ZM67.6349 67.0445V57.0441H50.4527V67.0445H67.6349Z" fill="#D8AB7A"/>
</svg>
