<svg width="78" height="72" viewBox="0 0 78 72" fill="none" xmlns="http://www.w3.org/2000/svg">
<path d="M73.5532 48.3461V44.1522C73.5532 40.2414 70.3715 37.0598 66.4608 37.0598H39.2982C38.9946 37.0598 38.7034 37.1804 38.4887 37.3951C38.274 37.6098 38.1534 37.901 38.1534 38.2047C38.1534 38.5083 38.274 38.7995 38.4887 39.0142C38.7034 39.2289 38.9946 39.3495 39.2982 39.3495H66.4608C69.1092 39.3495 71.2636 41.504 71.2636 44.1523V48.3462C68.7275 48.8759 66.8167 51.1286 66.8167 53.8195V58.0712H30.2379V53.8195C30.2379 51.1285 28.327 48.8759 25.7911 48.3462V44.1523C25.7911 41.504 27.9457 39.3495 30.5939 39.3495H34.7191C35.0227 39.3495 35.3139 39.2289 35.5286 39.0142C35.7433 38.7995 35.8639 38.5083 35.8639 38.2047C35.8639 37.901 35.7433 37.6098 35.5286 37.3951C35.3139 37.1804 35.0227 37.0598 34.7191 37.0598H30.5939C26.6831 37.0598 23.5016 40.2415 23.5016 44.1522V48.3461C20.9656 48.8758 19.0546 51.1285 19.0546 53.8193V70.1242C19.0546 70.2746 19.0842 70.4234 19.1417 70.5623C19.1993 70.7013 19.2836 70.8275 19.3899 70.9338C19.4962 71.0401 19.6224 71.1244 19.7614 71.182C19.9003 71.2395 20.0492 71.2691 20.1995 71.2691H55.51C56.1424 71.2691 56.6549 70.7566 56.6549 70.1242C56.6549 69.4918 56.1424 68.9793 55.51 68.9793H30.2379V60.3606H66.8167V68.9793H60.0892C59.4568 68.9793 58.9443 69.4918 58.9443 70.1242C58.9443 70.7566 59.4568 71.2691 60.0892 71.2691H76.8552C77.0056 71.2691 77.1545 71.2395 77.2934 71.182C77.4323 71.1244 77.5585 71.0401 77.6648 70.9338C77.7711 70.8275 77.8555 70.7013 77.913 70.5623C77.9705 70.4234 78.0001 70.2746 78.0001 70.1242V53.8195C77.9999 51.1285 76.0891 48.8759 73.5532 48.3461ZM21.3442 53.8195C21.3442 51.9988 22.8255 50.5176 24.6463 50.5176C26.4671 50.5176 27.9483 51.9988 27.9483 53.8195V68.9795H21.3442V53.8195ZM75.7104 68.9795H69.1063V53.8195C69.1063 51.9988 70.5875 50.5176 72.4083 50.5176C74.229 50.5176 75.7102 51.9988 75.7102 53.8195V68.9795H75.7104ZM29.1707 28.8902C29.2266 29.4673 29.7295 29.9233 30.3099 29.9233H66.7446C67.3673 29.9233 67.8895 29.4012 67.8895 28.7784V1.87558C67.8895 1.2528 67.3674 0.730713 66.7446 0.730713H60.0892C59.4568 0.730713 58.9443 1.2432 58.9443 1.87558C58.9443 2.50796 59.4568 3.02044 60.0892 3.02044H63.9808L61.8614 5.13985H35.193L33.0736 3.02044H55.5097C56.1421 3.02044 56.6546 2.50796 56.6546 1.87558C56.6546 1.2432 56.1421 0.730713 55.5097 0.730713H30.3098C29.6866 0.730713 29.1649 1.25356 29.1649 1.87558V28.7784C29.1651 28.8153 29.1671 28.8535 29.1707 28.8902ZM33.0736 27.6337L35.193 25.5141H61.8613L63.9807 27.6337H33.0736ZM61.1908 23.2244H50.7894L48.881 21.1047L55.0701 14.23C55.438 13.821 56.0925 13.8269 56.459 14.234L61.1908 19.4393V23.2244ZM47.7084 23.2244H35.8638V22.3894L40.8739 16.8243C41.1573 16.5096 41.6632 16.5094 41.9464 16.8243L47.7084 23.2244ZM65.5998 4.63955V26.0144L63.4804 23.895V6.75896L65.5998 4.63955ZM61.1908 16.0355L58.157 12.6981C56.8964 11.2979 54.629 11.2979 53.3684 12.6981L47.3405 19.3936L43.6481 15.2923C43.3656 14.9789 43.0204 14.7283 42.635 14.5566C42.2495 14.385 41.8323 14.2961 41.4103 14.2959C40.5638 14.2959 39.7387 14.6633 39.1722 15.2923L35.8638 18.9673V7.42942H61.1908V16.0355ZM33.5741 6.75896V23.8952L31.4547 26.0146V4.63955L33.5741 6.75896Z" fill="#D8AB7A"/>
<path d="M12.9024 64.8543H11.7792V25.2329H14.7197V38.1862C14.7197 38.4898 14.8403 38.781 15.055 38.9957C15.2697 39.2104 15.5609 39.3311 15.8646 39.3311C16.1682 39.3311 16.4594 39.2104 16.6741 38.9957C16.8888 38.781 17.0094 38.4898 17.0094 38.1862V25.2329H20.1244C20.8479 25.2329 21.4018 24.5386 21.2405 23.8328L17.2259 6.27262C17.1681 6.01986 17.0262 5.7942 16.8235 5.63257C16.6207 5.47095 16.3691 5.38293 16.1098 5.38293H5.15876C4.89948 5.38293 4.64787 5.47095 4.44512 5.63257C4.24237 5.7942 4.10049 6.01986 4.04269 6.27262L0.0281306 23.8328C-0.133201 24.5386 0.42072 25.2329 1.1442 25.2329H9.48959V64.8541H8.36636C5.55516 64.8541 3.26818 67.1411 3.26818 69.9522V70.1242C3.26818 70.2745 3.29779 70.4234 3.35533 70.5623C3.41286 70.7012 3.49719 70.8274 3.6035 70.9337C3.70981 71.04 3.83602 71.1243 3.97492 71.1819C4.11382 71.2394 4.2627 71.269 4.41304 71.269H16.8557C17.0061 71.269 17.1549 71.2394 17.2938 71.1819C17.4327 71.1243 17.5589 71.04 17.6653 70.9337C17.7716 70.8274 17.8559 70.7012 17.9134 70.5623C17.971 70.4234 18.0006 70.2745 18.0006 70.1242V69.9522C18.0004 67.1413 15.7134 64.8543 12.9024 64.8543ZM6.07146 7.67266H15.1973L18.6884 22.9433H2.58019L6.07146 7.67266ZM5.73142 68.9794C6.12797 67.9089 7.15934 67.1439 8.36621 67.1439H12.9022C14.1091 67.1439 15.1405 67.9088 15.537 68.9794H5.73142ZM47.3405 15.1447C49.1232 15.1447 50.5733 13.6944 50.5733 11.9118C50.5733 10.1291 49.123 8.67889 47.3405 8.67889C45.5577 8.67889 44.1076 10.1292 44.1076 11.9118C44.1076 13.6944 45.5577 15.1447 47.3405 15.1447ZM47.3405 10.9685C47.8606 10.9685 48.2838 11.3917 48.2838 11.9118C48.2838 12.4319 47.8606 12.8551 47.3405 12.8551C46.8204 12.8551 46.3972 12.4319 46.3972 11.9118C46.3974 11.6617 46.4969 11.4219 46.6738 11.2451C46.8506 11.0682 47.0904 10.9687 47.3405 10.9685Z" fill="#D8AB7A"/>
</svg>
