<svg width="70" height="71" viewBox="0 0 70 71" fill="none" xmlns="http://www.w3.org/2000/svg">
<path d="M0.638184 1V70H50.7182V60.5579H44.1861V63.4632H7.17032V59.8317H16.9685C18.7694 59.8317 20.2346 58.3656 20.2346 56.5632V40.5842C20.2346 38.7819 18.7695 37.3157 16.9685 37.3157H7.17032V30.7789H12.9767V29.1102L19.9006 34.8843L21.2946 33.2103L12.9767 26.2739V24.2421H7.17032V7.53681H9.34766V13.3474H12.2509V16.6158C12.2509 19.6196 14.6927 22.0632 17.6943 22.0632C20.696 22.0632 23.1378 19.6196 23.1378 16.6158V13.3474H26.041V7.53681H28.2185V24.2421H20.9605V30.7789H34.7506V7.53681H36.928V40.9472H60.8793V7.53681H63.0567V44.5789H44.186V53.933L40.1502 57.9718L41.6897 59.5124L47.1772 54.021H50.7182V51.1157H69.5889V1H0.638184ZM12.9767 39.4947H16.9686C17.569 39.4947 18.0573 39.9834 18.0573 40.5842C18.0573 41.185 17.569 41.6736 16.9686 41.6736H12.9767V39.4947ZM12.9767 43.8526H16.9686C17.3503 43.8526 17.7166 43.7861 18.0573 43.6652V53.482C17.7077 53.3578 17.3395 53.2944 16.9686 53.2946H12.9767V43.8526ZM12.9767 55.4737H16.9686C17.569 55.4737 18.0573 55.9624 18.0573 56.5632C18.0573 57.164 17.569 57.6526 16.9686 57.6526H12.9767V55.4737ZM10.7994 39.4947V57.6526H7.17032V39.4947H10.7994ZM20.9605 16.6158C20.9605 18.4181 19.4954 19.8843 17.6943 19.8843C15.8934 19.8843 14.4282 18.4182 14.4282 16.6158V13.3474H20.9603L20.9605 16.6158ZM23.8637 11.1685H11.5253V7.53681H23.8638V11.1685H23.8637ZM58.702 38.7685H39.1054V24.9685H58.702V38.7685ZM58.702 22.7894H39.1054V19.1579H58.702V22.7894ZM58.702 16.9789H39.1054V7.53681H58.702V16.9789ZM67.4116 48.9368H48.5408V51.8421H46.3634V46.7579H65.2341V5.35792H32.5733V28.6H23.1379V26.4211H30.396V5.35792H4.99299V26.4211H10.7994V28.6H4.99299V65.6422H46.3634V62.7369H48.5408V67.8211H2.81552V3.17889H67.4115V48.9368H67.4116Z" fill="#D8AB7A" stroke="#101010" stroke-width="0.5"/>
<path d="M53.9843 8.2627H43.8231C42.8225 8.2627 42.0086 9.07722 42.0086 10.0785V14.4364C42.0086 15.4378 42.8225 16.2523 43.8231 16.2523H53.9843C54.9849 16.2523 55.7989 15.4378 55.7989 14.4364V10.0784C55.7989 9.07708 54.9849 8.2627 53.9843 8.2627ZM53.6215 14.0733H44.1862V10.4416H53.6215V14.0733ZM30.0331 42.2674C25.3579 42.2674 21.5544 46.0736 21.5544 50.7521C21.5544 55.4307 25.3579 59.2369 30.0331 59.2369C34.7083 59.2369 38.5117 55.4307 38.5117 50.7521C38.5117 46.0736 34.7081 42.2674 30.0331 42.2674ZM30.0331 57.0578C26.5586 57.0578 23.7319 54.2291 23.7319 50.7521C23.7319 47.2752 26.5586 44.4465 30.0331 44.4465C33.5076 44.4465 36.3343 47.2752 36.3343 50.7521C36.3343 54.2291 33.5076 57.0578 30.0331 57.0578ZM55.4359 57.6521H57.6133V59.831H55.4359V57.6521ZM64.1455 57.6521H66.3229V59.831H64.1455V57.6521ZM59.7907 57.6521H61.9681V59.831H59.7907V57.6521Z" fill="#D8AB7A" stroke="#101010" stroke-width="0.5"/>
</svg>
