<svg width="86" height="75" viewBox="0 0 86 75" fill="none" xmlns="http://www.w3.org/2000/svg">
<path d="M81.3022 0.5H5.23156C3.06224 0.5 1.29688 2.26662 1.29688 4.4375V50.375C1.29688 51.8227 2.47335 53 3.92 53H39.3322V63.1469C39.3322 63.6929 39.0345 64.1956 38.5558 64.4568L27.9387 70.2528C27.1242 70.6964 26.732 71.5981 26.9602 72.4972C27.1884 73.3962 27.9649 74 28.8922 74H33.1338C33.985 74 34.8257 73.7769 35.5641 73.3542L42.5849 69.3393C42.7931 69.2206 43.0286 69.1581 43.2682 69.1581C43.5078 69.1581 43.7433 69.2206 43.9515 69.3393L50.971 73.3542C51.7107 73.7774 52.548 74 53.4 74H57.6416C58.5689 74 59.3453 73.3962 59.5736 72.4972C59.8018 71.5981 59.4096 70.6964 58.5964 70.2528L47.9793 64.4568C47.744 64.3286 47.5475 64.1393 47.4106 63.9088C47.2738 63.6783 47.2015 63.4151 47.2016 63.1469V53H82.6138C84.0604 53 85.2369 51.8227 85.2369 50.375V4.4375C85.2369 2.26662 83.4715 0.5 81.3022 0.5ZM46.7215 66.7616L55.1733 71.375H53.4C53.0043 71.375 52.6154 71.2713 52.2721 71.0744L45.2513 67.0595C44.6464 66.7156 43.9626 66.5348 43.2669 66.5348C42.5712 66.5348 41.8874 66.7156 41.2825 67.0595L34.2617 71.0744C33.9183 71.2713 33.5295 71.375 33.1338 71.375H31.3605L39.8122 66.7616C40.4611 66.4074 41.0026 65.8848 41.3798 65.2487C41.7569 64.6126 41.9557 63.8866 41.9553 63.1469V53H44.5785V63.1469C44.5785 64.655 45.3995 66.0397 46.7215 66.7616ZM3.92 50.375V48.821C4.33183 48.968 4.76989 49.0625 5.23156 49.0625H16.5031C16.851 49.0625 17.1846 48.9242 17.4306 48.6781C17.6765 48.4319 17.8147 48.0981 17.8147 47.75C17.8147 47.4019 17.6765 47.0681 17.4306 46.8219C17.1846 46.5758 16.851 46.4375 16.5031 46.4375H5.23156C4.50889 46.4375 3.92 45.8495 3.92 45.125V4.4375C3.92 3.713 4.50889 3.125 5.23156 3.125H81.3022C82.0249 3.125 82.6138 3.713 82.6138 4.4375V45.125C82.6138 45.8495 82.0249 46.4375 81.3022 46.4375H23.5934C23.2456 46.4375 22.912 46.5758 22.666 46.8219C22.4201 47.0681 22.2819 47.4019 22.2819 47.75C22.2819 48.0981 22.4201 48.4319 22.666 48.6781C22.912 48.9242 23.2456 49.0625 23.5934 49.0625H81.3022C81.7639 49.0625 82.202 48.968 82.6138 48.821V50.375H3.92Z" fill="#D8AB7A" stroke="#101010"/>
<path d="M18.3079 11.9401C18.2157 11.3159 17.903 10.7456 17.4266 10.3323C16.9501 9.91913 16.3415 9.69047 15.711 9.68784H10.491C9.86033 9.69052 9.25153 9.91936 8.77506 10.3328C8.29859 10.7463 7.98603 11.317 7.8941 11.9414L6.77009 19.8164C6.71713 20.1887 6.74468 20.568 6.85089 20.9288C6.95709 21.2895 7.13947 21.6232 7.38568 21.9073C7.63189 22.1914 7.9362 22.4192 8.27802 22.5755C8.61984 22.7317 8.9912 22.8126 9.36698 22.8128H11.7894V41.1878H9.16632C8.81847 41.1878 8.48487 41.3261 8.2389 41.5723C7.99293 41.8184 7.85475 42.1522 7.85475 42.5003C7.85475 42.8484 7.99293 43.1823 8.2389 43.4284C8.48487 43.6746 8.81847 43.8128 9.16632 43.8128H17.0357C17.3835 43.8128 17.7171 43.6746 17.9631 43.4284C18.2091 43.1823 18.3473 42.8484 18.3473 42.5003C18.3473 42.1522 18.2091 41.8184 17.9631 41.5723C17.7171 41.3261 17.3835 41.1878 17.0357 41.1878H14.4126V22.8128H16.835C17.211 22.8133 17.5826 22.7328 17.9247 22.5768C18.2668 22.4208 18.5713 22.1929 18.8175 21.9086C19.0638 21.6243 19.246 21.2903 19.3518 20.9293C19.4576 20.5683 19.4844 20.1887 19.4306 19.8164L18.3079 11.9401ZM9.36698 20.1878L10.491 12.3128H15.711L16.8376 20.1878H9.36698ZM51.1363 43.8128C51.4842 43.8128 51.8178 43.6746 52.0638 43.4284C52.3097 43.1823 52.4479 42.8484 52.4479 42.5003V41.1878C52.4479 40.8397 52.3097 40.5059 52.0638 40.2598C51.8178 40.0136 51.4842 39.8753 51.1363 39.8753C50.7885 39.8753 50.4549 40.0136 50.2089 40.2598C49.963 40.5059 49.8248 40.8397 49.8248 41.1878H45.8901V35.2816C45.8901 34.1962 46.7728 33.3128 47.8574 33.3128C48.0948 33.3128 48.3217 33.368 48.5381 33.448C48.3234 33.6838 48.2026 33.9901 48.1984 34.309C48.1984 34.6581 48.3362 34.9915 48.5827 35.237L54.1437 40.802C54.2649 40.9248 54.4092 41.0224 54.5684 41.0891C54.7275 41.1557 54.8983 41.1901 55.0707 41.1902C55.2432 41.1903 55.4141 41.1562 55.5733 41.0898C55.7325 41.0233 55.877 40.926 55.9983 40.8033L64.4972 32.2983L71.6571 39.6102C72.4007 40.3531 73.3883 40.7639 74.4402 40.7639C75.4921 40.7639 76.4797 40.3544 77.222 39.6102C77.9574 38.8731 78.3712 37.8745 78.373 36.8329C78.3747 35.7913 77.9642 34.7913 77.2312 34.0518L70.0609 26.7293L81.0347 15.7477C81.1566 15.6259 81.2533 15.4812 81.3193 15.322C81.3853 15.1628 81.4193 14.9921 81.4193 14.8197C81.4193 14.6473 81.3853 14.4767 81.3193 14.3174C81.2533 14.1582 81.1566 14.0136 81.0347 13.8918L75.4737 8.32678C75.223 8.08994 74.8912 7.95801 74.5464 7.95801C74.2016 7.95801 73.8699 8.08994 73.6191 8.32678L62.7201 19.2337L56.1242 12.4979C55.9784 12.3496 55.7995 12.2381 55.6022 12.1724L50.0372 10.3165C49.8063 10.2401 49.5587 10.2293 49.3221 10.2855C49.0854 10.3416 48.869 10.4624 48.6969 10.6345C48.5248 10.8065 48.4039 11.023 48.3476 11.2598C48.2914 11.4966 48.3019 11.7444 48.3781 11.9755L50.234 17.5432C50.2969 17.7322 50.4019 17.9041 50.5409 18.0472L57.1551 24.8013L50.4386 31.5226C50.2392 31.3861 50.0412 31.2496 49.8235 31.1459V29.3753C49.8214 27.6529 49.1367 26.0016 47.9196 24.7837C46.7025 23.5657 45.0524 22.8805 43.3312 22.8785H28.7729C27.0519 22.8809 25.4021 23.5662 24.1853 24.7841C22.9685 26.002 22.284 27.6531 22.2819 29.3753V31.1485C21.4993 31.5192 20.8375 32.1041 20.3733 32.8355C19.909 33.567 19.6613 34.4151 19.6588 35.2816V42.5003C19.6588 42.8484 19.797 43.1823 20.043 43.4284C20.2889 43.6746 20.6225 43.8128 20.9704 43.8128H51.1363ZM43.267 37.2503V41.1878H28.8398V37.2503H43.267ZM74.5477 11.1106L78.2542 14.8197L77.3283 15.7463L76.3997 14.8171C76.2779 14.6952 76.1333 14.5986 75.9742 14.5326C75.8151 14.4667 75.6446 14.4327 75.4724 14.4327C75.3002 14.4327 75.1297 14.4667 74.9706 14.5326C74.8114 14.5986 74.6669 14.6952 74.5451 14.8171C74.4233 14.9389 74.3267 15.0836 74.2608 15.2428C74.1949 15.402 74.161 15.5727 74.161 15.745C74.161 15.9174 74.1949 16.088 74.2608 16.2472C74.3267 16.4064 74.4233 16.5511 74.5451 16.673L75.4737 17.6022L73.6191 19.4581L72.6906 18.5288C72.5688 18.407 72.4242 18.3103 72.2651 18.2444C72.106 18.1784 71.9355 18.1445 71.7633 18.1445C71.5911 18.1445 71.4206 18.1784 71.2615 18.2444C71.1023 18.3103 70.9578 18.407 70.836 18.5288C70.7142 18.6507 70.6176 18.7954 70.5517 18.9546C70.4858 19.1138 70.4519 19.2844 70.4519 19.4568C70.4519 19.6291 70.4858 19.7998 70.5517 19.959C70.6176 20.1182 70.7142 20.2629 70.836 20.3847L71.7646 21.314L69.9087 23.1712L68.9801 22.2419C68.8585 22.1199 68.7139 22.0231 68.5548 21.9571C68.3957 21.8911 68.2251 21.8571 68.0529 21.8571C67.8806 21.8571 67.7101 21.8911 67.551 21.9571C67.3918 22.0231 67.2473 22.1199 67.1256 22.2419C66.9813 22.39 66.8747 22.5708 66.8149 22.7689C66.755 22.9669 66.7438 23.1765 66.782 23.3798L64.5576 21.1079L74.5477 11.1106ZM75.3675 35.8998C75.6133 36.1459 75.7515 36.4797 75.7515 36.8277C75.7515 37.1757 75.6133 37.5095 75.3675 37.7556C74.873 38.2531 73.9995 38.2439 73.5234 37.7648L53.3253 17.1389L55.1799 15.283L75.3675 35.8998ZM52.7614 13.9915L52.0531 14.7003L51.699 13.6372L52.7614 13.9915ZM62.661 30.424L62.4892 30.596L61.5606 29.6667C61.4389 29.5449 61.2943 29.4482 61.1352 29.3822C60.9761 29.3163 60.8056 29.2824 60.6334 29.2824C60.4612 29.2824 60.2906 29.3163 60.1315 29.3822C59.9724 29.4482 59.8279 29.5449 59.7061 29.6667C59.5843 29.7886 59.4877 29.9332 59.4218 30.0925C59.3559 30.2517 59.322 30.4223 59.322 30.5947C59.322 30.767 59.3559 30.9376 59.4218 31.0968C59.4877 31.2561 59.5843 31.4007 59.7061 31.5226L60.6347 32.4518L58.7788 34.309L57.8502 33.3798C57.7285 33.2579 57.5839 33.1613 57.4248 33.0953C57.2657 33.0294 57.0952 32.9954 56.923 32.9954C56.7507 32.9954 56.5802 33.0294 56.4211 33.0953C56.262 33.1613 56.1175 33.2579 55.9957 33.3798C55.8739 33.5016 55.7773 33.6463 55.7114 33.8055C55.6455 33.9647 55.6116 34.1354 55.6116 34.3077C55.6116 34.48 55.6455 34.6507 55.7114 34.8099C55.7773 34.9691 55.8739 35.1138 55.9957 35.2357L56.9243 36.1649L55.071 38.0195L51.3645 34.3103L58.9926 26.6782L62.661 30.424ZM28.7742 25.5035H43.3325C44.3584 25.5045 45.3419 25.9128 46.0673 26.6387C46.7926 27.3646 47.2006 28.3488 47.2016 29.3753V30.7548C46.2262 30.8965 45.3226 31.3499 44.6256 32.0474C43.9286 32.7449 43.4755 33.6492 43.3338 34.6253H28.7729C28.6313 33.6492 28.1782 32.7449 27.4812 32.0474C26.7842 31.3499 25.8806 30.8965 24.9051 30.7548V29.3753C24.9061 28.3488 25.3141 27.3646 26.0395 26.6387C26.7648 25.9128 27.7484 25.5045 28.7742 25.5035ZM22.2819 35.2816C22.2819 34.1962 23.1646 33.3128 24.2493 33.3128C25.334 33.3128 26.2166 34.1962 26.2166 35.2816V41.1878H22.2819V35.2816Z" fill="#D8AB7A" stroke="#101010"/>
<path d="M23.5935 20.1875H41.9554C42.3033 20.1875 42.6369 20.0492 42.8828 19.8031C43.1288 19.5569 43.267 19.2231 43.267 18.875V7.0625C43.267 6.7144 43.1288 6.38056 42.8828 6.13442C42.6369 5.88828 42.3033 5.75 41.9554 5.75H23.5935C23.2457 5.75 22.9121 5.88828 22.6661 6.13442C22.4202 6.38056 22.282 6.7144 22.282 7.0625V18.875C22.282 19.2231 22.4202 19.5569 22.6661 19.8031C22.9121 20.0492 23.2457 20.1875 23.5935 20.1875ZM24.9051 17.5625V16.25H40.6439V17.5625H24.9051ZM40.6439 8.375V13.625H24.9051V8.375H40.6439Z" fill="#D8AB7A" stroke="#101010"/>
</svg>
