<svg width="75" height="70" viewBox="0 0 75 70" fill="none" xmlns="http://www.w3.org/2000/svg">
<path d="M74.49 27.7667C74.75 28.0047 74.905 28.327 74.9238 28.6687C74.9426 29.0104 74.8238 29.3462 74.5913 29.6084C74.3588 29.8706 74.0299 30.0398 73.6708 30.082C73.3117 30.1241 72.9491 30.0361 72.6559 29.8356L40.8167 3.71778C40.042 3.07828 39.0485 2.7259 38.0202 2.7259C36.9918 2.7259 35.9983 3.07828 35.2236 3.71778L22.8861 13.72C22.6854 13.9002 22.4326 14.0201 22.1598 14.0644C21.887 14.1087 21.6064 14.0754 21.3536 13.9688C21.1009 13.8622 20.8872 13.687 20.7398 13.4655C20.5924 13.244 20.5178 12.9861 20.5255 12.7244V9.00667C20.5266 8.91956 20.5092 8.83312 20.4745 8.75244C20.4398 8.67176 20.3883 8.59846 20.3232 8.53687C20.258 8.47527 20.1805 8.42661 20.0952 8.39375C20.0099 8.3609 19.9185 8.34451 19.8263 8.34556H13.4437C13.3516 8.34451 13.2602 8.3609 13.1749 8.39375C13.0895 8.42661 13.012 8.47527 12.9469 8.53687C12.8817 8.59846 12.8303 8.67176 12.7955 8.75244C12.7608 8.83312 12.7435 8.91956 12.7446 9.00667V21.49C12.7416 21.7009 12.6847 21.9079 12.5787 22.0935C12.4727 22.279 12.3208 22.4376 12.1359 22.5556L3.30221 29.8356C3.16013 29.9516 2.99492 30.0395 2.81633 30.0942C2.63773 30.1489 2.44937 30.1693 2.26233 30.1541C2.07529 30.1388 1.89337 30.0884 1.72729 30.0056C1.56121 29.9229 1.41432 29.8095 1.29529 29.6722C1.06316 29.3931 0.951858 29.041 0.983928 28.6872C1.016 28.3334 1.18904 28.0044 1.46802 27.7667L9.6026 21.0778C9.68529 21.0207 9.75233 20.9457 9.79812 20.8591C9.84391 20.7725 9.86712 20.6768 9.8658 20.58V8.34556C9.89239 7.63158 10.2042 6.95369 10.7384 6.44852C11.2727 5.94335 11.9895 5.64848 12.7446 5.62333H20.5337C21.2895 5.64836 22.0074 5.94297 22.5429 6.44796C23.0785 6.95295 23.3921 7.63089 23.4207 8.34556C23.4212 8.4697 23.4591 8.59113 23.53 8.69563C23.6009 8.80012 23.7018 8.88336 23.8209 8.93559C23.94 8.98782 24.0724 9.00688 24.2025 8.99054C24.3327 8.97421 24.4552 8.92314 24.5557 8.84333L33.299 1.65667C34.6162 0.609859 36.275 0.0247325 37.9955 0C39.7021 0.00691258 41.349 0.595049 42.6344 1.65667L74.49 27.7667ZM50.7032 54.2111C51.3773 53.8415 52.1607 53.6901 52.9342 53.7799C53.7076 53.8698 54.4289 54.1959 54.9884 54.7089L63.5589 62.8133C64.178 63.4494 64.5216 64.2822 64.5216 65.1467C64.5216 66.0111 64.178 66.844 63.5589 67.48L61.9139 68.9656C61.2536 69.5737 60.3682 69.914 59.4464 69.914C58.5246 69.914 57.6393 69.5737 56.9789 68.9656L48.4248 60.9078C47.882 60.3804 47.5372 59.699 47.4436 58.9683C47.35 58.2376 47.5127 57.4981 47.9067 56.8633C48.0077 56.7345 48.0544 56.5747 48.0377 56.4152C48.0209 56.2556 47.942 56.1076 47.8162 56C46.5947 54.7908 45.777 53.268 45.4655 51.6218C45.1539 49.9757 45.3621 48.2793 46.0643 46.7444L50.44 36.6333C50.9406 35.5397 51.0749 34.3272 50.8249 33.1592C50.5749 31.9912 49.9526 30.9236 49.0417 30.1L46.2205 27.44C45.9771 27.2413 45.6662 27.132 45.3446 27.132C45.023 27.132 44.7121 27.2413 44.4686 27.44L43.5967 28.2644C43.1526 28.6767 43.3335 29.0889 43.679 29.4233C44.0713 29.7731 44.3839 30.195 44.5976 30.6631C44.8112 31.1312 44.9215 31.6357 44.9215 32.1456C44.9215 32.6554 44.8112 33.1599 44.5976 33.628C44.3839 34.0962 44.0713 34.518 43.679 34.8678L27.4427 50.33C26.654 51.0454 25.6034 51.4449 24.5105 51.4449C23.4176 51.4449 22.367 51.0454 21.5783 50.33L18.4281 47.2733C17.6746 46.5464 17.2525 45.569 17.2525 44.5511C17.2525 43.5332 17.6746 42.5558 18.4281 41.8289L34.7055 26.3667C35.4908 25.6482 36.5408 25.2465 37.6336 25.2465C38.7263 25.2465 39.7763 25.6482 40.5617 26.3667C40.624 26.4426 40.7038 26.504 40.795 26.5463C40.8863 26.5885 40.9865 26.6105 41.0881 26.6105C41.1897 26.6105 41.2899 26.5885 41.3812 26.5463C41.4724 26.504 41.5522 26.4426 41.6145 26.3667L42.4864 25.5344C43.2551 24.8219 44.2887 24.4228 45.3651 24.4228C46.4416 24.4228 47.4751 24.8219 48.2439 25.5344L51.0404 28.2644C52.3675 29.4614 53.2728 31.0157 53.6333 32.7161C53.9938 34.4165 53.7921 36.1807 53.0555 37.7689L48.688 47.7711C48.2239 48.8199 48.0766 49.9699 48.2624 51.0931C48.4483 52.2163 48.9601 53.2688 49.7409 54.1333C49.8721 54.2406 50.0358 54.3059 50.2087 54.3199C50.3815 54.3338 50.5546 54.2958 50.7032 54.2111ZM36.7206 28.2644L20.4432 43.7189C20.3189 43.8225 20.2194 43.95 20.1512 44.0928C20.0831 44.2356 20.0478 44.3905 20.0478 44.5472C20.0478 44.7039 20.0831 44.8588 20.1512 45.0016C20.2194 45.1445 20.3189 45.2719 20.4432 45.3756L23.5934 48.4322C23.8521 48.6325 24.1762 48.742 24.5105 48.742C24.8449 48.742 25.1689 48.6325 25.4276 48.4322L41.6968 32.9778C41.821 32.8741 41.9206 32.7467 41.9887 32.6039C42.0569 32.461 42.0922 32.3061 42.0922 32.1494C42.0922 31.9928 42.0569 31.8379 41.9887 31.695C41.9206 31.5522 41.821 31.4248 41.6968 31.3211L38.5466 28.2644C38.2879 28.0641 37.9638 27.9547 37.6295 27.9547C37.2951 27.9547 36.9711 28.0641 36.7124 28.2644H36.7206ZM51.9781 56.6922L50.4071 58.1856C50.3444 58.2367 50.2942 58.2999 50.2597 58.3711C50.2253 58.4422 50.2074 58.5195 50.2074 58.5978C50.2074 58.676 50.2253 58.7533 50.2597 58.8245C50.2942 58.8956 50.3444 58.9589 50.4071 59.01L59.0105 67.1067C59.0653 67.1648 59.1324 67.2113 59.2076 67.2431C59.2827 67.275 59.3641 67.2914 59.4464 67.2914C59.5288 67.2914 59.6101 67.275 59.6853 67.2431C59.7604 67.2113 59.8276 67.1648 59.8824 67.1067L61.5274 65.6211C61.6544 65.5002 61.7258 65.3366 61.7258 65.1661C61.7258 64.9956 61.6544 64.8321 61.5274 64.7111L53.0638 56.6922C52.916 56.5758 52.7297 56.5121 52.5374 56.5121C52.345 56.5121 52.1588 56.5758 52.011 56.6922H51.9781ZM63.2957 33.7167C63.2965 33.1277 63.1641 32.5454 62.9073 32.0088C62.6506 31.4722 62.2754 30.9938 61.807 30.6056L40.7344 12.9733C39.9787 12.3284 38.997 11.9714 37.979 11.9714C36.9611 11.9714 35.9793 12.3284 35.2236 12.9733L14.1428 30.5822C13.6856 30.9747 13.3233 31.4557 13.0805 31.9926C12.8378 32.5295 12.7204 33.1096 12.7363 33.6933V63.14C12.7165 64.2142 13.1477 65.252 13.9355 66.0261C14.7233 66.8002 15.8035 67.2475 16.9393 67.27H49.3049C51.1556 67.27 51.1556 70 49.3049 70H16.9476C15.0488 69.9713 13.2391 69.2342 11.9126 67.9492C10.5861 66.6643 9.85037 64.9356 9.8658 63.14V33.7167C9.86494 32.7462 10.0848 31.7869 10.5106 30.9039C10.9363 30.0208 11.558 29.2347 12.3333 28.5989L33.3895 10.99C34.6639 9.91154 36.314 9.31526 38.0243 9.31526C39.7345 9.31526 41.3847 9.91154 42.6591 10.99L63.7317 28.5989C64.4914 29.2411 65.0955 30.0308 65.5029 30.914C65.9103 31.7973 66.1113 32.7532 66.0923 33.7167V57.1044C66.0923 57.4551 65.9449 57.7914 65.6827 58.0394C65.4205 58.2874 65.0648 58.4267 64.694 58.4267C64.3232 58.4267 63.9675 58.2874 63.7053 58.0394C63.4431 57.7914 63.2957 57.4551 63.2957 57.1044V33.7167Z" fill="#D8AB7A"/>
</svg>
