<svg width="64" height="64" viewBox="0 0 64 64" fill="none" xmlns="http://www.w3.org/2000/svg">
<mask id="path-1-inside-1_193_10367" fill="white">
<path d="M57.3474 47.2323C57.2956 47.1117 57.2213 47.002 57.1285 46.9092L42.9485 32.7302L63.6967 11.982C63.8902 11.7884 63.999 11.5259 63.999 11.2522C63.999 10.9785 63.8902 10.716 63.6967 10.5224L53.4774 0.303116C53.2839 0.109599 53.0214 0.000886972 52.7476 0.000886972C52.4739 0.000886972 52.2114 0.109599 52.0178 0.303116L31.2696 21.0514L11.4287 1.20943C11.0453 0.825996 10.5901 0.521837 10.0891 0.314322C9.58818 0.106807 9.05124 0 8.50899 0C7.96675 0 7.42981 0.106807 6.92884 0.314322C6.42788 0.521837 5.97269 0.825996 5.58927 1.20943L1.20943 5.58927C0.825996 5.97269 0.521837 6.42788 0.314322 6.92884C0.106807 7.42981 0 7.96675 0 8.50899C0 9.05124 0.106807 9.58818 0.314322 10.0891C0.521837 10.5901 0.825996 11.0453 1.20943 11.4287L21.0514 31.2696L0.303116 52.0178C0.109599 52.2114 0.000886972 52.4739 0.000886972 52.7476C0.000886972 53.0214 0.109599 53.2839 0.303116 53.4774L10.5224 63.6967C10.716 63.8902 10.9785 63.999 11.2522 63.999C11.5259 63.999 11.7884 63.8902 11.982 63.6967L32.7302 42.9485L46.9092 57.1285C47.002 57.2213 47.1117 57.2956 47.2323 57.3474L62.5612 63.9166C62.7509 63.9978 62.9605 64.0204 63.163 63.9814C63.3656 63.9423 63.5518 63.8435 63.6977 63.6977C63.8435 63.5518 63.9423 63.3656 63.9814 63.163C64.0204 62.9605 63.9978 62.7509 63.9166 62.5612L57.3474 47.2323ZM54.9391 47.639L53.4785 49.0997L40.0293 35.6494L41.4889 34.1898L54.9391 47.639ZM52.0189 50.5593L50.5593 52.0189L37.109 38.5686L38.5686 37.109L52.0189 50.5593ZM29.81 22.511L28.3504 23.9706L16.5373 12.1585L17.998 10.6979L29.81 22.511ZM26.8908 25.4302L25.4302 26.8908L13.6181 15.0777L15.0777 13.6181L26.8908 25.4302ZM2.66903 9.96808C2.282 9.58093 2.06458 9.05591 2.06458 8.50848C2.06458 7.96105 2.282 7.43603 2.66903 7.04887L7.04887 2.66903C7.43603 2.282 7.96105 2.06458 8.50848 2.06458C9.05591 2.06458 9.58093 2.282 9.96808 2.66903L12.8883 5.58927L5.58927 12.8883L2.66903 9.96808ZM7.04887 14.35L14.35 7.04887L16.5394 9.23828L9.23828 16.5373L7.04887 14.35ZM10.6989 18L12.1585 16.5394L23.9706 28.3504L22.511 29.81L10.6989 18ZM29.7656 35.6938C29.5709 35.5058 29.3102 35.4017 29.0395 35.4041C28.7689 35.4065 28.51 35.515 28.3186 35.7064C28.1272 35.8978 28.0186 36.1567 28.0163 36.4273C28.0139 36.698 28.118 36.9587 28.306 37.1534L31.955 40.8035L29.7212 43.0373L27.5308 40.8479C27.3361 40.6598 27.0754 40.5558 26.8047 40.5581C26.5341 40.5605 26.2752 40.669 26.0838 40.8604C25.8924 41.0518 25.7838 41.3107 25.7815 41.5814C25.7791 41.852 25.8832 42.1128 26.0712 42.3075L28.2616 44.4979L26.0268 46.7317L22.3778 43.0816C22.2826 42.9831 22.1687 42.9044 22.0427 42.8503C21.9168 42.7962 21.7813 42.7677 21.6443 42.7666C21.5072 42.7654 21.3713 42.7915 21.2444 42.8434C21.1176 42.8953 21.0023 42.9719 20.9054 43.0688C20.8085 43.1658 20.7318 43.281 20.6799 43.4079C20.628 43.5347 20.6019 43.6707 20.6031 43.8077C20.6043 43.9448 20.6328 44.0802 20.6869 44.2062C20.741 44.3321 20.8196 44.446 20.9182 44.5412L24.5693 48.1913L22.3355 50.4251L20.145 48.2357C19.9504 48.0476 19.6896 47.9436 19.419 47.9459C19.1483 47.9483 18.8894 48.0569 18.698 48.2482C18.5066 48.4396 18.3981 48.6985 18.3957 48.9692C18.3934 49.2398 18.4974 49.5006 18.6854 49.6953L20.8759 51.8857L18.641 54.1195L14.99 50.4705C14.7964 50.2768 14.5339 50.1679 14.26 50.1678C13.9862 50.1677 13.7236 50.2764 13.5299 50.47C13.3362 50.6635 13.2273 50.9261 13.2272 51.1999C13.2271 51.4738 13.3358 51.7364 13.5293 51.9301L17.1794 55.5791L14.9446 57.8139L12.7552 55.6235C12.5613 55.4299 12.2985 55.3213 12.0246 55.3215C11.7507 55.3217 11.4881 55.4307 11.2945 55.6245C11.101 55.8184 10.9923 56.0811 10.9925 56.3551C10.9927 56.629 11.1017 56.8916 11.2956 57.0852L13.485 59.2746L11.2532 61.5073L2.49252 52.7497L52.7497 2.49252L61.5073 11.2532L59.2735 13.485L57.0852 11.2956C56.9893 11.1996 56.8755 11.1236 56.7503 11.0716C56.625 11.0197 56.4908 10.9929 56.3552 10.9929C56.2196 10.9928 56.0854 11.0195 55.9601 11.0713C55.8348 11.1232 55.7209 11.1992 55.625 11.295C55.5291 11.3909 55.453 11.5047 55.4011 11.6299C55.3492 11.7552 55.3224 11.8894 55.3224 12.025C55.3223 12.1606 55.349 12.2948 55.4008 12.4201C55.4527 12.5454 55.5287 12.6592 55.6245 12.7552L57.815 14.9446L55.5801 17.1794L51.9311 13.5293C51.7374 13.3358 51.4748 13.2271 51.201 13.2272C50.9271 13.2273 50.6646 13.3362 50.471 13.5299C50.2775 13.7236 50.1688 13.9862 50.1689 14.26C50.169 14.5339 50.2778 14.7964 50.4715 14.99L54.1205 18.639L51.8857 20.8738L49.6953 18.6854C49.5006 18.4974 49.2398 18.3934 48.9692 18.3957C48.6985 18.3981 48.4396 18.5066 48.2482 18.698C48.0569 18.8894 47.9483 19.1483 47.9459 19.419C47.9436 19.6896 48.0476 19.9504 48.2357 20.145L50.4251 22.3355L48.1913 24.5693L44.5412 20.9203C44.446 20.8217 44.3321 20.743 44.2062 20.6889C44.0802 20.6348 43.9448 20.6064 43.8077 20.6052C43.6707 20.604 43.5347 20.6301 43.4079 20.682C43.281 20.7339 43.1658 20.8105 43.0688 20.9075C42.9719 21.0044 42.8953 21.1196 42.8434 21.2465C42.7915 21.3734 42.7654 21.5093 42.7666 21.6463C42.7677 21.7834 42.7962 21.9189 42.8503 22.0448C42.9044 22.1707 42.9831 22.2846 43.0816 22.3799L46.7317 26.0289L44.4979 28.2637L42.3075 26.0733C42.1128 25.8852 41.852 25.7812 41.5814 25.7835C41.3107 25.7859 41.0518 25.8944 40.8604 26.0858C40.669 26.2772 40.5605 26.5361 40.5581 26.8068C40.5558 27.0774 40.6598 27.3382 40.8479 27.5329L43.0373 29.7233L40.8035 31.9571L37.1534 28.306C36.9587 28.118 36.698 28.0139 36.4273 28.0163C36.1567 28.0186 35.8978 28.1272 35.7064 28.3186C35.515 28.51 35.4065 28.7689 35.4041 29.0395C35.4017 29.3102 35.5058 29.5709 35.6938 29.7656L39.3439 33.4156L37.109 35.6494L34.9196 33.46C34.725 33.272 34.4642 33.168 34.1936 33.1703C33.9229 33.1727 33.664 33.2812 33.4726 33.4726C33.2812 33.664 33.1727 33.9229 33.1703 34.1936C33.168 34.4642 33.272 34.725 33.46 34.9196L35.6494 37.109L33.4156 39.3439L29.7656 35.6938ZM47.639 54.9391L34.1898 41.4889L35.6494 40.0293L49.0997 53.4785L47.639 54.9391ZM49.4465 56.0529L56.0529 49.4465L59.1187 56.6L56.6041 59.1146L49.4465 56.0529ZM58.6428 59.9951L59.9909 58.647L61.0077 61.0077L58.6428 59.9951Z"/>
</mask>
<path d="M57.3474 47.2323C57.2956 47.1117 57.2213 47.002 57.1285 46.9092L42.9485 32.7302L63.6967 11.982C63.8902 11.7884 63.999 11.5259 63.999 11.2522C63.999 10.9785 63.8902 10.716 63.6967 10.5224L53.4774 0.303116C53.2839 0.109599 53.0214 0.000886972 52.7476 0.000886972C52.4739 0.000886972 52.2114 0.109599 52.0178 0.303116L31.2696 21.0514L11.4287 1.20943C11.0453 0.825996 10.5901 0.521837 10.0891 0.314322C9.58818 0.106807 9.05124 0 8.50899 0C7.96675 0 7.42981 0.106807 6.92884 0.314322C6.42788 0.521837 5.97269 0.825996 5.58927 1.20943L1.20943 5.58927C0.825996 5.97269 0.521837 6.42788 0.314322 6.92884C0.106807 7.42981 0 7.96675 0 8.50899C0 9.05124 0.106807 9.58818 0.314322 10.0891C0.521837 10.5901 0.825996 11.0453 1.20943 11.4287L21.0514 31.2696L0.303116 52.0178C0.109599 52.2114 0.000886972 52.4739 0.000886972 52.7476C0.000886972 53.0214 0.109599 53.2839 0.303116 53.4774L10.5224 63.6967C10.716 63.8902 10.9785 63.999 11.2522 63.999C11.5259 63.999 11.7884 63.8902 11.982 63.6967L32.7302 42.9485L46.9092 57.1285C47.002 57.2213 47.1117 57.2956 47.2323 57.3474L62.5612 63.9166C62.7509 63.9978 62.9605 64.0204 63.163 63.9814C63.3656 63.9423 63.5518 63.8435 63.6977 63.6977C63.8435 63.5518 63.9423 63.3656 63.9814 63.163C64.0204 62.9605 63.9978 62.7509 63.9166 62.5612L57.3474 47.2323ZM54.9391 47.639L53.4785 49.0997L40.0293 35.6494L41.4889 34.1898L54.9391 47.639ZM52.0189 50.5593L50.5593 52.0189L37.109 38.5686L38.5686 37.109L52.0189 50.5593ZM29.81 22.511L28.3504 23.9706L16.5373 12.1585L17.998 10.6979L29.81 22.511ZM26.8908 25.4302L25.4302 26.8908L13.6181 15.0777L15.0777 13.6181L26.8908 25.4302ZM2.66903 9.96808C2.282 9.58093 2.06458 9.05591 2.06458 8.50848C2.06458 7.96105 2.282 7.43603 2.66903 7.04887L7.04887 2.66903C7.43603 2.282 7.96105 2.06458 8.50848 2.06458C9.05591 2.06458 9.58093 2.282 9.96808 2.66903L12.8883 5.58927L5.58927 12.8883L2.66903 9.96808ZM7.04887 14.35L14.35 7.04887L16.5394 9.23828L9.23828 16.5373L7.04887 14.35ZM10.6989 18L12.1585 16.5394L23.9706 28.3504L22.511 29.81L10.6989 18ZM29.7656 35.6938C29.5709 35.5058 29.3102 35.4017 29.0395 35.4041C28.7689 35.4065 28.51 35.515 28.3186 35.7064C28.1272 35.8978 28.0186 36.1567 28.0163 36.4273C28.0139 36.698 28.118 36.9587 28.306 37.1534L31.955 40.8035L29.7212 43.0373L27.5308 40.8479C27.3361 40.6598 27.0754 40.5558 26.8047 40.5581C26.5341 40.5605 26.2752 40.669 26.0838 40.8604C25.8924 41.0518 25.7838 41.3107 25.7815 41.5814C25.7791 41.852 25.8832 42.1128 26.0712 42.3075L28.2616 44.4979L26.0268 46.7317L22.3778 43.0816C22.2826 42.9831 22.1687 42.9044 22.0427 42.8503C21.9168 42.7962 21.7813 42.7677 21.6443 42.7666C21.5072 42.7654 21.3713 42.7915 21.2444 42.8434C21.1176 42.8953 21.0023 42.9719 20.9054 43.0688C20.8085 43.1658 20.7318 43.281 20.6799 43.4079C20.628 43.5347 20.6019 43.6707 20.6031 43.8077C20.6043 43.9448 20.6328 44.0802 20.6869 44.2062C20.741 44.3321 20.8196 44.446 20.9182 44.5412L24.5693 48.1913L22.3355 50.4251L20.145 48.2357C19.9504 48.0476 19.6896 47.9436 19.419 47.9459C19.1483 47.9483 18.8894 48.0569 18.698 48.2482C18.5066 48.4396 18.3981 48.6985 18.3957 48.9692C18.3934 49.2398 18.4974 49.5006 18.6854 49.6953L20.8759 51.8857L18.641 54.1195L14.99 50.4705C14.7964 50.2768 14.5339 50.1679 14.26 50.1678C13.9862 50.1677 13.7236 50.2764 13.5299 50.47C13.3362 50.6635 13.2273 50.9261 13.2272 51.1999C13.2271 51.4738 13.3358 51.7364 13.5293 51.9301L17.1794 55.5791L14.9446 57.8139L12.7552 55.6235C12.5613 55.4299 12.2985 55.3213 12.0246 55.3215C11.7507 55.3217 11.4881 55.4307 11.2945 55.6245C11.101 55.8184 10.9923 56.0811 10.9925 56.3551C10.9927 56.629 11.1017 56.8916 11.2956 57.0852L13.485 59.2746L11.2532 61.5073L2.49252 52.7497L52.7497 2.49252L61.5073 11.2532L59.2735 13.485L57.0852 11.2956C56.9893 11.1996 56.8755 11.1236 56.7503 11.0716C56.625 11.0197 56.4908 10.9929 56.3552 10.9929C56.2196 10.9928 56.0854 11.0195 55.9601 11.0713C55.8348 11.1232 55.7209 11.1992 55.625 11.295C55.5291 11.3909 55.453 11.5047 55.4011 11.6299C55.3492 11.7552 55.3224 11.8894 55.3224 12.025C55.3223 12.1606 55.349 12.2948 55.4008 12.4201C55.4527 12.5454 55.5287 12.6592 55.6245 12.7552L57.815 14.9446L55.5801 17.1794L51.9311 13.5293C51.7374 13.3358 51.4748 13.2271 51.201 13.2272C50.9271 13.2273 50.6646 13.3362 50.471 13.5299C50.2775 13.7236 50.1688 13.9862 50.1689 14.26C50.169 14.5339 50.2778 14.7964 50.4715 14.99L54.1205 18.639L51.8857 20.8738L49.6953 18.6854C49.5006 18.4974 49.2398 18.3934 48.9692 18.3957C48.6985 18.3981 48.4396 18.5066 48.2482 18.698C48.0569 18.8894 47.9483 19.1483 47.9459 19.419C47.9436 19.6896 48.0476 19.9504 48.2357 20.145L50.4251 22.3355L48.1913 24.5693L44.5412 20.9203C44.446 20.8217 44.3321 20.743 44.2062 20.6889C44.0802 20.6348 43.9448 20.6064 43.8077 20.6052C43.6707 20.604 43.5347 20.6301 43.4079 20.682C43.281 20.7339 43.1658 20.8105 43.0688 20.9075C42.9719 21.0044 42.8953 21.1196 42.8434 21.2465C42.7915 21.3734 42.7654 21.5093 42.7666 21.6463C42.7677 21.7834 42.7962 21.9189 42.8503 22.0448C42.9044 22.1707 42.9831 22.2846 43.0816 22.3799L46.7317 26.0289L44.4979 28.2637L42.3075 26.0733C42.1128 25.8852 41.852 25.7812 41.5814 25.7835C41.3107 25.7859 41.0518 25.8944 40.8604 26.0858C40.669 26.2772 40.5605 26.5361 40.5581 26.8068C40.5558 27.0774 40.6598 27.3382 40.8479 27.5329L43.0373 29.7233L40.8035 31.9571L37.1534 28.306C36.9587 28.118 36.698 28.0139 36.4273 28.0163C36.1567 28.0186 35.8978 28.1272 35.7064 28.3186C35.515 28.51 35.4065 28.7689 35.4041 29.0395C35.4017 29.3102 35.5058 29.5709 35.6938 29.7656L39.3439 33.4156L37.109 35.6494L34.9196 33.46C34.725 33.272 34.4642 33.168 34.1936 33.1703C33.9229 33.1727 33.664 33.2812 33.4726 33.4726C33.2812 33.664 33.1727 33.9229 33.1703 34.1936C33.168 34.4642 33.272 34.725 33.46 34.9196L35.6494 37.109L33.4156 39.3439L29.7656 35.6938ZM47.639 54.9391L34.1898 41.4889L35.6494 40.0293L49.0997 53.4785L47.639 54.9391ZM49.4465 56.0529L56.0529 49.4465L59.1187 56.6L56.6041 59.1146L49.4465 56.0529ZM58.6428 59.9951L59.9909 58.647L61.0077 61.0077L58.6428 59.9951Z" fill="#D8AB7A" stroke="#D8AB7A" stroke-width="2.4" mask="url(#path-1-inside-1_193_10367)"/>
</svg>
