<svg width="40" height="40" viewBox="0 0 40 40" fill="none" xmlns="http://www.w3.org/2000/svg">
<rect width="40" height="40" fill="#D8AB7A"/>
<path d="M24.9096 9.40566L26.7184 11.3436L23.876 14.186C23.3592 14.7028 23.3592 15.478 23.876 15.9948C24.3928 16.5116 25.168 16.5116 25.6848 15.9948L28.5271 13.1524L30.4651 14.9612C30.9819 15.478 31.6279 15.0904 31.6279 14.5736V9.01807C31.6279 8.63047 31.3695 8.37207 30.9819 8.37207H25.4264C24.9096 8.37207 24.522 9.01807 24.9096 9.40566ZM9.40569 14.9612L11.2145 13.1524L14.0569 15.9948C14.5737 16.5116 15.3488 16.5116 15.8656 15.9948C16.3824 15.478 16.3824 14.7028 15.8656 14.186L13.1525 11.3436L14.9612 9.40566C15.478 9.01807 15.0904 8.37207 14.5737 8.37207H9.0181C8.6305 8.37207 8.3721 8.63047 8.3721 9.01807V14.5736C8.3721 15.0904 9.0181 15.478 9.40569 14.9612ZM14.9612 30.4651L13.0233 28.6563L15.8656 25.8139C16.3824 25.2971 16.3824 24.5219 15.8656 24.0051C15.3488 23.4884 14.5737 23.4884 14.0569 24.0051L11.2145 26.8475L9.27649 25.0387C9.0181 24.5219 8.3721 24.9095 8.3721 25.4263V30.9819C8.3721 31.3695 8.6305 31.6279 9.0181 31.6279H14.5737C15.0904 31.6279 15.478 30.9819 14.9612 30.4651ZM30.5943 24.9095L28.6563 26.7183L25.814 23.8759C25.2972 23.3592 24.522 23.3592 24.0052 23.8759C23.4884 24.3927 23.4884 25.1679 24.0052 25.6847L26.8476 28.5271L25.0388 30.4651C24.6512 30.8527 24.9096 31.6279 25.5556 31.6279H31.1111C31.4987 31.6279 31.7571 31.3695 31.7571 30.9819V25.4263C31.6279 24.9095 30.9819 24.5219 30.5943 24.9095Z" fill="white"/>
</svg>
