<svg width="52" height="34" viewBox="0 0 52 34" fill="none" xmlns="http://www.w3.org/2000/svg">
<mask id="path-1-outside-1_193_10342" maskUnits="userSpaceOnUse" x="-1" y="-2.00049" width="54" height="37" fill="black">
<rect fill="white" x="-1" y="-2.00049" width="54" height="37"/>
<path d="M23.082 16.9375C23.082 22.5479 22.1592 26.7007 20.3135 29.396C18.4824 32.0913 15.6553 33.439 11.832 33.439C8.12598 33.439 5.32812 32.0474 3.43848 29.2642C1.56348 26.481 0.625977 22.3721 0.625977 16.9375C0.625977 11.2686 1.5415 7.09375 3.37256 4.41309C5.20361 1.71777 8.02344 0.370117 11.832 0.370117C15.5381 0.370117 18.3359 1.77637 20.2256 4.58887C22.1299 7.40137 23.082 11.5176 23.082 16.9375ZM7.37158 16.9375C7.37158 20.8779 7.7085 23.7051 8.38232 25.4189C9.0708 27.1182 10.2207 27.9678 11.832 27.9678C13.4141 27.9678 14.5566 27.1035 15.2598 25.375C15.9629 23.6465 16.3145 20.834 16.3145 16.9375C16.3145 12.9971 15.9556 10.1699 15.2378 8.45605C14.5347 6.72754 13.3994 5.86328 11.832 5.86328C10.2354 5.86328 9.09277 6.72754 8.4043 8.45605C7.71582 10.1699 7.37158 12.9971 7.37158 16.9375ZM40.8992 12.4771C44.0047 12.4771 46.4729 13.3486 48.304 15.0918C50.1497 16.835 51.0726 19.2227 51.0726 22.2549C51.0726 25.8438 49.9666 28.605 47.7547 30.5386C45.5428 32.4722 42.3787 33.439 38.2625 33.439C34.6883 33.439 31.8025 32.8604 29.6053 31.7031V25.8364C30.7625 26.4517 32.1102 26.957 33.6482 27.3525C35.1863 27.7334 36.6438 27.9238 38.0208 27.9238C42.1663 27.9238 44.2391 26.2246 44.2391 22.8262C44.2391 19.5889 42.0931 17.9702 37.8011 17.9702C37.0247 17.9702 36.1678 18.0508 35.2303 18.2119C34.2928 18.3584 33.5311 18.5195 32.9451 18.6953L30.2425 17.2451L31.451 0.875488H48.8753V6.63232H37.4056L36.8123 12.9385L37.5813 12.7847C38.4749 12.5796 39.5809 12.4771 40.8992 12.4771Z"/>
</mask>
<path d="M20.3135 29.396L19.0758 28.5485L19.0727 28.5531L20.3135 29.396ZM3.43848 29.2642L2.19444 30.1023L2.19748 30.1067L3.43848 29.2642ZM3.37256 4.41309L4.61119 5.25914L4.61332 5.256L3.37256 4.41309ZM20.2256 4.58887L18.9805 5.42541L18.9835 5.42985L20.2256 4.58887ZM8.38232 25.4189L6.98634 25.9678L6.98918 25.975L6.9921 25.9822L8.38232 25.4189ZM15.2378 8.45605L13.8483 9.02125L13.8513 9.02839L13.8542 9.0355L15.2378 8.45605ZM8.4043 8.45605L9.7962 9.01519L9.79782 9.0111L8.4043 8.45605ZM21.582 16.9375C21.582 22.4384 20.667 26.2249 19.0758 28.5485L21.5511 30.2435C23.6514 27.1764 24.582 22.6573 24.582 16.9375H21.582ZM19.0727 28.5531C17.5724 30.7615 15.2577 31.939 11.832 31.939V34.939C16.0529 34.939 19.3924 33.4211 21.5542 30.2389L19.0727 28.5531ZM11.832 31.939C8.56364 31.939 6.25815 30.7468 4.67947 28.4216L2.19748 30.1067C4.3981 33.348 7.68832 34.939 11.832 34.939V31.939ZM4.68251 28.4261C3.04858 26.0007 2.12598 22.2419 2.12598 16.9375H-0.874023C-0.874023 22.5023 0.0783749 26.9612 2.19445 30.1022L4.68251 28.4261ZM2.12598 16.9375C2.12598 11.3716 3.03578 7.56553 4.61118 5.25914L2.13393 3.56703C0.0472264 6.62197 -0.874023 11.1655 -0.874023 16.9375H2.12598ZM4.61332 5.256C6.11481 3.04582 8.42348 1.87012 11.832 1.87012V-1.12988C7.62339 -1.12988 4.29242 0.389731 2.13179 3.57017L4.61332 5.256ZM11.832 1.87012C15.0937 1.87012 17.399 3.07148 18.9805 5.4254L21.4707 3.75233C19.2729 0.481253 15.9824 -1.12988 11.832 -1.12988V1.87012ZM18.9835 5.42985C20.6468 7.88641 21.582 11.6537 21.582 16.9375H24.582C24.582 11.3815 23.613 6.91632 21.4677 3.74788L18.9835 5.42985ZM5.87158 16.9375C5.87158 20.9007 6.20193 23.9727 6.98634 25.9678L9.77831 24.8701C9.21506 23.4375 8.87158 20.8551 8.87158 16.9375H5.87158ZM6.9921 25.9822C7.4113 27.0168 8.01776 27.9075 8.86974 28.537C9.73507 29.1763 10.7481 29.4678 11.832 29.4678V26.4678C11.3046 26.4678 10.937 26.3344 10.6525 26.1241C10.3546 25.904 10.0418 25.5203 9.77255 24.8557L6.9921 25.9822ZM11.832 29.4678C12.9137 29.4678 13.9213 29.1657 14.7804 28.5159C15.6229 27.8786 16.226 26.9807 16.6492 25.9402L13.8703 24.8098C13.5904 25.4979 13.2707 25.8963 12.9706 26.1233C12.6871 26.3377 12.3323 26.4678 11.832 26.4678V29.4678ZM16.6492 25.9402C17.4689 23.9252 17.8145 20.863 17.8145 16.9375H14.8145C14.8145 20.805 14.4569 23.3677 13.8703 24.8098L16.6492 25.9402ZM17.8145 16.9375C17.8145 12.9713 17.4625 9.88514 16.6214 7.87661L13.8542 9.0355C14.4486 10.4547 14.8145 13.0229 14.8145 16.9375H17.8145ZM16.6272 7.89086C16.2049 6.85258 15.605 5.95545 14.7676 5.31797C13.9128 4.66724 12.9098 4.36328 11.832 4.36328V7.36328C12.3217 7.36328 12.6699 7.49145 12.9504 7.70498C13.2483 7.93175 13.5676 8.33102 13.8483 9.02125L16.6272 7.89086ZM11.832 4.36328C10.7464 4.36328 9.73424 4.66348 8.87269 5.31517C8.02695 5.95489 7.42667 6.85684 7.01077 7.90101L9.79782 9.0111C10.0704 8.32675 10.3856 7.93232 10.6825 7.70778C10.9635 7.49521 11.321 7.36328 11.832 7.36328V4.36328ZM7.0124 7.89692C6.20911 9.89661 5.87158 12.9733 5.87158 16.9375H8.87158C8.87158 13.0209 9.22253 10.4432 9.79619 9.01519L7.0124 7.89692ZM48.304 15.0918L47.2697 16.1782L47.2741 16.1823L48.304 15.0918ZM29.6053 31.7031H28.1053V32.6084L28.9063 33.0303L29.6053 31.7031ZM29.6053 25.8364L30.3094 24.512L28.1053 23.3401V25.8364H29.6053ZM33.6482 27.3525L33.2747 28.8053L33.2877 28.8086L33.6482 27.3525ZM35.2303 18.2119L35.4618 19.6939L35.4731 19.6922L35.4844 19.6902L35.2303 18.2119ZM32.9451 18.6953L32.2359 20.0171L32.7822 20.3102L33.3761 20.1321L32.9451 18.6953ZM30.2425 17.2451L28.7466 17.1347L28.6748 18.1062L29.5333 18.5669L30.2425 17.2451ZM31.451 0.875488V-0.624512H30.0576L29.955 0.765051L31.451 0.875488ZM48.8753 0.875488H50.3753V-0.624512H48.8753V0.875488ZM48.8753 6.63232V8.13232H50.3753V6.63232H48.8753ZM37.4056 6.63232V5.13232H36.0401L35.9122 6.49183L37.4056 6.63232ZM36.8123 12.9385L35.3189 12.798L35.1301 14.8046L37.1065 14.4093L36.8123 12.9385ZM37.5813 12.7847L37.8755 14.2555L37.8963 14.2514L37.9169 14.2467L37.5813 12.7847ZM40.8992 13.9771C43.7123 13.9771 45.7782 14.7582 47.2697 16.1782L49.3383 14.0054C47.1677 11.939 44.297 10.9771 40.8992 10.9771V13.9771ZM47.2741 16.1823C48.762 17.5876 49.5726 19.5486 49.5726 22.2549H52.5726C52.5726 18.8967 51.5374 16.0823 49.3339 14.0013L47.2741 16.1823ZM49.5726 22.2549C49.5726 25.5153 48.5825 27.8226 46.7675 29.4092L48.7419 31.6679C51.3508 29.3873 52.5726 26.1722 52.5726 22.2549H49.5726ZM46.7675 29.4092C44.9212 31.0232 42.1605 31.939 38.2625 31.939V34.939C42.5969 34.939 46.1644 33.9211 48.7419 31.6679L46.7675 29.4092ZM38.2625 31.939C34.832 31.939 32.2122 31.3808 30.3043 30.3759L28.9063 33.0303C31.3928 34.3399 34.5446 34.939 38.2625 34.939V31.939ZM31.1053 31.7031V25.8364H28.1053V31.7031H31.1053ZM28.9011 27.1609C30.1824 27.8421 31.645 28.3862 33.2747 28.8053L34.0218 25.8998C32.5753 25.5278 31.3426 25.0613 30.3094 24.512L28.9011 27.1609ZM33.2877 28.8086C34.9264 29.2143 36.5057 29.4238 38.0208 29.4238V26.4238C36.782 26.4238 35.4462 26.2524 34.0088 25.8965L33.2877 28.8086ZM38.0208 29.4238C40.2604 29.4238 42.2187 28.9709 43.6355 27.8094C45.1093 26.6012 45.7391 24.844 45.7391 22.8262H42.7391C42.7391 24.2068 42.3325 24.9984 41.7335 25.4894C41.0775 26.0272 39.9267 26.4238 38.0208 26.4238V29.4238ZM45.7391 22.8262C45.7391 20.8447 45.0601 19.1386 43.5328 17.9867C42.0852 16.8948 40.0926 16.4702 37.8011 16.4702V19.4702C39.8015 19.4702 41.0279 19.855 41.7263 20.3817C42.345 20.8484 42.7391 21.5703 42.7391 22.8262H45.7391ZM37.8011 16.4702C36.9231 16.4702 35.9797 16.5611 34.9762 16.7336L35.4844 19.6902C36.3559 19.5404 37.1263 19.4702 37.8011 19.4702V16.4702ZM34.9987 16.7299C34.0262 16.8819 33.1907 17.0556 32.5141 17.2586L33.3761 20.1321C33.8714 19.9835 34.5594 19.8349 35.4618 19.6939L34.9987 16.7299ZM33.6543 17.3736L30.9517 15.9234L29.5333 18.5669L32.2359 20.0171L33.6543 17.3736ZM31.7384 17.3556L32.9469 0.985926L29.955 0.765051L28.7466 17.1347L31.7384 17.3556ZM31.451 2.37549H48.8753V-0.624512H31.451V2.37549ZM47.3753 0.875488V6.63232H50.3753V0.875488H47.3753ZM48.8753 5.13232H37.4056V8.13232H48.8753V5.13232ZM35.9122 6.49183L35.3189 12.798L38.3057 13.079L38.899 6.77282L35.9122 6.49183ZM37.1065 14.4093L37.8755 14.2555L37.2872 11.3138L36.5181 11.4676L37.1065 14.4093ZM37.9169 14.2467C38.664 14.0752 39.6491 13.9771 40.8992 13.9771V10.9771C39.5126 10.9771 38.2858 11.084 37.2458 11.3227L37.9169 14.2467Z" fill="white" fill-opacity="0.25" mask="url(#path-1-outside-1_193_10342)"/>
</svg>
