<svg width="52" height="34" viewBox="0 0 52 34" fill="none" xmlns="http://www.w3.org/2000/svg">
<g opacity="0.25">
<mask id="path-1-outside-1_193_10370" maskUnits="userSpaceOnUse" x="-1" y="-2" width="55" height="37" fill="black">
<rect fill="white" x="-1" y="-2" width="55" height="37"/>
<path d="M23.082 16.938C23.082 22.5483 22.1592 26.7012 20.3135 29.3965C18.4824 32.0918 15.6553 33.4395 11.832 33.4395C8.12598 33.4395 5.32812 32.0479 3.43848 29.2646C1.56348 26.4814 0.625977 22.3726 0.625977 16.938C0.625977 11.269 1.5415 7.09424 3.37256 4.41357C5.20361 1.71826 8.02344 0.370605 11.832 0.370605C15.5381 0.370605 18.3359 1.77686 20.2256 4.58936C22.1299 7.40186 23.082 11.5181 23.082 16.938ZM7.37158 16.938C7.37158 20.8784 7.7085 23.7056 8.38232 25.4194C9.0708 27.1187 10.2207 27.9683 11.832 27.9683C13.4141 27.9683 14.5566 27.104 15.2598 25.3755C15.9629 23.647 16.3145 20.8345 16.3145 16.938C16.3145 12.9976 15.9556 10.1704 15.2378 8.45654C14.5347 6.72803 13.3994 5.86377 11.832 5.86377C10.2354 5.86377 9.09277 6.72803 8.4043 8.45654C7.71582 10.1704 7.37158 12.9976 7.37158 16.938ZM51.6658 33H29.2098V28.2759L37.2737 20.124C39.6614 17.6777 41.2215 15.9858 41.9539 15.0483C42.6863 14.0962 43.2137 13.2173 43.5359 12.4116C43.8582 11.606 44.0193 10.771 44.0193 9.90674C44.0193 8.61768 43.6604 7.6582 42.9427 7.02832C42.2396 6.39844 41.2947 6.0835 40.1082 6.0835C38.8631 6.0835 37.6546 6.36914 36.4827 6.94043C35.3108 7.51172 34.0877 8.32471 32.8133 9.37939L29.1219 5.00684C30.7039 3.65918 32.0149 2.70703 33.055 2.15039C34.095 1.59375 35.2303 1.16895 36.4607 0.875977C37.6912 0.568359 39.0682 0.414551 40.5916 0.414551C42.5984 0.414551 44.3709 0.780762 45.909 1.51318C47.4471 2.24561 48.6409 3.271 49.4905 4.58936C50.3401 5.90771 50.7649 7.4165 50.7649 9.11572C50.7649 10.5952 50.5013 11.9868 49.9739 13.2905C49.4612 14.5796 48.6556 15.9053 47.5569 17.2676C46.4729 18.6299 44.554 20.5708 41.8001 23.0903L37.6692 26.9795V27.2871H51.6658V33Z"/>
</mask>
<path d="M20.3135 29.3965L19.0758 28.549L19.0727 28.5536L20.3135 29.3965ZM3.43848 29.2646L2.19444 30.1027L2.19748 30.1072L3.43848 29.2646ZM3.37256 4.41357L4.61119 5.25963L4.61332 5.25649L3.37256 4.41357ZM20.2256 4.58936L18.9805 5.4259L18.9835 5.43034L20.2256 4.58936ZM8.38232 25.4194L6.98634 25.9683L6.98918 25.9755L6.9921 25.9827L8.38232 25.4194ZM15.2378 8.45654L13.8483 9.02174L13.8513 9.02888L13.8542 9.03598L15.2378 8.45654ZM8.4043 8.45654L9.7962 9.01568L9.79782 9.01159L8.4043 8.45654ZM21.582 16.938C21.582 22.4389 20.667 26.2254 19.0758 28.549L21.5511 30.244C23.6514 27.1769 24.582 22.6578 24.582 16.938H21.582ZM19.0727 28.5536C17.5724 30.762 15.2577 31.9395 11.832 31.9395V34.9395C16.0529 34.9395 19.3924 33.4216 21.5542 30.2394L19.0727 28.5536ZM11.832 31.9395C8.56364 31.9395 6.25815 30.7473 4.67947 28.4221L2.19748 30.1072C4.3981 33.3484 7.68832 34.9395 11.832 34.9395V31.9395ZM4.68251 28.4266C3.04858 26.0012 2.12598 22.2424 2.12598 16.938H-0.874023C-0.874023 22.5027 0.0783749 26.9617 2.19444 30.1027L4.68251 28.4266ZM2.12598 16.938C2.12598 11.3721 3.03578 7.56602 4.61118 5.25963L2.13393 3.56752C0.0472264 6.62246 -0.874023 11.166 -0.874023 16.938H2.12598ZM4.61332 5.25649C6.11481 3.0463 8.42348 1.87061 11.832 1.87061V-1.12939C7.62339 -1.12939 4.29242 0.39022 2.13179 3.57066L4.61332 5.25649ZM11.832 1.87061C15.0937 1.87061 17.399 3.07197 18.9805 5.42589L21.4707 3.75282C19.2729 0.481742 15.9824 -1.12939 11.832 -1.12939V1.87061ZM18.9835 5.43034C20.6468 7.8869 21.582 11.6542 21.582 16.938H24.582C24.582 11.382 23.613 6.91681 21.4677 3.74837L18.9835 5.43034ZM5.87158 16.938C5.87158 20.9012 6.20193 23.9731 6.98634 25.9683L9.77831 24.8706C9.21506 23.438 8.87158 20.8556 8.87158 16.938H5.87158ZM6.9921 25.9827C7.4113 27.0173 8.01776 27.908 8.86974 28.5375C9.73507 29.1768 10.7481 29.4683 11.832 29.4683V26.4683C11.3046 26.4683 10.937 26.3349 10.6525 26.1246C10.3546 25.9045 10.0418 25.5208 9.77255 24.8562L6.9921 25.9827ZM11.832 29.4683C12.9137 29.4683 13.9213 29.1662 14.7804 28.5164C15.6229 27.8791 16.226 26.9811 16.6492 25.9407L13.8703 24.8103C13.5904 25.4984 13.2707 25.8968 12.9706 26.1238C12.6871 26.3382 12.3323 26.4683 11.832 26.4683V29.4683ZM16.6492 25.9407C17.4689 23.9257 17.8145 20.8635 17.8145 16.938H14.8145C14.8145 20.8055 14.4569 23.3682 13.8703 24.8103L16.6492 25.9407ZM17.8145 16.938C17.8145 12.9718 17.4625 9.88563 16.6214 7.8771L13.8542 9.03598C14.4486 10.4552 14.8145 13.0234 14.8145 16.938H17.8145ZM16.6272 7.89135C16.2049 6.85306 15.605 5.95594 14.7676 5.31846C13.9128 4.66773 12.9098 4.36377 11.832 4.36377V7.36377C12.3217 7.36377 12.6699 7.49194 12.9504 7.70546C13.2483 7.93224 13.5676 8.33151 13.8483 9.02174L16.6272 7.89135ZM11.832 4.36377C10.7464 4.36377 9.73424 4.66396 8.87269 5.31565C8.02695 5.95538 7.42667 6.85733 7.01077 7.90149L9.79782 9.01159C10.0704 8.32724 10.3856 7.93281 10.6825 7.70827C10.9635 7.4957 11.321 7.36377 11.832 7.36377V4.36377ZM7.0124 7.89741C6.20911 9.89709 5.87158 12.9738 5.87158 16.938H8.87158C8.87158 13.0213 9.22253 10.4437 9.79619 9.01568L7.0124 7.89741ZM51.6658 33V34.5H53.1658V33H51.6658ZM29.2098 33H27.7098V34.5H29.2098V33ZM29.2098 28.2759L28.1434 27.221L27.7098 27.6593V28.2759H29.2098ZM37.2737 20.124L38.3401 21.1789L38.3472 21.1718L37.2737 20.124ZM41.9539 15.0483L43.136 15.9718L43.1428 15.9629L41.9539 15.0483ZM42.9427 7.02832L41.9418 8.14557L41.9475 8.1507L41.9533 8.15576L42.9427 7.02832ZM32.8133 9.37939L31.6671 10.347L32.6253 11.482L33.7696 10.535L32.8133 9.37939ZM29.1219 5.00684L28.1492 3.86497L27.0124 4.83336L27.9757 5.97446L29.1219 5.00684ZM36.4607 0.875977L36.8082 2.33519L36.8164 2.33323L36.8245 2.33119L36.4607 0.875977ZM49.9739 13.2905L48.5834 12.728L48.5801 12.7362L49.9739 13.2905ZM47.5569 17.2676L46.3893 16.3259L46.3832 16.3336L47.5569 17.2676ZM41.8001 23.0903L40.7876 21.9836L40.7797 21.9909L40.7719 21.9982L41.8001 23.0903ZM37.6692 26.9795L36.641 25.8874L36.1692 26.3315V26.9795H37.6692ZM37.6692 27.2871H36.1692V28.7871H37.6692V27.2871ZM51.6658 27.2871H53.1658V25.7871H51.6658V27.2871ZM51.6658 31.5H29.2098V34.5H51.6658V31.5ZM30.7098 33V28.2759H27.7098V33H30.7098ZM30.2762 29.3308L38.3401 21.1789L36.2073 19.0691L28.1434 27.221L30.2762 29.3308ZM38.3472 21.1718C40.727 18.7335 42.3447 16.9846 43.1359 15.9718L40.7719 14.1249C40.0982 14.9871 38.5958 16.622 36.2003 19.0763L38.3472 21.1718ZM43.1428 15.9629C43.9296 14.9401 44.5398 13.9408 44.9287 12.9687L42.1432 11.8545C41.8875 12.4938 41.4431 13.2523 40.765 14.1338L43.1428 15.9629ZM44.9287 12.9687C45.3215 11.9866 45.5193 10.9626 45.5193 9.90674H42.5193C42.5193 10.5794 42.3949 11.2253 42.1432 11.8545L44.9287 12.9687ZM45.5193 9.90674C45.5193 8.34458 45.0771 6.90575 43.9321 5.90088L41.9533 8.15576C42.2438 8.41065 42.5193 8.89077 42.5193 9.90674H45.5193ZM43.9436 5.91107C42.8999 4.97612 41.5657 4.5835 40.1082 4.5835V7.5835C41.0238 7.5835 41.5792 7.82075 41.9418 8.14557L43.9436 5.91107ZM40.1082 4.5835C38.6245 4.5835 37.1921 4.92584 35.8254 5.59211L37.14 8.28874C38.1171 7.81244 39.1016 7.5835 40.1082 7.5835V4.5835ZM35.8254 5.59211C34.5225 6.22731 33.1998 7.11249 31.8569 8.2238L33.7696 10.535C34.9756 9.53693 36.0992 8.79613 37.14 8.28874L35.8254 5.59211ZM33.9595 8.41177L30.268 4.03921L27.9757 5.97446L31.6671 10.347L33.9595 8.41177ZM30.0946 6.1487C31.6467 4.82656 32.8626 3.9547 33.7628 3.47289L32.3472 0.827894C31.1673 1.45936 29.7612 2.4918 28.1492 3.86497L30.0946 6.1487ZM33.7628 3.47289C34.6812 2.98135 35.6942 2.60042 36.8082 2.33519L36.1133 -0.583233C34.7664 -0.262528 33.5088 0.20615 32.3472 0.827894L33.7628 3.47289ZM36.8245 2.33119C37.9151 2.05856 39.1671 1.91455 40.5916 1.91455V-1.08545C38.9692 -1.08545 37.4674 -0.921846 36.0969 -0.579237L36.8245 2.33119ZM40.5916 1.91455C42.4147 1.91455 43.9602 2.24659 45.2641 2.86747L46.5539 0.158893C44.7816 -0.685071 42.7822 -1.08545 40.5916 -1.08545V1.91455ZM45.2641 2.86747C46.573 3.49077 47.544 4.33795 48.2297 5.40191L50.7514 3.7768C49.7378 2.20404 48.3211 1.00044 46.5539 0.158893L45.2641 2.86747ZM48.2297 5.40191C48.9101 6.45778 49.2649 7.67965 49.2649 9.11572H52.2649C52.2649 7.15336 51.7701 5.35765 50.7514 3.7768L48.2297 5.40191ZM49.2649 9.11572C49.2649 10.4126 49.0347 11.6123 48.5834 12.7281L51.3645 13.853C51.9678 12.3614 52.2649 10.7778 52.2649 9.11572H49.2649ZM48.5801 12.7362C48.1353 13.8546 47.4171 15.0516 46.3893 16.3259L48.7246 18.2092C49.8941 16.759 50.7872 15.3046 51.3677 13.8449L48.5801 12.7362ZM46.3832 16.3336C45.3777 17.5973 43.5336 19.4713 40.7876 21.9836L42.8126 24.197C45.5745 21.6703 47.5682 19.6625 48.7307 18.2015L46.3832 16.3336ZM40.7719 21.9982L36.641 25.8874L38.6975 28.0716L42.8283 24.1825L40.7719 21.9982ZM36.1692 26.9795V27.2871H39.1692V26.9795H36.1692ZM37.6692 28.7871H51.6658V25.7871H37.6692V28.7871ZM50.1658 27.2871V33H53.1658V27.2871H50.1658Z" fill="white" mask="url(#path-1-outside-1_193_10370)"/>
</g>
</svg>
