<svg width="52" height="34" viewBox="0 0 52 34" fill="none" xmlns="http://www.w3.org/2000/svg">
<g opacity="0.25">
<mask id="path-1-outside-1_193_10331" maskUnits="userSpaceOnUse" x="-1" y="-2" width="55" height="37" fill="black">
<rect fill="white" x="-1" y="-2" width="55" height="37"/>
<path d="M23.082 16.938C23.082 22.5483 22.1592 26.7012 20.3135 29.3965C18.4824 32.0918 15.6553 33.4395 11.832 33.4395C8.12598 33.4395 5.32812 32.0479 3.43848 29.2646C1.56348 26.4814 0.625977 22.3726 0.625977 16.938C0.625977 11.269 1.5415 7.09424 3.37256 4.41357C5.20361 1.71826 8.02344 0.370605 11.832 0.370605C15.5381 0.370605 18.3359 1.77686 20.2256 4.58936C22.1299 7.40186 23.082 11.5181 23.082 16.938ZM7.37158 16.938C7.37158 20.8784 7.7085 23.7056 8.38232 25.4194C9.0708 27.1187 10.2207 27.9683 11.832 27.9683C13.4141 27.9683 14.5566 27.104 15.2598 25.3755C15.9629 23.647 16.3145 20.8345 16.3145 16.938C16.3145 12.9976 15.9556 10.1704 15.2378 8.45654C14.5347 6.72803 13.3994 5.86377 11.832 5.86377C10.2354 5.86377 9.09277 6.72803 8.4043 8.45654C7.71582 10.1704 7.37158 12.9976 7.37158 16.938ZM28.99 19.355C28.99 12.9976 30.3304 8.26611 33.011 5.16064C35.7063 2.05518 39.7347 0.502441 45.096 0.502441C46.9271 0.502441 48.3626 0.612305 49.4026 0.832031V6.25928C48.0989 5.96631 46.8099 5.81982 45.5354 5.81982C43.2063 5.81982 41.3021 6.17139 39.8226 6.87451C38.3577 7.57764 37.2591 8.61768 36.5267 9.99463C35.7942 11.3716 35.3621 13.3271 35.2303 15.8613H35.5159C36.9661 13.3711 39.2879 12.126 42.4813 12.126C45.3523 12.126 47.6009 13.0269 49.2269 14.8286C50.8528 16.6304 51.6658 19.1206 51.6658 22.2993C51.6658 25.7271 50.699 28.4443 48.7654 30.4512C46.8318 32.4434 44.1512 33.4395 40.7234 33.4395C38.3504 33.4395 36.2776 32.8901 34.5052 31.7915C32.7474 30.6929 31.3851 29.0889 30.4183 26.9795C29.4661 24.8701 28.99 22.3286 28.99 19.355ZM40.5916 28.0122C42.0418 28.0122 43.1551 27.5288 43.9314 26.562C44.7078 25.5806 45.096 24.189 45.096 22.3872C45.096 20.8198 44.7298 19.5894 43.9974 18.6958C43.2796 17.7876 42.1883 17.3335 40.7234 17.3335C39.3465 17.3335 38.1673 17.7803 37.1858 18.6738C36.219 19.5674 35.7356 20.6074 35.7356 21.7939C35.7356 23.5371 36.1897 25.0093 37.0979 26.2104C38.0208 27.4116 39.1854 28.0122 40.5916 28.0122Z"/>
</mask>
<path d="M20.3135 29.3965L19.0758 28.549L19.0727 28.5536L20.3135 29.3965ZM3.43848 29.2646L2.19444 30.1027L2.19748 30.1072L3.43848 29.2646ZM3.37256 4.41357L4.61119 5.25963L4.61332 5.25649L3.37256 4.41357ZM20.2256 4.58936L18.9805 5.4259L18.9835 5.43034L20.2256 4.58936ZM8.38232 25.4194L6.98634 25.9683L6.98918 25.9755L6.9921 25.9827L8.38232 25.4194ZM15.2378 8.45654L13.8483 9.02174L13.8513 9.02888L13.8542 9.03598L15.2378 8.45654ZM8.4043 8.45654L9.7962 9.01568L9.79782 9.01159L8.4043 8.45654ZM21.582 16.938C21.582 22.4389 20.667 26.2254 19.0758 28.549L21.5511 30.244C23.6514 27.1769 24.582 22.6578 24.582 16.938H21.582ZM19.0727 28.5536C17.5724 30.762 15.2577 31.9395 11.832 31.9395V34.9395C16.0529 34.9395 19.3924 33.4216 21.5542 30.2394L19.0727 28.5536ZM11.832 31.9395C8.56364 31.9395 6.25815 30.7473 4.67947 28.4221L2.19748 30.1072C4.3981 33.3484 7.68832 34.9395 11.832 34.9395V31.9395ZM4.68251 28.4266C3.04858 26.0012 2.12598 22.2424 2.12598 16.938H-0.874023C-0.874023 22.5027 0.0783749 26.9617 2.19444 30.1027L4.68251 28.4266ZM2.12598 16.938C2.12598 11.3721 3.03578 7.56602 4.61118 5.25963L2.13393 3.56752C0.0472264 6.62246 -0.874023 11.166 -0.874023 16.938H2.12598ZM4.61332 5.25649C6.11481 3.0463 8.42348 1.87061 11.832 1.87061V-1.12939C7.62339 -1.12939 4.29242 0.39022 2.13179 3.57066L4.61332 5.25649ZM11.832 1.87061C15.0937 1.87061 17.399 3.07197 18.9805 5.42589L21.4707 3.75282C19.2729 0.481742 15.9824 -1.12939 11.832 -1.12939V1.87061ZM18.9835 5.43034C20.6468 7.8869 21.582 11.6542 21.582 16.938H24.582C24.582 11.382 23.613 6.91681 21.4677 3.74837L18.9835 5.43034ZM5.87158 16.938C5.87158 20.9012 6.20193 23.9731 6.98634 25.9683L9.77831 24.8706C9.21506 23.438 8.87158 20.8556 8.87158 16.938H5.87158ZM6.9921 25.9827C7.4113 27.0173 8.01776 27.908 8.86974 28.5375C9.73507 29.1768 10.7481 29.4683 11.832 29.4683V26.4683C11.3046 26.4683 10.937 26.3349 10.6525 26.1246C10.3546 25.9045 10.0418 25.5208 9.77255 24.8562L6.9921 25.9827ZM11.832 29.4683C12.9137 29.4683 13.9213 29.1662 14.7804 28.5164C15.6229 27.8791 16.226 26.9811 16.6492 25.9407L13.8703 24.8103C13.5904 25.4984 13.2707 25.8968 12.9706 26.1238C12.6871 26.3382 12.3323 26.4683 11.832 26.4683V29.4683ZM16.6492 25.9407C17.4689 23.9257 17.8145 20.8635 17.8145 16.938H14.8145C14.8145 20.8055 14.4569 23.3682 13.8703 24.8103L16.6492 25.9407ZM17.8145 16.938C17.8145 12.9718 17.4625 9.88563 16.6214 7.8771L13.8542 9.03598C14.4486 10.4552 14.8145 13.0234 14.8145 16.938H17.8145ZM16.6272 7.89135C16.2049 6.85306 15.605 5.95594 14.7676 5.31846C13.9128 4.66773 12.9098 4.36377 11.832 4.36377V7.36377C12.3217 7.36377 12.6699 7.49194 12.9504 7.70546C13.2483 7.93224 13.5676 8.33151 13.8483 9.02174L16.6272 7.89135ZM11.832 4.36377C10.7464 4.36377 9.73424 4.66396 8.87269 5.31565C8.02695 5.95538 7.42667 6.85733 7.01077 7.90149L9.79782 9.01159C10.0704 8.32724 10.3856 7.93281 10.6825 7.70827C10.9635 7.4957 11.321 7.36377 11.832 7.36377V4.36377ZM7.0124 7.89741C6.20911 9.89709 5.87158 12.9738 5.87158 16.938H8.87158C8.87158 13.0213 9.22253 10.4437 9.79619 9.01568L7.0124 7.89741ZM33.011 5.16064L31.8782 4.17743L31.8756 4.18049L33.011 5.16064ZM49.4026 0.832031H50.9026V-0.384177L49.7127 -0.635574L49.4026 0.832031ZM49.4026 6.25928L49.0738 7.72278L50.9026 8.13376V6.25928H49.4026ZM39.8226 6.87451L39.1787 5.51972L39.1735 5.52223L39.8226 6.87451ZM35.2303 15.8613L33.7323 15.7834L33.6502 17.3613H35.2303V15.8613ZM35.5159 15.8613V17.3613H36.3782L36.8121 16.6162L35.5159 15.8613ZM48.7654 30.4512L49.8418 31.4959L49.8456 31.4919L48.7654 30.4512ZM34.5052 31.7915L33.7102 33.0635L33.7149 33.0665L34.5052 31.7915ZM30.4183 26.9795L29.0511 27.5966L29.0547 27.6045L30.4183 26.9795ZM43.9314 26.562L45.1011 27.5012L45.1079 27.4926L43.9314 26.562ZM43.9974 18.6958L42.8205 19.6259L42.8288 19.6364L42.8373 19.6467L43.9974 18.6958ZM37.1858 18.6738L36.176 17.5646L36.1677 17.5723L37.1858 18.6738ZM37.0979 26.2104L35.9014 27.1151L35.9085 27.1243L37.0979 26.2104ZM30.49 19.355C30.49 13.1685 31.8004 8.85865 34.1465 6.1408L31.8756 4.18049C28.8603 7.67358 27.49 12.8266 27.49 19.355H30.49ZM34.1439 6.14385C36.4734 3.45977 40.0286 2.00244 45.096 2.00244V-0.997559C39.4407 -0.997559 34.9393 0.65058 31.8782 4.17744L34.1439 6.14385ZM45.096 2.00244C46.886 2.00244 48.2018 2.11144 49.0926 2.29964L49.7127 -0.635574C48.5234 -0.886831 46.9681 -0.997559 45.096 -0.997559V2.00244ZM47.9026 0.832031V6.25928H50.9026V0.832031H47.9026ZM49.7315 4.79577C48.3251 4.47972 46.9257 4.31982 45.5354 4.31982V7.31982C46.694 7.31982 47.8728 7.4529 49.0738 7.72278L49.7315 4.79577ZM45.5354 4.31982C43.0711 4.31982 40.9257 4.68945 39.1787 5.51973L40.4664 8.2293C41.6784 7.65332 43.3416 7.31982 45.5354 7.31982V4.31982ZM39.1735 5.52223C37.4331 6.35759 36.0916 7.61846 35.2024 9.29021L37.851 10.699C38.4266 9.61689 39.2823 8.79768 40.4717 8.2268L39.1735 5.52223ZM35.2024 9.29021C34.3221 10.9451 33.8692 13.1514 33.7323 15.7834L36.7282 15.9393C36.855 13.5029 37.2664 11.7981 37.851 10.699L35.2024 9.29021ZM35.2303 17.3613H35.5159V14.3613H35.2303V17.3613ZM36.8121 16.6162C37.9603 14.6446 39.752 13.626 42.4813 13.626V10.626C38.8237 10.626 35.9719 12.0976 34.2197 15.1065L36.8121 16.6162ZM42.4813 13.626C45.0127 13.626 46.824 14.4049 48.1133 15.8336L50.3404 13.8237C48.3777 11.6488 45.6919 10.626 42.4813 10.626V13.626ZM48.1133 15.8336C49.4215 17.2833 50.1658 19.3741 50.1658 22.2993H53.1658C53.1658 18.8671 52.2841 15.9775 50.3404 13.8237L48.1133 15.8336ZM50.1658 22.2993C50.1658 25.4331 49.2905 27.7443 47.6852 29.4104L49.8456 31.4919C52.1075 29.1443 53.1658 26.021 53.1658 22.2993H50.1658ZM47.6891 29.4065C46.1015 31.0421 43.847 31.9395 40.7234 31.9395V34.9395C44.4553 34.9395 47.5621 33.8446 49.8418 31.4959L47.6891 29.4065ZM40.7234 31.9395C38.5902 31.9395 36.7991 31.4486 35.2954 30.5166L33.7149 33.0665C35.7561 34.3317 38.1106 34.9395 40.7234 34.9395V31.9395ZM35.3002 30.5195C33.8201 29.5945 32.6416 28.2302 31.7819 26.3545L29.0547 27.6045C30.1286 29.9475 31.6746 31.7913 33.7102 33.0635L35.3002 30.5195ZM31.7854 26.3624C30.942 24.4939 30.49 22.1741 30.49 19.355H27.49C27.49 22.4831 27.9902 25.2464 29.0511 27.5966L31.7854 26.3624ZM40.5916 29.5122C42.4102 29.5122 43.99 28.8848 45.101 27.5012L42.7619 25.6228C42.3202 26.1728 41.6734 26.5122 40.5916 26.5122V29.5122ZM45.1079 27.4926C46.1686 26.1517 46.596 24.3824 46.596 22.3872H43.596C43.596 23.9956 43.247 25.0094 42.755 25.6314L45.1079 27.4926ZM46.596 22.3872C46.596 20.5965 46.1769 18.9886 45.1575 17.7449L42.8373 19.6467C43.2827 20.1901 43.596 21.0432 43.596 22.3872H46.596ZM45.1742 17.7657C44.0985 16.4046 42.5138 15.8335 40.7234 15.8335V18.8335C41.8627 18.8335 42.4607 19.1706 42.8205 19.6259L45.1742 17.7657ZM40.7234 15.8335C38.9883 15.8335 37.4448 16.4095 36.176 17.5647L38.1957 19.783C38.8897 19.1511 39.7046 18.8335 40.7234 18.8335V15.8335ZM36.1677 17.5723C34.9311 18.7152 34.2356 20.1408 34.2356 21.7939H37.2356C37.2356 21.074 37.507 20.4195 38.204 19.7754L36.1677 17.5723ZM34.2356 21.7939C34.2356 23.8101 34.7663 25.6137 35.9015 27.1151L38.2944 25.3058C37.6132 24.4048 37.2356 23.2641 37.2356 21.7939H34.2356ZM35.9085 27.1243C37.0899 28.6621 38.6793 29.5122 40.5916 29.5122V26.5122C39.6914 26.5122 38.9517 26.1612 38.2874 25.2966L35.9085 27.1243Z" fill="white" mask="url(#path-1-outside-1_193_10331)"/>
</g>
</svg>
