<svg width="53" height="34" viewBox="0 0 53 34" fill="none" xmlns="http://www.w3.org/2000/svg">
<g opacity="0.25">
<mask id="path-1-outside-1_193_10353" maskUnits="userSpaceOnUse" x="-1" y="-2" width="55" height="37" fill="black">
<rect fill="white" x="-1" y="-2" width="55" height="37"/>
<path d="M23.082 16.938C23.082 22.5483 22.1592 26.7012 20.3135 29.3965C18.4824 32.0918 15.6553 33.4395 11.832 33.4395C8.12598 33.4395 5.32812 32.0479 3.43848 29.2646C1.56348 26.4814 0.625977 22.3726 0.625977 16.938C0.625977 11.269 1.5415 7.09424 3.37256 4.41357C5.20361 1.71826 8.02344 0.370605 11.832 0.370605C15.5381 0.370605 18.3359 1.77686 20.2256 4.58936C22.1299 7.40186 23.082 11.5181 23.082 16.938ZM7.37158 16.938C7.37158 20.8784 7.7085 23.7056 8.38232 25.4194C9.0708 27.1187 10.2207 27.9683 11.832 27.9683C13.4141 27.9683 14.5566 27.104 15.2598 25.3755C15.9629 23.647 16.3145 20.8345 16.3145 16.938C16.3145 12.9976 15.9556 10.1704 15.2378 8.45654C14.5347 6.72803 13.3994 5.86377 11.832 5.86377C10.2354 5.86377 9.09277 6.72803 8.4043 8.45654C7.71582 10.1704 7.37158 12.9976 7.37158 16.938ZM52.3909 26.3423H48.5237V33H41.888V26.3423H28.1771V21.6182L42.2615 0.875977H48.5237V21.0688H52.3909V26.3423ZM41.888 21.0688V15.6196C41.888 14.7114 41.9246 13.3931 41.9979 11.6646C42.0711 9.93604 42.1297 8.93262 42.1736 8.6543H41.9979C41.4559 9.85547 40.804 11.0273 40.0423 12.1699L34.1536 21.0688H41.888Z"/>
</mask>
<path d="M20.3135 29.3965L19.0758 28.549L19.0727 28.5536L20.3135 29.3965ZM3.43848 29.2646L2.19444 30.1027L2.19748 30.1072L3.43848 29.2646ZM3.37256 4.41357L4.61119 5.25963L4.61332 5.25649L3.37256 4.41357ZM20.2256 4.58936L18.9805 5.4259L18.9835 5.43034L20.2256 4.58936ZM8.38232 25.4194L6.98634 25.9683L6.98918 25.9755L6.9921 25.9827L8.38232 25.4194ZM15.2378 8.45654L13.8483 9.02174L13.8513 9.02888L13.8542 9.03598L15.2378 8.45654ZM8.4043 8.45654L9.7962 9.01568L9.79782 9.01159L8.4043 8.45654ZM21.582 16.938C21.582 22.4389 20.667 26.2254 19.0758 28.549L21.5511 30.244C23.6514 27.1769 24.582 22.6578 24.582 16.938H21.582ZM19.0727 28.5536C17.5724 30.762 15.2577 31.9395 11.832 31.9395V34.9395C16.0529 34.9395 19.3924 33.4216 21.5542 30.2394L19.0727 28.5536ZM11.832 31.9395C8.56364 31.9395 6.25815 30.7473 4.67947 28.4221L2.19748 30.1072C4.3981 33.3484 7.68832 34.9395 11.832 34.9395V31.9395ZM4.68251 28.4266C3.04858 26.0012 2.12598 22.2424 2.12598 16.938H-0.874023C-0.874023 22.5027 0.0783749 26.9617 2.19444 30.1027L4.68251 28.4266ZM2.12598 16.938C2.12598 11.3721 3.03578 7.56602 4.61118 5.25963L2.13393 3.56752C0.0472264 6.62246 -0.874023 11.166 -0.874023 16.938H2.12598ZM4.61332 5.25649C6.11481 3.0463 8.42348 1.87061 11.832 1.87061V-1.12939C7.62339 -1.12939 4.29242 0.39022 2.13179 3.57066L4.61332 5.25649ZM11.832 1.87061C15.0937 1.87061 17.399 3.07197 18.9805 5.42589L21.4707 3.75282C19.2729 0.481742 15.9824 -1.12939 11.832 -1.12939V1.87061ZM18.9835 5.43034C20.6468 7.8869 21.582 11.6542 21.582 16.938H24.582C24.582 11.382 23.613 6.91681 21.4677 3.74837L18.9835 5.43034ZM5.87158 16.938C5.87158 20.9012 6.20193 23.9731 6.98634 25.9683L9.77831 24.8706C9.21506 23.438 8.87158 20.8556 8.87158 16.938H5.87158ZM6.9921 25.9827C7.4113 27.0173 8.01776 27.908 8.86974 28.5375C9.73507 29.1768 10.7481 29.4683 11.832 29.4683V26.4683C11.3046 26.4683 10.937 26.3349 10.6525 26.1246C10.3546 25.9045 10.0418 25.5208 9.77255 24.8562L6.9921 25.9827ZM11.832 29.4683C12.9137 29.4683 13.9213 29.1662 14.7804 28.5164C15.6229 27.8791 16.226 26.9811 16.6492 25.9407L13.8703 24.8103C13.5904 25.4984 13.2707 25.8968 12.9706 26.1238C12.6871 26.3382 12.3323 26.4683 11.832 26.4683V29.4683ZM16.6492 25.9407C17.4689 23.9257 17.8145 20.8635 17.8145 16.938H14.8145C14.8145 20.8055 14.4569 23.3682 13.8703 24.8103L16.6492 25.9407ZM17.8145 16.938C17.8145 12.9718 17.4625 9.88563 16.6214 7.8771L13.8542 9.03598C14.4486 10.4552 14.8145 13.0234 14.8145 16.938H17.8145ZM16.6272 7.89135C16.2049 6.85306 15.605 5.95594 14.7676 5.31846C13.9128 4.66773 12.9098 4.36377 11.832 4.36377V7.36377C12.3217 7.36377 12.6699 7.49194 12.9504 7.70546C13.2483 7.93224 13.5676 8.33151 13.8483 9.02174L16.6272 7.89135ZM11.832 4.36377C10.7464 4.36377 9.73424 4.66396 8.87269 5.31565C8.02695 5.95538 7.42667 6.85733 7.01077 7.90149L9.79782 9.01159C10.0704 8.32724 10.3856 7.93281 10.6825 7.70827C10.9635 7.4957 11.321 7.36377 11.832 7.36377V4.36377ZM7.0124 7.89741C6.20911 9.89709 5.87158 12.9738 5.87158 16.938H8.87158C8.87158 13.0213 9.22253 10.4437 9.79619 9.01568L7.0124 7.89741ZM52.3909 26.3423V27.8423H53.8909V26.3423H52.3909ZM48.5237 26.3423V24.8423H47.0237V26.3423H48.5237ZM48.5237 33V34.5H50.0237V33H48.5237ZM41.888 33H40.388V34.5H41.888V33ZM41.888 26.3423H43.388V24.8423H41.888V26.3423ZM28.1771 26.3423H26.6771V27.8423H28.1771V26.3423ZM28.1771 21.6182L26.9361 20.7755L26.6771 21.157V21.6182H28.1771ZM42.2615 0.875977V-0.624023H41.4669L41.0206 0.0333387L42.2615 0.875977ZM48.5237 0.875977H50.0237V-0.624023H48.5237V0.875977ZM48.5237 21.0688H47.0237V22.5688H48.5237V21.0688ZM52.3909 21.0688H53.8909V19.5688H52.3909V21.0688ZM41.888 21.0688V22.5688H43.388V21.0688H41.888ZM42.1736 8.6543L43.6553 8.88824L43.9291 7.1543H42.1736V8.6543ZM41.9979 8.6543V7.1543H41.0291L40.6306 8.03736L41.9979 8.6543ZM40.0423 12.1699L38.7942 11.3379L38.7914 11.3422L40.0423 12.1699ZM34.1536 21.0688L32.9027 20.2411L31.3623 22.5688H34.1536V21.0688ZM52.3909 24.8423H48.5237V27.8423H52.3909V24.8423ZM47.0237 26.3423V33H50.0237V26.3423H47.0237ZM48.5237 31.5H41.888V34.5H48.5237V31.5ZM43.388 33V26.3423H40.388V33H43.388ZM41.888 24.8423H28.1771V27.8423H41.888V24.8423ZM29.6771 26.3423V21.6182H26.6771V26.3423H29.6771ZM29.418 22.4608L43.5025 1.71861L41.0206 0.0333387L26.9361 20.7755L29.418 22.4608ZM42.2615 2.37598H48.5237V-0.624023H42.2615V2.37598ZM47.0237 0.875977V21.0688H50.0237V0.875977H47.0237ZM48.5237 22.5688H52.3909V19.5688H48.5237V22.5688ZM50.8909 21.0688V26.3423H53.8909V21.0688H50.8909ZM43.388 21.0688V15.6196H40.388V21.0688H43.388ZM43.388 15.6196C43.388 14.7437 43.4235 13.4507 43.4965 11.7281L40.4992 11.601C40.4257 13.3355 40.388 14.6791 40.388 15.6196H43.388ZM43.4965 11.7281C43.533 10.867 43.5656 10.1931 43.5942 9.70304C43.6085 9.45768 43.6215 9.26392 43.6332 9.11861C43.639 9.04603 43.6441 8.98953 43.6485 8.94721C43.6532 8.90187 43.6557 8.88543 43.6553 8.88824L40.692 8.42035C40.6309 8.80723 40.5701 9.92739 40.4992 11.601L43.4965 11.7281ZM42.1736 7.1543H41.9979V10.1543H42.1736V7.1543ZM40.6306 8.03736C40.1238 9.16062 39.5123 10.2608 38.7942 11.3379L41.2904 13.002C42.0957 11.7939 42.788 10.5503 43.3651 9.27123L40.6306 8.03736ZM38.7914 11.3422L32.9027 20.2411L35.4045 21.8966L41.2932 12.9977L38.7914 11.3422ZM34.1536 22.5688H41.888V19.5688H34.1536V22.5688Z" fill="white" mask="url(#path-1-outside-1_193_10353)"/>
</g>
</svg>
