<svg width="47" height="34" viewBox="0 0 47 34" fill="none" xmlns="http://www.w3.org/2000/svg">
<g opacity="0.25">
<mask id="path-1-outside-1_193_10379" maskUnits="userSpaceOnUse" x="-1" y="-2" width="50" height="37" fill="black">
<rect fill="white" x="-1" y="-2" width="50" height="37"/>
<path d="M23.0301 16.938C23.0301 19.5308 22.825 21.8452 22.4148 23.8813C22.0193 25.9175 21.3748 27.646 20.4813 29.0669C19.6023 30.4878 18.4451 31.5718 17.0096 32.3188C15.574 33.0659 13.8309 33.4395 11.7801 33.4395C9.20195 33.4395 7.08525 32.7876 5.42998 31.4839C3.77471 30.1655 2.55156 28.2759 1.76055 25.8149C0.969532 23.3394 0.574024 20.3804 0.574024 16.938C0.574024 13.4663 0.932911 10.5 1.65068 8.03906C2.38311 5.56348 3.56963 3.6665 5.21025 2.34814C6.85088 1.02979 9.04082 0.370605 11.7801 0.370605C14.3436 0.370605 16.4529 1.02979 18.1082 2.34814C19.7781 3.65186 21.0159 5.5415 21.8216 8.01709C22.6272 10.478 23.0301 13.4517 23.0301 16.938ZM7.31963 16.938C7.31963 19.3843 7.45147 21.4277 7.71514 23.0684C7.99346 24.6943 8.45488 25.9175 9.09941 26.7378C9.74395 27.5581 10.6375 27.9683 11.7801 27.9683C12.908 27.9683 13.7942 27.5654 14.4388 26.7598C15.0979 25.9395 15.5667 24.7163 15.845 23.0903C16.1233 21.4497 16.2625 19.3989 16.2625 16.938C16.2625 14.4917 16.1233 12.4482 15.845 10.8076C15.5667 9.16699 15.0979 7.93652 14.4388 7.11621C13.7942 6.28125 12.908 5.86377 11.7801 5.86377C10.6375 5.86377 9.74395 6.28125 9.09941 7.11621C8.45488 7.93652 7.99346 9.16699 7.71514 10.8076C7.45147 12.4482 7.31963 14.4917 7.31963 16.938ZM46.8889 33H40.0993V14.4111C40.0993 13.8984 40.1066 13.2686 40.1213 12.5215C40.1359 11.7598 40.1579 10.9834 40.1872 10.1924C40.2165 9.38672 40.2458 8.66162 40.2751 8.01709C40.114 8.20752 39.7844 8.53711 39.2863 9.00586C38.8029 9.45996 38.3488 9.87012 37.924 10.2363L34.2326 13.2026L30.9587 9.11572L41.3078 0.875977H46.8889V33Z"/>
</mask>
<path d="M22.4148 23.8813L20.9443 23.5851L20.9424 23.5953L22.4148 23.8813ZM20.4813 29.0669L19.2114 28.2683L19.2056 28.2778L20.4813 29.0669ZM5.42998 31.4839L4.49546 32.6572L4.50187 32.6623L5.42998 31.4839ZM1.76055 25.8149L0.331713 26.2715L0.332505 26.274L1.76055 25.8149ZM1.65068 8.03906L0.212305 7.61351L0.210684 7.61906L1.65068 8.03906ZM18.1082 2.34814L17.1737 3.52147L17.1794 3.52601L17.1851 3.5305L18.1082 2.34814ZM21.8216 8.01709L20.3952 8.48129L20.396 8.48379L21.8216 8.01709ZM7.71514 23.0684L6.23414 23.3064L6.23535 23.3139L6.23664 23.3214L7.71514 23.0684ZM14.4388 26.7598L13.2695 25.8202L13.2675 25.8227L14.4388 26.7598ZM15.845 23.0903L17.3235 23.3434L17.3239 23.3412L15.845 23.0903ZM14.4388 7.11621L13.2514 8.03279L13.2603 8.04438L13.2695 8.0558L14.4388 7.11621ZM9.09941 7.11621L10.2789 8.04298L10.2868 8.03279L9.09941 7.11621ZM7.71514 10.8076L6.23621 10.5567L6.23414 10.5696L7.71514 10.8076ZM21.5301 16.938C21.5301 19.4546 21.3308 21.667 20.9444 23.5851L23.8853 24.1776C24.3192 22.0234 24.5301 19.6069 24.5301 16.938H21.5301ZM20.9424 23.5953C20.5741 25.491 19.9862 27.0365 19.2115 28.2684L21.751 29.8654C22.7634 28.2555 23.4645 26.344 23.8873 24.1674L20.9424 23.5953ZM19.2056 28.2778C18.4639 29.4768 17.505 30.37 16.3171 30.9882L17.702 33.6495C19.3852 32.7735 20.7407 31.4988 21.7569 29.856L19.2056 28.2778ZM16.3171 30.9882C15.145 31.5982 13.6526 31.9395 11.7801 31.9395V34.9395C14.0091 34.9395 16.0031 34.5336 17.702 33.6495L16.3171 30.9882ZM11.7801 31.9395C9.46124 31.9395 7.69387 31.3576 6.35809 30.3055L4.50187 32.6623C6.47664 34.2176 8.94267 34.9395 11.7801 34.9395V31.9395ZM6.36449 30.3106C4.98735 29.2137 3.90934 27.5983 3.18859 25.3559L0.332505 26.274C1.19379 28.9535 2.56207 31.1173 4.49547 32.6572L6.36449 30.3106ZM3.18938 25.3584C2.45799 23.0694 2.07402 20.2725 2.07402 16.938H-0.925976C-0.925976 20.4882 -0.51893 23.6093 0.331715 26.2715L3.18938 25.3584ZM2.07402 16.938C2.07402 13.5618 2.42395 10.745 3.09068 8.45906L0.210684 7.61906C-0.558131 10.255 -0.925976 13.3709 -0.925976 16.938H2.07402ZM3.08905 8.46462C3.75469 6.21475 4.79665 4.6048 6.14984 3.51741L4.27067 1.17888C2.34261 2.72821 1.01152 4.9122 0.212316 7.61351L3.08905 8.46462ZM6.14984 3.51741C7.45294 2.47028 9.27848 1.87061 11.7801 1.87061V-1.12939C8.80316 -1.12939 6.24882 -0.410706 4.27067 1.17888L6.14984 3.51741ZM11.7801 1.87061C14.0782 1.87061 15.8367 2.4566 17.1737 3.52147L19.0427 1.17482C17.0692 -0.397026 14.6089 -1.12939 11.7801 -1.12939V1.87061ZM17.1851 3.5305C18.5704 4.61201 19.6607 6.2243 20.3952 8.48129L23.2479 7.55289C22.3711 4.85871 20.9858 2.69171 19.0313 1.16579L17.1851 3.5305ZM20.396 8.48379C21.1386 10.7521 21.5301 13.559 21.5301 16.938H24.5301C24.5301 13.3443 24.1159 10.204 23.2471 7.55039L20.396 8.48379ZM5.81963 16.938C5.81963 19.4305 5.95343 21.5597 6.23414 23.3064L9.19613 22.8303C8.9495 21.2957 8.81963 19.3381 8.81963 16.938H5.81963ZM6.23664 23.3214C6.53499 25.0644 7.0568 26.566 7.91994 27.6645L10.2789 25.8111C9.85297 25.269 9.45193 24.3242 9.19363 22.8153L6.23664 23.3214ZM7.91994 27.6645C8.8785 28.8845 10.2274 29.4683 11.7801 29.4683V26.4683C11.0476 26.4683 10.6094 26.2317 10.2789 25.8111L7.91994 27.6645ZM11.7801 29.4683C13.3151 29.4683 14.6519 28.8945 15.6101 27.6968L13.2675 25.8227C12.9366 26.2363 12.5009 26.4683 11.7801 26.4683V29.4683ZM15.608 27.6994C16.4929 26.5982 17.0243 25.0914 17.3235 23.3434L14.3665 22.8373C14.1091 24.3412 13.703 25.2807 13.2695 25.8202L15.608 27.6994ZM17.3239 23.3412C17.6212 21.5886 17.7625 19.4472 17.7625 16.938H14.7625C14.7625 19.3507 14.6255 21.3108 14.3661 22.8395L17.3239 23.3412ZM17.7625 16.938C17.7625 14.4429 17.6211 12.3089 17.3239 10.5567L14.3661 11.0585C14.6255 12.5875 14.7625 14.5405 14.7625 16.938H17.7625ZM17.3239 10.5567C17.0253 8.79642 16.4946 7.27994 15.608 6.17662L13.2695 8.0558C13.7013 8.59311 14.1081 9.53756 14.3661 11.0585L17.3239 10.5567ZM15.6262 6.19963C14.6756 4.96818 13.3355 4.36377 11.7801 4.36377V7.36377C12.4805 7.36377 12.9129 7.59432 13.2514 8.03279L15.6262 6.19963ZM11.7801 4.36377C10.2173 4.36377 8.86678 4.9628 7.91203 6.19963L10.2868 8.03279C10.6211 7.5997 11.0577 7.36377 11.7801 7.36377V4.36377ZM7.91994 6.18948C7.05509 7.2902 6.53405 8.80136 6.23627 10.5567L9.19401 11.0585C9.45286 9.53262 9.85468 8.58285 10.2789 8.04294L7.91994 6.18948ZM6.23414 10.5696C5.95343 12.3163 5.81963 14.4455 5.81963 16.938H8.81963C8.81963 14.5379 8.9495 12.5802 9.19613 11.0456L6.23414 10.5696ZM46.8889 33V34.5H48.3889V33H46.8889ZM40.0993 33H38.5993V34.5H40.0993V33ZM40.1213 12.5215L41.621 12.5509L41.621 12.5503L40.1213 12.5215ZM40.1872 10.1924L41.6862 10.2479L41.6862 10.2469L40.1872 10.1924ZM40.2751 8.01709L41.7736 8.0852L41.9734 3.68778L39.13 7.04818L40.2751 8.01709ZM39.2863 9.00586L40.3133 10.0991L40.3144 10.0982L39.2863 9.00586ZM37.924 10.2363L38.8636 11.4056L38.8838 11.3894L38.9034 11.3724L37.924 10.2363ZM34.2326 13.2026L33.0619 14.1404L34.0012 15.3129L35.1722 14.3719L34.2326 13.2026ZM30.9587 9.11572L30.0244 7.94223L28.8474 8.87934L29.788 10.0535L30.9587 9.11572ZM41.3078 0.875977V-0.624023H40.7836L40.3735 -0.297511L41.3078 0.875977ZM46.8889 0.875977H48.3889V-0.624023H46.8889V0.875977ZM46.8889 31.5H40.0993V34.5H46.8889V31.5ZM41.5993 33V14.4111H38.5993V33H41.5993ZM41.5993 14.4111C41.5993 13.9116 41.6065 13.2921 41.621 12.5509L38.6216 12.4921C38.6068 13.245 38.5993 13.8853 38.5993 14.4111H41.5993ZM41.621 12.5503C41.6355 11.7978 41.6572 11.0304 41.6862 10.2479L38.6882 10.1369C38.6586 10.9364 38.6364 11.7217 38.6216 12.4926L41.621 12.5503ZM41.6862 10.2469C41.7154 9.4447 41.7445 8.72425 41.7736 8.0852L38.7766 7.94898C38.7471 8.59899 38.7176 9.32874 38.6882 10.1379L41.6862 10.2469ZM39.13 7.04818C39.0318 7.1643 38.7625 7.43898 38.2583 7.91356L40.3144 10.0982C40.8062 9.63524 41.1962 9.25074 41.4202 8.986L39.13 7.04818ZM38.2593 7.91259C37.7888 8.35462 37.3507 8.75018 36.9446 9.10021L38.9034 11.3724C39.347 10.9901 39.8171 10.5653 40.3133 10.0991L38.2593 7.91259ZM36.9844 9.06706L33.293 12.0334L35.1722 14.3719L38.8636 11.4056L36.9844 9.06706ZM35.4033 12.2648L32.1294 8.17791L29.788 10.0535L33.0619 14.1404L35.4033 12.2648ZM31.893 10.2892L42.2421 2.04946L40.3735 -0.297511L30.0244 7.94223L31.893 10.2892ZM41.3078 2.37598H46.8889V-0.624023H41.3078V2.37598ZM45.3889 0.875977V33H48.3889V0.875977H45.3889Z" fill="white" mask="url(#path-1-outside-1_193_10379)"/>
</g>
</svg>
