<svg width="52" height="34" viewBox="0 0 52 34" fill="none" xmlns="http://www.w3.org/2000/svg">
<g opacity="0.25">
<mask id="path-1-outside-1_193_10363" maskUnits="userSpaceOnUse" x="-1" y="-2" width="54" height="37" fill="black">
<rect fill="white" x="-1" y="-2" width="54" height="37"/>
<path d="M23.082 16.938C23.082 22.5483 22.1592 26.7012 20.3135 29.3965C18.4824 32.0918 15.6553 33.4395 11.832 33.4395C8.12598 33.4395 5.32812 32.0479 3.43848 29.2646C1.56348 26.4814 0.625977 22.3726 0.625977 16.938C0.625977 11.269 1.5415 7.09424 3.37256 4.41357C5.20361 1.71826 8.02344 0.370605 11.832 0.370605C15.5381 0.370605 18.3359 1.77686 20.2256 4.58936C22.1299 7.40186 23.082 11.5181 23.082 16.938ZM7.37158 16.938C7.37158 20.8784 7.7085 23.7056 8.38232 25.4194C9.0708 27.1187 10.2207 27.9683 11.832 27.9683C13.4141 27.9683 14.5566 27.104 15.2598 25.3755C15.9629 23.647 16.3145 20.8345 16.3145 16.938C16.3145 12.9976 15.9556 10.1704 15.2378 8.45654C14.5347 6.72803 13.3994 5.86377 11.832 5.86377C10.2354 5.86377 9.09277 6.72803 8.4043 8.45654C7.71582 10.1704 7.37158 12.9976 7.37158 16.938ZM50.4134 8.06104C50.4134 10.0679 49.8055 11.7744 48.5896 13.1807C47.3738 14.5869 45.6673 15.5537 43.47 16.0811V16.2129C46.0628 16.5352 48.0257 17.3262 49.3587 18.5859C50.6917 19.8311 51.3582 21.5156 51.3582 23.6396C51.3582 26.7305 50.2376 29.1401 47.9964 30.8687C45.7552 32.5825 42.5545 33.4395 38.3943 33.4395C34.908 33.4395 31.8172 32.8608 29.1219 31.7036V25.9248C30.367 26.5547 31.7366 27.0674 33.2308 27.4629C34.7249 27.8584 36.2044 28.0562 37.6692 28.0562C39.9104 28.0562 41.5657 27.6753 42.6351 26.9136C43.7044 26.1519 44.2391 24.9287 44.2391 23.2441C44.2391 21.7354 43.6238 20.666 42.3934 20.0361C41.1629 19.4062 39.2 19.0913 36.5047 19.0913H34.0657V13.8838H36.5486C39.0389 13.8838 40.8553 13.5615 41.9979 12.917C43.1551 12.2578 43.7337 11.1372 43.7337 9.55518C43.7337 7.12354 42.2103 5.90771 39.1634 5.90771C38.1087 5.90771 37.032 6.0835 35.9334 6.43506C34.8494 6.78662 33.6409 7.39453 32.3079 8.25879L29.1658 3.57861C32.0955 1.46924 35.5892 0.414551 39.6468 0.414551C42.972 0.414551 45.594 1.08838 47.513 2.43604C49.4466 3.78369 50.4134 5.65869 50.4134 8.06104Z"/>
</mask>
<path d="M20.3135 29.3965L19.0758 28.549L19.0727 28.5536L20.3135 29.3965ZM3.43848 29.2646L2.19444 30.1027L2.19748 30.1072L3.43848 29.2646ZM3.37256 4.41357L4.61119 5.25963L4.61332 5.25649L3.37256 4.41357ZM20.2256 4.58936L18.9805 5.4259L18.9835 5.43034L20.2256 4.58936ZM8.38232 25.4194L6.98634 25.9683L6.98918 25.9755L6.9921 25.9827L8.38232 25.4194ZM15.2378 8.45654L13.8483 9.02174L13.8513 9.02888L13.8542 9.03598L15.2378 8.45654ZM8.4043 8.45654L9.7962 9.01568L9.79782 9.01159L8.4043 8.45654ZM21.582 16.938C21.582 22.4389 20.667 26.2254 19.0758 28.549L21.5511 30.244C23.6514 27.1769 24.582 22.6578 24.582 16.938H21.582ZM19.0727 28.5536C17.5724 30.762 15.2577 31.9395 11.832 31.9395V34.9395C16.0529 34.9395 19.3924 33.4216 21.5542 30.2394L19.0727 28.5536ZM11.832 31.9395C8.56364 31.9395 6.25815 30.7473 4.67947 28.4221L2.19748 30.1072C4.3981 33.3484 7.68832 34.9395 11.832 34.9395V31.9395ZM4.68251 28.4266C3.04858 26.0012 2.12598 22.2424 2.12598 16.938H-0.874023C-0.874023 22.5027 0.0783749 26.9617 2.19444 30.1027L4.68251 28.4266ZM2.12598 16.938C2.12598 11.3721 3.03578 7.56602 4.61118 5.25963L2.13393 3.56752C0.0472264 6.62246 -0.874023 11.166 -0.874023 16.938H2.12598ZM4.61332 5.25649C6.11481 3.0463 8.42348 1.87061 11.832 1.87061V-1.12939C7.62339 -1.12939 4.29242 0.39022 2.13179 3.57066L4.61332 5.25649ZM11.832 1.87061C15.0937 1.87061 17.399 3.07197 18.9805 5.42589L21.4707 3.75282C19.2729 0.481742 15.9824 -1.12939 11.832 -1.12939V1.87061ZM18.9835 5.43034C20.6468 7.8869 21.582 11.6542 21.582 16.938H24.582C24.582 11.382 23.613 6.91681 21.4677 3.74837L18.9835 5.43034ZM5.87158 16.938C5.87158 20.9012 6.20193 23.9731 6.98634 25.9683L9.77831 24.8706C9.21506 23.438 8.87158 20.8556 8.87158 16.938H5.87158ZM6.9921 25.9827C7.4113 27.0173 8.01776 27.908 8.86974 28.5375C9.73507 29.1768 10.7481 29.4683 11.832 29.4683V26.4683C11.3046 26.4683 10.937 26.3349 10.6525 26.1246C10.3546 25.9045 10.0418 25.5208 9.77255 24.8562L6.9921 25.9827ZM11.832 29.4683C12.9137 29.4683 13.9213 29.1662 14.7804 28.5164C15.6229 27.8791 16.226 26.9811 16.6492 25.9407L13.8703 24.8103C13.5904 25.4984 13.2707 25.8968 12.9706 26.1238C12.6871 26.3382 12.3323 26.4683 11.832 26.4683V29.4683ZM16.6492 25.9407C17.4689 23.9257 17.8145 20.8635 17.8145 16.938H14.8145C14.8145 20.8055 14.4569 23.3682 13.8703 24.8103L16.6492 25.9407ZM17.8145 16.938C17.8145 12.9718 17.4625 9.88563 16.6214 7.8771L13.8542 9.03598C14.4486 10.4552 14.8145 13.0234 14.8145 16.938H17.8145ZM16.6272 7.89135C16.2049 6.85306 15.605 5.95594 14.7676 5.31846C13.9128 4.66773 12.9098 4.36377 11.832 4.36377V7.36377C12.3217 7.36377 12.6699 7.49194 12.9504 7.70546C13.2483 7.93224 13.5676 8.33151 13.8483 9.02174L16.6272 7.89135ZM11.832 4.36377C10.7464 4.36377 9.73424 4.66396 8.87269 5.31565C8.02695 5.95538 7.42667 6.85733 7.01077 7.90149L9.79782 9.01159C10.0704 8.32724 10.3856 7.93281 10.6825 7.70827C10.9635 7.4957 11.321 7.36377 11.832 7.36377V4.36377ZM7.0124 7.89741C6.20911 9.89709 5.87158 12.9738 5.87158 16.938H8.87158C8.87158 13.0213 9.22253 10.4437 9.79619 9.01568L7.0124 7.89741ZM43.47 16.0811L43.12 14.6225L41.97 14.8985V16.0811H43.47ZM43.47 16.2129H41.97V17.538L43.285 17.7014L43.47 16.2129ZM49.3587 18.5859L48.3284 19.6761L48.3348 19.6821L49.3587 18.5859ZM47.9964 30.8687L48.9076 32.0602L48.9125 32.0564L47.9964 30.8687ZM29.1219 31.7036H27.6219V32.692L28.5301 33.0819L29.1219 31.7036ZM29.1219 25.9248L29.799 24.5863L27.6219 23.485V25.9248H29.1219ZM34.0657 19.0913H32.5657V20.5913H34.0657V19.0913ZM34.0657 13.8838V12.3838H32.5657V13.8838H34.0657ZM41.9979 12.917L42.7348 14.2235L42.7403 14.2204L41.9979 12.917ZM35.9334 6.43506L35.4762 5.00641L35.4706 5.00822L35.9334 6.43506ZM32.3079 8.25879L31.0625 9.09488L31.8853 10.3204L33.1239 9.5174L32.3079 8.25879ZM29.1658 3.57861L28.2894 2.36131L27.1113 3.2095L27.9205 4.41471L29.1658 3.57861ZM47.513 2.43604L46.6509 3.66357L46.6553 3.66663L47.513 2.43604ZM48.9134 8.06104C48.9134 9.73857 48.4156 11.0885 47.4549 12.1996L49.7244 14.1617C51.1953 12.4604 51.9134 10.3972 51.9134 8.06104H48.9134ZM47.4549 12.1996C46.4852 13.3213 45.0792 14.1523 43.12 14.6225L43.8201 17.5396C46.2554 16.9552 48.2625 15.8526 49.7244 14.1617L47.4549 12.1996ZM41.97 16.0811V16.2129H44.97V16.0811H41.97ZM43.285 17.7014C45.6909 18.0005 47.3075 18.7113 48.3284 19.6761L50.389 17.4958C48.7438 15.941 46.4346 15.0698 43.655 14.7243L43.285 17.7014ZM48.3348 19.6821C49.3135 20.5963 49.8582 21.8566 49.8582 23.6396H52.8582C52.8582 21.1747 52.0699 19.0658 50.3826 17.4898L48.3348 19.6821ZM49.8582 23.6396C49.8582 26.3147 48.916 28.2651 47.0803 29.6809L48.9125 32.0564C51.5592 30.0151 52.8582 27.1463 52.8582 23.6396H49.8582ZM47.0852 29.6771C45.2039 31.1158 42.375 31.9395 38.3943 31.9395V34.9395C42.734 34.9395 46.3065 34.0493 48.9076 32.0602L47.0852 29.6771ZM38.3943 31.9395C35.0738 31.9395 32.1902 31.3886 29.7137 30.3253L28.5301 33.0819C31.4442 34.3331 34.7423 34.9395 38.3943 34.9395V31.9395ZM30.6219 31.7036V25.9248H27.6219V31.7036H30.6219ZM28.4448 27.2633C29.7929 27.9453 31.2621 28.4934 32.8469 28.9129L33.6146 26.0128C32.2111 25.6413 30.9411 25.1641 29.799 24.5863L28.4448 27.2633ZM32.8469 28.9129C34.4594 29.3398 36.0679 29.5562 37.6692 29.5562V26.5562C36.3409 26.5562 34.9904 26.377 33.6146 26.0128L32.8469 28.9129ZM37.6692 29.5562C40.0249 29.5562 42.0581 29.1662 43.5053 28.1353L41.7648 25.6918C41.0733 26.1844 39.796 26.5562 37.6692 26.5562V29.5562ZM43.5053 28.1353C45.0794 27.014 45.7391 25.2614 45.7391 23.2441H42.7391C42.7391 24.596 42.3294 25.2897 41.7648 25.6918L43.5053 28.1353ZM45.7391 23.2441C45.7391 22.2854 45.5426 21.3704 45.0778 20.5625C44.6087 19.7471 43.918 19.1315 43.0769 18.7009L41.7099 21.3714C42.0992 21.5707 42.3314 21.8046 42.4775 22.0586C42.6279 22.32 42.7391 22.694 42.7391 23.2441H45.7391ZM43.0769 18.7009C41.5159 17.9018 39.2529 17.5913 36.5047 17.5913V20.5913C39.1471 20.5913 40.8099 20.9107 41.7099 21.3714L43.0769 18.7009ZM36.5047 17.5913H34.0657V20.5913H36.5047V17.5913ZM35.5657 19.0913V13.8838H32.5657V19.0913H35.5657ZM34.0657 15.3838H36.5486V12.3838H34.0657V15.3838ZM36.5486 15.3838C39.1034 15.3838 41.2439 15.0645 42.7348 14.2235L41.2609 11.6105C40.4667 12.0585 38.9743 12.3838 36.5486 12.3838V15.3838ZM42.7403 14.2204C44.4618 13.2398 45.2337 11.556 45.2337 9.55518H42.2337C42.2337 10.7185 41.8484 11.2759 41.2554 11.6136L42.7403 14.2204ZM45.2337 9.55518C45.2337 8.00705 44.7319 6.60898 43.5268 5.64718C42.3862 4.73691 40.8465 4.40771 39.1634 4.40771V7.40771C40.5272 7.40771 41.2726 7.68643 41.6554 7.99198C41.9737 8.246 42.2337 8.67167 42.2337 9.55518H45.2337ZM39.1634 4.40771C37.9397 4.40771 36.7089 4.61198 35.4762 5.00642L36.3906 7.86369C37.3552 7.55502 38.2777 7.40771 39.1634 7.40771V4.40771ZM35.4706 5.00822C34.2239 5.41256 32.8951 6.09037 31.4919 7.00018L33.1239 9.5174C34.3867 8.69869 35.4749 8.16068 36.3962 7.86189L35.4706 5.00822ZM33.5533 7.4227L30.4112 2.74252L27.9205 4.41471L31.0625 9.09488L33.5533 7.4227ZM30.0423 4.79591C32.6855 2.89278 35.863 1.91455 39.6468 1.91455V-1.08545C35.3153 -1.08545 31.5055 0.0456946 28.2894 2.36131L30.0423 4.79591ZM39.6468 1.91455C42.7878 1.91455 45.07 2.55332 46.6509 3.66356L48.3751 1.20851C46.1181 -0.376567 43.1562 -1.08545 39.6468 -1.08545V1.91455ZM46.6553 3.66663C48.1773 4.7274 48.9134 6.13794 48.9134 8.06104H51.9134C51.9134 5.17944 50.7159 2.83999 48.3707 1.20544L46.6553 3.66663Z" fill="white" mask="url(#path-1-outside-1_193_10363)"/>
</g>
</svg>
